<?xml version="1.0" encoding="UTF-8"?>
<svg width="180px" height="52px" viewBox="0 0 180 52" version="1.1" xmlns="http://www.w3.org/2000/svg" xmlns:xlink="http://www.w3.org/1999/xlink">
    <!-- Generator: Sketch 53.2 (72643) - https://sketchapp.com -->
    <title>Button - App Store</title>
    <desc>Created with Sketch.</desc>
    <g id="Page-1" stroke="none" stroke-width="1" fill="none" fill-rule="evenodd">
        <g id="Home-" transform="translate(-829.000000, -3997.000000)">
            <g id="Button---App-Store" transform="translate(829.000000, 3997.000000)">
                <rect id="Button" fill="#2B2D32" x="0" y="0" width="180" height="52" rx="19.2000003"></rect>
                <path d="M55.0909091,23.1960521 C57.349091,23.1960521 58.7672728,21.5968832 58.7672728,19.5979221 C58.7672728,17.6205715 57.349091,15.988987 55.0909091,15.988987 L52.7672727,15.988987 L52.7672727,23.1960521 L55.0909091,23.1960521 Z M55.0909091,22.6341819 L53.3890909,22.6341819 L53.3890909,16.5508572 L55.0909091,16.5508572 C57.0218183,16.5508572 58.1127274,17.9123117 58.1127274,19.5979221 C58.1127274,21.2835325 57.0109092,22.6341819 55.0909091,22.6341819 L55.0909091,22.6341819 Z M63.578182,23.3257144 C65.7054548,23.3257144 67.1127275,21.7049352 67.1127275,19.5979221 C67.1127275,17.4909091 65.7054548,15.8701299 63.578182,15.8701299 C61.4400001,15.8701299 60.0436365,17.4909091 60.0436365,19.5979221 C60.0436365,21.7049352 61.4400001,23.3257144 63.578182,23.3257144 L63.578182,23.3257144 Z M63.578182,22.7638443 C61.8218183,22.7638443 60.698182,21.4131949 60.698182,19.5979221 C60.698182,17.7718442 61.8218183,16.432 63.578182,16.432 C65.3236366,16.432 66.458182,17.7718442 66.458182,19.5979221 C66.458182,21.4131949 65.3236366,22.7638443 63.578182,22.7638443 L63.578182,22.7638443 Z M74.9236367,23.1960521 L76.996364,15.988987 L76.2981822,15.988987 L74.5418185,22.3316365 L72.7636367,15.988987 L72.1963639,15.988987 L70.407273,22.3316365 L68.6509093,15.988987 L67.9527275,15.988987 L70.0363639,23.1960521 L70.7345457,23.1960521 L72.4800003,17.0046753 L74.2254549,23.1960521 L74.9236367,23.1960521 Z M83.9236368,23.1960521 L83.9236368,15.988987 L83.3018187,15.988987 L83.3018187,22.0939222 L78.7418186,15.988987 L78.1090913,15.988987 L78.1090913,23.1960521 L78.7309095,23.1960521 L78.7309095,17.0046753 L83.3127277,23.1960521 L83.9236368,23.1960521 Z M89.7381824,23.1960521 L89.7381824,22.6341819 L86.214546,22.6341819 L86.214546,15.988987 L85.5818187,15.988987 L85.5818187,23.1960521 L89.7381824,23.1960521 Z M94.2763643,23.3257144 C96.403637,23.3257144 97.8109098,21.7049352 97.8109098,19.5979221 C97.8109098,17.4909091 96.403637,15.8701299 94.2763643,15.8701299 C92.1381824,15.8701299 90.7418188,17.4909091 90.7418188,19.5979221 C90.7418188,21.7049352 92.1381824,23.3257144 94.2763643,23.3257144 L94.2763643,23.3257144 Z M94.2763643,22.7638443 C92.5200006,22.7638443 91.3963642,21.4131949 91.3963642,19.5979221 C91.3963642,17.7718442 92.5200006,16.432 94.2763643,16.432 C96.0218188,16.432 97.1563643,17.7718442 97.1563643,19.5979221 C97.1563643,21.4131949 96.0218188,22.7638443 94.2763643,22.7638443 L94.2763643,22.7638443 Z M105.338183,23.1960521 L102.360001,15.988987 L101.585455,15.988987 L98.6072734,23.1960521 L99.3272734,23.1960521 L100.047273,21.4240001 L103.898183,21.4240001 L104.618183,23.1960521 L105.338183,23.1960521 Z M103.69091,20.8621299 L100.254546,20.8621299 L101.978183,16.6481039 L103.69091,20.8621299 Z M108.73091,23.1960521 C110.989092,23.1960521 112.407274,21.5968832 112.407274,19.5979221 C112.407274,17.6205715 110.989092,15.988987 108.73091,15.988987 L106.407274,15.988987 L106.407274,23.1960521 L108.73091,23.1960521 Z M108.73091,22.6341819 L107.029092,22.6341819 L107.029092,16.5508572 L108.73091,16.5508572 C110.661819,16.5508572 111.752728,17.9123117 111.752728,19.5979221 C111.752728,21.2835325 110.65091,22.6341819 108.73091,22.6341819 L108.73091,22.6341819 Z M117.403637,23.1960521 L117.403637,19.7816104 L121.320001,19.7816104 L121.320001,19.2197403 L117.403637,19.2197403 L117.403637,16.5508572 L121.396365,16.5508572 L121.396365,15.988987 L116.781819,15.988987 L116.781819,23.1960521 L117.403637,23.1960521 Z M127.712728,23.1960521 L125.607274,20.1705975 C126.698183,20.1273767 127.625456,19.4034286 127.625456,18.096 C127.625456,16.7777662 126.665456,15.988987 125.41091,15.988987 L122.694547,15.988987 L122.694547,23.1960521 L123.316365,23.1960521 L123.316365,20.2138182 L124.920001,20.2138182 L126.960001,23.1960521 L127.712728,23.1960521 Z M125.356365,19.6519481 L123.316365,19.6519481 L123.316365,16.5508572 L125.356365,16.5508572 C126.327274,16.5508572 126.97091,17.1883637 126.97091,18.096 C126.97091,19.0036364 126.327274,19.6519481 125.356365,19.6519481 L125.356365,19.6519481 Z M132.436365,23.3257144 C134.563638,23.3257144 135.97091,21.7049352 135.97091,19.5979221 C135.97091,17.4909091 134.563638,15.8701299 132.436365,15.8701299 C130.298183,15.8701299 128.901819,17.4909091 128.901819,19.5979221 C128.901819,21.7049352 130.298183,23.3257144 132.436365,23.3257144 L132.436365,23.3257144 Z M132.436365,22.7638443 C130.680001,22.7638443 129.556365,21.4131949 129.556365,19.5979221 C129.556365,17.7718442 130.680001,16.432 132.436365,16.432 C134.181819,16.432 135.316365,17.7718442 135.316365,19.5979221 C135.316365,21.4131949 134.181819,22.7638443 132.436365,22.7638443 L132.436365,22.7638443 Z M144.316365,23.1960521 L144.316365,15.988987 L143.378183,15.988987 L140.912729,21.9858702 L138.436365,15.988987 L137.509092,15.988987 L137.509092,23.1960521 L138.13091,23.1960521 L138.13091,16.7669611 L140.792729,23.1960521 L141.032729,23.1960521 L143.683638,16.7669611 L143.683638,23.1960521 L144.316365,23.1960521 Z M59.3672728,36.0272209 L56.5636364,28.8201558 L54.6218182,28.8201558 L51.8181818,36.0272209 L53.5745455,36.0272209 L54.0327273,34.8062339 L57.1527274,34.8062339 L57.6109092,36.0272209 L59.3672728,36.0272209 Z M56.7272728,33.4555845 L54.4581819,33.4555845 L55.5927273,30.3544935 L56.7272728,33.4555845 Z M61.5927274,36.0272209 L61.5927274,33.4555845 L63.4472729,33.4555845 C65.018182,33.4555845 65.8909093,32.3966754 65.8909093,31.1432728 C65.8909093,29.879065 65.0290911,28.8201558 63.4472729,28.8201558 L60.0436365,28.8201558 L60.0436365,36.0272209 L61.5927274,36.0272209 Z M63.2290911,32.1049351 L61.5927274,32.1049351 L61.5927274,30.1708052 L63.2290911,30.1708052 C63.8400002,30.1708052 64.3090911,30.5381818 64.3090911,31.1432728 C64.3090911,31.7375585 63.8400002,32.1049351 63.2290911,32.1049351 L63.2290911,32.1049351 Z M68.4109093,36.0272209 L68.4109093,33.4555845 L70.2654548,33.4555845 C71.8363639,33.4555845 72.7090912,32.3966754 72.7090912,31.1432728 C72.7090912,29.879065 71.847273,28.8201558 70.2654548,28.8201558 L66.8618184,28.8201558 L66.8618184,36.0272209 L68.4109093,36.0272209 Z M70.047273,32.1049351 L68.4109093,32.1049351 L68.4109093,30.1708052 L70.047273,30.1708052 C70.6581821,30.1708052 71.127273,30.5381818 71.127273,31.1432728 C71.127273,31.7375585 70.6581821,32.1049351 70.047273,32.1049351 L70.047273,32.1049351 Z M78.2509095,36.0272209 L78.2509095,34.6765715 L75.1745458,34.6765715 L75.1745458,28.8201558 L73.6145458,28.8201558 L73.6145458,36.0272209 L78.2509095,36.0272209 Z M84.4472732,36.0272209 L84.4472732,34.6765715 L80.8472732,34.6765715 L80.8472732,33.0341819 L84.3709096,33.0341819 L84.3709096,31.6835325 L80.8472732,31.6835325 L80.8472732,30.1708052 L84.4472732,30.1708052 L84.4472732,28.8201558 L79.2981822,28.8201558 L79.2981822,36.0272209 L84.4472732,36.0272209 Z M95.2472734,36.0272209 L92.443637,28.8201558 L90.5018188,28.8201558 L87.6981824,36.0272209 L89.454546,36.0272209 L89.9127278,34.8062339 L93.0327279,34.8062339 L93.4909097,36.0272209 L95.2472734,36.0272209 Z M92.6072733,33.4555845 L90.3381824,33.4555845 L91.4727279,30.3544935 L92.6072733,33.4555845 Z M97.472728,36.0272209 L97.472728,33.4555845 L99.3272734,33.4555845 C100.898183,33.4555845 101.77091,32.3966754 101.77091,31.1432728 C101.77091,29.879065 100.909092,28.8201558 99.3272734,28.8201558 L95.923637,28.8201558 L95.923637,36.0272209 L97.472728,36.0272209 Z M99.1090916,32.1049351 L97.472728,32.1049351 L97.472728,30.1708052 L99.1090916,30.1708052 C99.7200007,30.1708052 100.189092,30.5381818 100.189092,31.1432728 C100.189092,31.7375585 99.7200007,32.1049351 99.1090916,32.1049351 L99.1090916,32.1049351 Z M104.29091,36.0272209 L104.29091,33.4555845 L106.145455,33.4555845 C107.716364,33.4555845 108.589092,32.3966754 108.589092,31.1432728 C108.589092,29.879065 107.727274,28.8201558 106.145455,28.8201558 L102.741819,28.8201558 L102.741819,36.0272209 L104.29091,36.0272209 Z M105.927274,32.1049351 L104.29091,32.1049351 L104.29091,30.1708052 L105.927274,30.1708052 C106.538183,30.1708052 107.007274,30.5381818 107.007274,31.1432728 C107.007274,31.7375585 106.538183,32.1049351 105.927274,32.1049351 L105.927274,32.1049351 Z M114.960001,36.1568832 C116.912728,36.1568832 117.872728,35.1628053 117.872728,33.8445715 C117.872728,31.154078 113.694546,31.9212468 113.694546,30.7867013 C113.694546,30.3544935 114.065455,30.0735585 114.720001,30.0735585 C115.461819,30.0735585 116.247274,30.3220779 116.836365,30.8623377 L117.698183,29.716987 C116.978183,29.0578701 116.018183,28.7121039 114.861819,28.7121039 C113.149092,28.7121039 112.101819,29.7061818 112.101819,30.9055585 C112.101819,33.6176624 116.29091,32.7424416 116.29091,33.9958442 C116.29091,34.4172468 115.887274,34.7954287 115.025455,34.7954287 C114.021819,34.7954287 113.225455,34.3416105 112.712728,33.8121559 L111.861819,35.0115326 C112.549092,35.6922598 113.552728,36.1568832 114.960001,36.1568832 L114.960001,36.1568832 Z M122.149092,36.0272209 L122.149092,30.1708052 L124.265456,30.1708052 L124.265456,28.8201558 L118.461819,28.8201558 L118.461819,30.1708052 L120.589092,30.1708052 L120.589092,36.0272209 L122.149092,36.0272209 Z M128.716365,36.1568832 C130.909092,36.1568832 132.512728,34.6009352 132.512728,32.429091 C132.512728,30.2572468 130.909092,28.7012987 128.716365,28.7012987 C126.512728,28.7012987 124.909092,30.2572468 124.909092,32.429091 C124.909092,34.6009352 126.512728,36.1568832 128.716365,36.1568832 L128.716365,36.1568832 Z M128.716365,34.7954287 C127.363637,34.7954287 126.501819,33.7689351 126.501819,32.429091 C126.501819,31.0784416 127.363637,30.0627533 128.716365,30.0627533 C130.058183,30.0627533 130.920001,31.0784416 130.920001,32.429091 C130.920001,33.7689351 130.058183,34.7954287 128.716365,34.7954287 L128.716365,34.7954287 Z M139.505456,36.0272209 L137.858183,33.2827014 C138.643638,33.0990131 139.461819,32.4074806 139.461819,31.1432728 C139.461819,29.8034286 138.523638,28.8201558 137.007274,28.8201558 L133.603638,28.8201558 L133.603638,36.0272209 L135.152729,36.0272209 L135.152729,33.4663897 L136.287274,33.4663897 L137.716365,36.0272209 L139.505456,36.0272209 Z M136.789092,32.1157403 L135.152729,32.1157403 L135.152729,30.1708052 L136.789092,30.1708052 C137.400001,30.1708052 137.869092,30.5381818 137.869092,31.1324676 C137.869092,31.7483637 137.400001,32.1157403 136.789092,32.1157403 L136.789092,32.1157403 Z M145.767274,36.0272209 L145.767274,34.6765715 L142.167274,34.6765715 L142.167274,33.0341819 L145.69091,33.0341819 L145.69091,31.6835325 L142.167274,31.6835325 L142.167274,30.1708052 L145.767274,30.1708052 L145.767274,28.8201558 L140.618183,28.8201558 L140.618183,36.0272209 L145.767274,36.0272209 Z" id="DOWNLOAD-FROM" fill="#FFFFFF"></path>
                <path d="M29.6984685,18.7579793 C28.9180689,19.7481466 27.5732445,20.5153676 26.2737829,20.4756975 C26.0365318,19.1991116 26.6459178,17.8856324 27.3837648,17.0001944 C28.196681,16.024705 29.5892768,15.276129 30.7799482,15.1948052 C30.9806682,16.5289128 30.4270823,17.8336645 29.6984685,18.7579793 Z M36.1363636,31.2969249 C35.6144915,32.4398223 35.3647957,32.9495839 34.692785,33.9591896 C33.7558237,35.3690672 32.4346843,37.1240753 30.798013,37.1395466 C29.3427925,37.1526378 28.9694532,36.2037275 26.9951707,36.2144384 C25.0212897,36.2255461 24.6090107,37.1558114 23.1541917,37.1427203 C21.5171189,37.1280423 20.2650272,35.5428225 19.3276645,34.1333416 C16.7062606,30.1913174 16.4324784,25.5649828 18.0490778,23.1054326 C19.1979994,21.3575652 21.0101001,20.3348684 22.7142133,20.3348684 C24.449639,20.3348684 25.5403518,21.2746546 26.9746973,21.2746546 C28.3664902,21.2746546 29.2143317,20.3332816 31.220328,20.3332816 C32.7365673,20.3332816 34.3431306,21.1492968 35.4880378,22.5591745 C31.7369814,24.5902869 32.3463675,29.8818901 36.1363636,31.2969249 Z" id="Icon---Apple" fill="#FFFFFF"></path>
            </g>
        </g>
    </g>
</svg>