<?xml version="1.0" encoding="UTF-8"?>
<svg width="20px" height="23px" viewBox="0 0 20 23" version="1.1" xmlns="http://www.w3.org/2000/svg" xmlns:xlink="http://www.w3.org/1999/xlink">
    <!-- Generator: Sketch 53.2 (72643) - https://sketchapp.com -->
    <title>Icon - Apple</title>
    <desc>Created with Sketch.</desc>
    <g id="Page-1" stroke="none" stroke-width="1" fill="none" fill-rule="evenodd">
        <g id="Home-" transform="translate(-846.000000, -4012.000000)" fill="#FFFFFF">
            <g id="Button---App-Store" transform="translate(829.000000, 3997.000000)">
                <path d="M29.6984685,18.7579793 C28.9180689,19.7481466 27.5732445,20.5153676 26.2737829,20.4756975 C26.0365318,19.1991116 26.6459178,17.8856324 27.3837648,17.0001944 C28.196681,16.024705 29.5892768,15.276129 30.7799482,15.1948052 C30.9806682,16.5289128 30.4270823,17.8336645 29.6984685,18.7579793 Z M36.1363636,31.2969249 C35.6144915,32.4398223 35.3647957,32.9495839 34.692785,33.9591896 C33.7558237,35.3690672 32.4346843,37.1240753 30.798013,37.1395466 C29.3427925,37.1526378 28.9694532,36.2037275 26.9951707,36.2144384 C25.0212897,36.2255461 24.6090107,37.1558114 23.1541917,37.1427203 C21.5171189,37.1280423 20.2650272,35.5428225 19.3276645,34.1333416 C16.7062606,30.1913174 16.4324784,25.5649828 18.0490778,23.1054326 C19.1979994,21.3575652 21.0101001,20.3348684 22.7142133,20.3348684 C24.449639,20.3348684 25.5403518,21.2746546 26.9746973,21.2746546 C28.3664902,21.2746546 29.2143317,20.3332816 31.220328,20.3332816 C32.7365673,20.3332816 34.3431306,21.1492968 35.4880378,22.5591745 C31.7369814,24.5902869 32.3463675,29.8818901 36.1363636,31.2969249 Z" id="Icon---Apple"></path>
            </g>
        </g>
    </g>
</svg>