<?xml version="1.0" encoding="UTF-8"?>
<svg width="25px" height="30px" viewBox="0 0 25 30" version="1.1" xmlns="http://www.w3.org/2000/svg" xmlns:xlink="http://www.w3.org/1999/xlink">
    <!-- Generator: Sketch 53.2 (72643) - https://sketchapp.com -->
    <title>Calculator</title>
    <desc>Created with Sketch.</desc>
    <g id="Page-1" stroke="none" stroke-width="1" fill="none" fill-rule="evenodd">
        <g id="-_Today’s-Orders-Copy" transform="translate(-444.000000, -760.000000)" fill="#7FB017">
            <g id="Calculator" transform="translate(444.000000, 760.000000)">
                <path d="M22.8974359,0.255319149 L2.38461538,0.255319149 C1.32252933,0.255319149 0.461538462,1.11264622 0.461538462,2.17021277 L0.461538462,27.7021277 C0.461538462,28.7596942 1.32252933,29.6170213 2.38461538,29.6170213 L22.8974359,29.6170213 C23.959522,29.6170213 24.8205128,28.7596942 24.8205128,27.7021277 L24.8205128,2.17021277 C24.8205128,1.11264622 23.959522,0.255319149 22.8974359,0.255319149 Z M22.8974359,27.7021277 L2.38461538,27.7021277 L2.38461538,2.17021277 L22.8974359,2.17021277 L22.8974359,27.7021277 Z" id="Shape"></path>
                <path d="M5.58974359,8.55319149 L19.6923077,8.55319149 C20.7543937,8.55319149 21.6153846,7.69586441 21.6153846,6.63829787 L21.6153846,5.36170213 C21.6153846,4.30413559 20.7543937,3.44680851 19.6923077,3.44680851 L5.58974359,3.44680851 C4.52765753,3.44680851 3.66666667,4.30413559 3.66666667,5.36170213 L3.66666667,6.63829787 C3.66666667,7.14615924 3.86927598,7.63321992 4.22992286,7.99233213 C4.59056974,8.35144435 5.07971188,8.55319149 5.58974359,8.55319149 Z M5.58974359,5.36170213 L19.6923077,5.36170213 L19.6923077,6.63829787 L5.58974359,6.63829787 L5.58974359,5.36170213 Z" id="Shape"></path>
                <path d="M5.58974359,14.9361702 L6.87179487,14.9361702 C7.93388093,14.9361702 8.79487179,14.0788431 8.79487179,13.0212766 L8.79487179,11.7446809 C8.79487179,10.6871143 7.93388093,9.82978723 6.87179487,9.82978723 L5.58974359,9.82978723 C4.52765753,9.82978723 3.66666667,10.6871143 3.66666667,11.7446809 L3.66666667,13.0212766 C3.66666667,14.0788431 4.52765753,14.9361702 5.58974359,14.9361702 Z M5.58974359,11.7446809 L6.87179487,11.7446809 L6.87179487,13.0212766 L5.58974359,13.0212766 L5.58974359,11.7446809 Z" id="Shape"></path>
                <path d="M13.2820513,9.82978723 L12,9.82978723 C10.9379139,9.82978723 10.0769231,10.6871143 10.0769231,11.7446809 L10.0769231,13.0212766 C10.0769231,14.0788431 10.9379139,14.9361702 12,14.9361702 L13.2820513,14.9361702 C14.3441373,14.9361702 15.2051282,14.0788431 15.2051282,13.0212766 L15.2051282,11.7446809 C15.2051282,10.6871143 14.3441373,9.82978723 13.2820513,9.82978723 Z M13.2820513,13.0212766 L12,13.0212766 L12,11.7446809 L13.2820513,11.7446809 L13.2820513,13.0212766 Z" id="Shape"></path>
                <path d="M19.6923077,9.82978723 L18.4102564,9.82978723 C17.3481704,9.82978723 16.4871795,10.6871143 16.4871795,11.7446809 L16.4871795,13.0212766 C16.4871795,14.0788431 17.3481704,14.9361702 18.4102564,14.9361702 L19.6923077,14.9361702 C20.7543937,14.9361702 21.6153846,14.0788431 21.6153846,13.0212766 L21.6153846,11.7446809 C21.6153846,10.6871143 20.7543937,9.82978723 19.6923077,9.82978723 L19.6923077,9.82978723 Z M19.6923077,13.0212766 L18.4102564,13.0212766 L18.4102564,11.7446809 L19.6923077,11.7446809 L19.6923077,13.0212766 Z" id="Shape"></path>
                <path d="M5.58974359,20.6808511 L6.87179487,20.6808511 C7.93388093,20.6808511 8.79487179,19.823524 8.79487179,18.7659574 L8.79487179,17.4893617 C8.79487179,16.4317952 7.93388093,15.5744681 6.87179487,15.5744681 L5.58974359,15.5744681 C4.52765753,15.5744681 3.66666667,16.4317952 3.66666667,17.4893617 L3.66666667,18.7659574 C3.66666667,19.823524 4.52765753,20.6808511 5.58974359,20.6808511 Z M5.58974359,17.4893617 L6.87179487,17.4893617 L6.87179487,18.7659574 L5.58974359,18.7659574 L5.58974359,17.4893617 Z" id="Shape"></path>
                <path d="M13.2820513,15.5744681 L12,15.5744681 C10.9379139,15.5744681 10.0769231,16.4317952 10.0769231,17.4893617 L10.0769231,18.7659574 C10.0769231,19.823524 10.9379139,20.6808511 12,20.6808511 L13.2820513,20.6808511 C14.3441373,20.6808511 15.2051282,19.823524 15.2051282,18.7659574 L15.2051282,17.4893617 C15.2051282,16.4317952 14.3441373,15.5744681 13.2820513,15.5744681 Z M13.2820513,18.7659574 L12,18.7659574 L12,17.4893617 L13.2820513,17.4893617 L13.2820513,18.7659574 Z" id="Shape"></path>
                <path d="M19.6923077,15.5744681 L18.4102564,15.5744681 C17.3481704,15.5744681 16.4871795,16.4317952 16.4871795,17.4893617 L16.4871795,18.7659574 C16.4871795,19.823524 17.3481704,20.6808511 18.4102564,20.6808511 L19.6923077,20.6808511 C20.7543937,20.6808511 21.6153846,19.823524 21.6153846,18.7659574 L21.6153846,17.4893617 C21.6153846,16.4317952 20.7543937,15.5744681 19.6923077,15.5744681 L19.6923077,15.5744681 Z M19.6923077,18.7659574 L18.4102564,18.7659574 L18.4102564,17.4893617 L19.6923077,17.4893617 L19.6923077,18.7659574 Z" id="Shape"></path>
                <path d="M5.58974359,26.4255319 L6.87179487,26.4255319 C7.93388093,26.4255319 8.79487179,25.5682048 8.79487179,24.5106383 L8.79487179,23.2340426 C8.79487179,22.176476 7.93388093,21.3191489 6.87179487,21.3191489 L5.58974359,21.3191489 C4.52765753,21.3191489 3.66666667,22.176476 3.66666667,23.2340426 L3.66666667,24.5106383 C3.66666667,25.5682048 4.52765753,26.4255319 5.58974359,26.4255319 Z M5.58974359,23.2340426 L6.87179487,23.2340426 L6.87179487,24.5106383 L5.58974359,24.5106383 L5.58974359,23.2340426 Z" id="Shape"></path>
                <path d="M13.2820513,21.3191489 L12,21.3191489 C10.9379139,21.3191489 10.0769231,22.176476 10.0769231,23.2340426 L10.0769231,24.5106383 C10.0769231,25.5682048 10.9379139,26.4255319 12,26.4255319 L13.2820513,26.4255319 C14.3441373,26.4255319 15.2051282,25.5682048 15.2051282,24.5106383 L15.2051282,23.2340426 C15.2051282,22.176476 14.3441373,21.3191489 13.2820513,21.3191489 Z M13.2820513,24.5106383 L12,24.5106383 L12,23.2340426 L13.2820513,23.2340426 L13.2820513,24.5106383 Z" id="Shape"></path>
                <path d="M19.6923077,21.3191489 L18.4102564,21.3191489 C17.3481704,21.3191489 16.4871795,22.176476 16.4871795,23.2340426 L16.4871795,24.5106383 C16.4871795,25.5682048 17.3481704,26.4255319 18.4102564,26.4255319 L19.6923077,26.4255319 C20.7543937,26.4255319 21.6153846,25.5682048 21.6153846,24.5106383 L21.6153846,23.2340426 C21.6153846,22.176476 20.7543937,21.3191489 19.6923077,21.3191489 L19.6923077,21.3191489 Z M19.6923077,24.5106383 L18.4102564,24.5106383 L18.4102564,23.2340426 L19.6923077,23.2340426 L19.6923077,24.5106383 Z" id="Shape"></path>
            </g>
        </g>
    </g>
</svg>