<?xml version="1.0" encoding="UTF-8"?>
<svg width="34px" height="29px" viewBox="0 0 34 29" version="1.1" xmlns="http://www.w3.org/2000/svg" xmlns:xlink="http://www.w3.org/1999/xlink">
    <!-- Generator: Sketch 53.2 (72643) - https://sketchapp.com -->
    <title>Page 1</title>
    <desc>Created with Sketch.</desc>
    <defs>
        <polygon id="path-1" points="26.2643806 0.0931935484 0 0.0931935484 0 26.7830419 26.2643806 26.7830419 26.2643806 0.0931935484"></polygon>
        <polygon id="path-3" points="13.650875 0.28236 13.650875 12.9998267 0.8106 12.9998267 0.8106 0.28236 13.650875 0.28236"></polygon>
    </defs>
    <g id="Page-1" stroke="none" stroke-width="1" fill="none" fill-rule="evenodd">
        <g id="-_Today’s-Orders-Copy" transform="translate(-441.000000, -554.000000)">
            <g id="Page-1" transform="translate(441.000000, 554.000000)">
                <g id="Group-3" transform="translate(0.500000, 0.000000)">
                    <mask id="mask-2" fill="white">
                        <use xlink:href="#path-1"></use>
                    </mask>
                    <g id="Clip-2"></g>
                    <path d="M4.29160645,4.6656871 L4.29160645,5.32849355 C4.29160645,5.99042903 4.82899355,6.52781613 5.4918,6.52781613 C6.15460645,6.52781613 6.69112258,5.99042903 6.69112258,5.32849355 L6.69112258,4.6656871 L11.9317355,4.6656871 L11.9317355,5.32849355 C11.9317355,5.99042903 12.4699935,6.52781613 13.131929,6.52781613 C13.7947355,6.52781613 14.3312516,5.99042903 14.3312516,5.32849355 L14.3312516,4.6656871 L19.5727355,4.6656871 L19.5727355,5.32849355 C19.5727355,5.99042903 20.1101226,6.52781613 20.772929,6.52781613 C21.4357355,6.52781613 21.9722516,5.99042903 21.9722516,5.32849355 L21.9722516,4.6656871 L24.7114452,4.6656871 L24.7114452,7.59039677 L1.5524129,7.59039677 L1.5524129,4.6656871 L4.29160645,4.6656871 Z M18.0633484,25.2301065 L1.5524129,25.2301065 L1.5524129,9.14333226 L24.7114452,9.14333226 L24.7114452,14.0259774 C24.7114452,14.4544935 25.0589613,14.8020097 25.4874774,14.8020097 C25.9168645,14.8020097 26.2643806,14.4544935 26.2643806,14.0259774 L26.2643806,3.88965484 C26.2643806,3.46026774 25.9168645,3.11275161 25.4874774,3.11275161 L21.9722516,3.11275161 L21.9722516,1.2933 C21.9722516,0.630493548 21.4357355,0.0931064516 20.772929,0.0931064516 C20.1101226,0.0931064516 19.5727355,0.630493548 19.5727355,1.2933 L19.5727355,3.11275161 L14.3312516,3.11275161 L14.3312516,1.2933 C14.3312516,0.630493548 13.7947355,0.0931064516 13.131929,0.0931064516 C12.4699935,0.0931064516 11.9317355,0.630493548 11.9317355,1.2933 L11.9317355,3.11275161 L6.69112258,3.11275161 L6.69112258,1.2933 C6.69112258,0.630493548 6.15460645,0.0931064516 5.4918,0.0931064516 C4.82899355,0.0931064516 4.29160645,0.630493548 4.29160645,1.2933 L4.29160645,3.11275161 L0.776380645,3.11275161 C0.347864516,3.11275161 -0.000522580645,3.46026774 -0.000522580645,3.88965484 L-0.000522580645,26.0061387 C-0.000522580645,26.4355258 0.347864516,26.7830419 0.776380645,26.7830419 L18.0633484,26.7830419 C18.4918645,26.7830419 18.8385097,26.4355258 18.8385097,26.0061387 C18.8385097,25.5776226 18.4918645,25.2301065 18.0633484,25.2301065 L18.0633484,25.2301065 Z" id="Fill-1" fill="#7EB041" mask="url(#mask-2)"></path>
                </g>
                <path d="M13.5,11.8693042 C13.5,11.3888131 13.1103683,11 12.6306958,11 L11.3693042,11 C10.8896317,11 10.5,11.3888131 10.5,11.8693042 L10.5,13.1306958 C10.5,13.6103683 10.8896317,14 11.3693042,14 L12.6306958,14 C13.1103683,14 13.5,13.6103683 13.5,13.1306958 L13.5,11.8693042 Z" id="Fill-4" fill="#7EB041"></path>
                <path d="M17.5,11.8693042 C17.5,11.3888131 17.1103683,11 16.6306958,11 L15.3693042,11 C14.8896317,11 14.5,11.3888131 14.5,11.8693042 L14.5,13.1306958 C14.5,13.6103683 14.8896317,14 15.3693042,14 L16.6306958,14 C17.1103683,14 17.5,13.6103683 17.5,13.1306958 L17.5,11.8693042 Z" id="Fill-6" fill="#7EB041"></path>
                <path d="M20.3693042,11 C19.8888131,11 19.5,11.3888131 19.5,11.8693042 L19.5,13.1306958 C19.5,13.6103683 19.8888131,14 20.3693042,14 L21.6306958,14 C22.1103683,14 22.5,13.6103683 22.5,13.1306958 L22.5,11.8693042 C22.5,11.3888131 22.1103683,11 21.6306958,11 L20.3693042,11 Z" id="Fill-8" fill="#7EB041"></path>
                <path d="M8.5,16.8693042 C8.5,16.3896317 8.11036835,16 7.63069577,16 L6.36930423,16 C5.88963165,16 5.5,16.3896317 5.5,16.8693042 L5.5,18.1306958 C5.5,18.6103683 5.88963165,19 6.36930423,19 L7.63069577,19 C8.11036835,19 8.5,18.6103683 8.5,18.1306958 L8.5,16.8693042 Z" id="Fill-10" fill="#7EB041"></path>
                <path d="M13.5,16.8693042 C13.5,16.3896317 13.1103683,16 12.6306958,16 L11.3693042,16 C10.8896317,16 10.5,16.3896317 10.5,16.8693042 L10.5,18.1306958 C10.5,18.6103683 10.8896317,19 11.3693042,19 L12.6306958,19 C13.1103683,19 13.5,18.6103683 13.5,18.1306958 L13.5,16.8693042 Z" id="Fill-12" fill="#7EB041"></path>
                <path d="M17.5,16.8693042 C17.5,16.3896317 17.1103683,16 16.6306958,16 L15.3693042,16 C14.8896317,16 14.5,16.3896317 14.5,16.8693042 L14.5,18.1306958 C14.5,18.6103683 14.8896317,19 15.3693042,19 L16.6306958,19 C17.1103683,19 17.5,18.6103683 17.5,18.1306958 L17.5,16.8693042 Z" id="Fill-14" fill="#7EB041"></path>
                <path d="M7.6309329,20 L6.36988543,20 C5.88952537,20 5.5,20.3896317 5.5,20.8693042 L5.5,22.1306958 C5.5,22.6103683 5.88952537,23 6.36988543,23 L7.6309329,23 C8.11047463,23 8.5,22.6103683 8.5,22.1306958 L8.5,20.8693042 C8.5,20.3896317 8.11047463,20 7.6309329,20" id="Fill-16" fill="#7EB041"></path>
                <path d="M12.6309329,20 L11.3698854,20 C10.8895254,20 10.5,20.3896317 10.5,20.8693042 L10.5,22.1306958 C10.5,22.6103683 10.8895254,23 11.3698854,23 L12.6309329,23 C13.1104746,23 13.5,22.6103683 13.5,22.1306958 L13.5,20.8693042 C13.5,20.3896317 13.1104746,20 12.6309329,20" id="Fill-18" fill="#7EB041"></path>
                <path d="M16.6309329,20 L15.3698854,20 C14.8895254,20 14.5,20.3896317 14.5,20.8693042 L14.5,22.1306958 C14.5,22.6103683 14.8895254,23 15.3698854,23 L16.6309329,23 C17.1104746,23 17.5,22.6103683 17.5,22.1306958 L17.5,20.8693042 C17.5,20.3896317 17.1104746,20 16.6309329,20" id="Fill-20" fill="#7EB041"></path>
                <g id="Group-24" transform="translate(19.500000, 16.000000)">
                    <mask id="mask-4" fill="white">
                        <use xlink:href="#path-3"></use>
                    </mask>
                    <g id="Clip-23"></g>
                    <path d="M7.230475,11.4554267 C4.55035,11.4554267 2.370725,9.29569333 2.370725,6.64109333 C2.370725,3.98649333 4.55035,1.82762667 7.230475,1.82762667 C9.9106,1.82762667 12.0911,3.98649333 12.0911,6.64109333 C12.0911,9.29569333 9.9106,11.4554267 7.230475,11.4554267 M7.230475,0.28236 C3.6911,0.28236 0.8106,3.13456 0.8106,6.64109333 C0.8106,10.1476267 3.6911,12.9998267 7.230475,12.9998267 C10.770725,12.9998267 13.651225,10.1476267 13.651225,6.64109333 C13.651225,3.13456 10.770725,0.28236 7.230475,0.28236" id="Fill-22" fill="#7EB041" mask="url(#mask-4)"></path>
                </g>
                <path d="M28.2715537,20.1454878 L28.2135007,20.102788 C27.9713369,19.9232742 27.635459,19.9851455 27.4654468,20.2396018 L25.3481722,23.3540779 L24.5346013,22.1401816 C24.3637597,21.8848539 24.0287112,21.8238541 23.7865474,22.0024964 L23.7276651,22.0460676 C23.4855013,22.2255814 23.4274483,22.5776374 23.5974606,22.8320938 L24.8895537,24.7605592 C25.0147823,24.9479158 25.2295782,25.0307013 25.431105,24.9897442 C25.5787254,24.9731872 25.7188818,24.8921445 25.8109372,24.7544593 L28.4025875,20.931514 C28.5725998,20.6761862 28.5145468,20.3250016 28.2715537,20.1454878" id="Fill-25" fill="#7EB041"></path>
            </g>
        </g>
    </g>
</svg>