<?xml version="1.0" encoding="UTF-8"?>
<svg width="43px" height="40px" viewBox="0 0 43 40" version="1.1" xmlns="http://www.w3.org/2000/svg" xmlns:xlink="http://www.w3.org/1999/xlink">
    <!-- Generator: Sketch 53.2 (72643) - https://sketchapp.com -->
    <title>shutterstock_777983098</title>
    <desc>Created with Sketch.</desc>
    <g id="Page-1" stroke="none" stroke-width="1" fill="none" fill-rule="evenodd">
        <g id="Dashboard_Today’s-Menus" transform="translate(-969.000000, -2421.000000)" fill="#7FB017">
            <g id="Group" transform="translate(723.000000, 2421.000000)">
                <g id="shutterstock_777983098" transform="translate(246.000000, 0.000000)">
                    <path d="M24.5780392,37.3788392 C24.5780392,37.3675392 24.5780392,37.3592392 24.5780392,37.3540392 C24.5780392,37.3623392 24.5780392,37.3705392 24.5780392,37.3788392 Z M22.625098,37.262902 C22.6517647,36.7463529 22.8156863,34.1327843 23.1121569,29.4780392 C23.1278431,29.2412549 23.2282353,29.0181176 23.3952941,28.8500392 C23.4101961,28.8356078 24.8572549,27.3772549 26.2807843,25.6497255 C28.7921569,22.6025098 28.987451,21.4657255 28.987451,21.1898824 L28.987451,5.94470588 C28.987451,3.75121569 27.2023529,1.9667451 25.0094118,1.9667451 L7.74196078,1.9667451 C6.62823529,1.9667451 5.72156863,2.87270588 5.72156863,3.98643137 C5.72156863,5.0374902 6.54196078,5.92172549 7.58901961,5.99952941 C8.11372549,6.0385098 8.51372549,6.48564706 8.49411765,7.01145098 C8.4745098,7.53733333 8.04313725,7.9534902 7.51686275,7.9534902 L6.34117647,7.9534902 C5.22745098,7.9534902 4.32156863,8.85952941 4.32156863,9.9732549 C4.32156863,11.086902 5.22745098,11.9929412 6.34117647,11.9929412 C6.88156863,11.9929412 7.31921569,12.4309804 7.31921569,12.9712941 C7.31921569,13.5116078 6.88156863,13.9495686 6.34117647,13.9495686 L5.35372549,13.9495686 C4.24,13.9495686 3.33411765,14.8556078 3.33411765,15.9693333 C3.33411765,17.0829804 4.24,17.9890196 5.35372549,17.9890196 C5.89411765,17.9890196 6.33176471,18.4270588 6.33176471,18.9673725 C6.33176471,19.5076863 5.89411765,19.9457255 5.35372549,19.9457255 L3.99058824,19.9457255 C2.87686275,19.9457255 1.97098039,20.8517647 1.97098039,21.9654118 C1.97098039,23.0791373 2.87686275,23.9851765 3.99058824,23.9851765 L17.4556863,23.9851765 C17.7694118,23.9851765 18.065098,24.1360784 18.2486275,24.3908235 C18.4329412,24.6455686 18.4831373,24.9731765 18.3843137,25.271451 C17.0180392,29.3898039 17.5254902,32.3396863 18.1913725,34.089098 C19.054902,36.3581961 20.5254902,37.568549 21.6133333,37.9446275 C21.787451,38.0047843 22.105098,38.0898039 22.2760784,37.9828235 C22.4839216,37.8523137 22.6007843,37.4442353 22.625098,37.262902 Z M7.74196078,0.0100392157 L25.0094118,0.0100392157 C28.2815686,0.0100392157 30.9435294,2.67231373 30.9435294,5.94470588 L30.9435294,21.1898824 C30.9435294,21.9418824 30.5960784,22.8737255 29.8807843,24.0388235 C29.3701961,24.871451 28.6635294,25.8358431 27.7819608,26.9051765 C26.6509804,28.2763922 25.534902,29.4559216 25.0423529,29.9648627 C24.8533333,32.9302745 24.5898039,37.0984314 24.5780392,37.3767843 C24.5772549,37.401098 24.5756863,37.4255686 24.5733333,37.4497255 C24.5584314,37.6010196 24.3968627,38.9472157 23.3341176,39.628549 C22.8807843,39.9193725 22.1027451,40.1840784 20.9741176,39.7939608 C19.0243137,39.1197647 17.3003922,37.2473725 16.3623529,34.7852549 C15.6572549,32.9318431 15.094902,29.9527843 16.145098,25.9418824 L3.99058824,25.9418824 C1.79843137,25.9418824 0.0149019608,24.1580392 0.0149019608,21.9654902 C0.0149019608,20.4108235 0.911372549,19.0615686 2.21490196,18.4080784 C1.69019608,17.7341961 1.3772549,16.8876078 1.3772549,15.9693333 C1.3772549,14.52 2.15686275,13.2491765 3.31843137,12.5541961 C2.72392157,11.8592157 2.36470588,10.9574118 2.36470588,9.9732549 C2.36470588,8.41027451 3.27137255,7.05498039 4.58588235,6.4054902 C4.05411765,5.71380392 3.7654902,4.86807843 3.7654902,3.98643137 C3.7654902,1.79380392 5.54901961,0.0100392157 7.74196078,0.0100392157 L7.74196078,0.0100392157 Z" id="Fill-5"></path>
                    <path d="M38.5372549,22.9403922 C39.4439216,22.9403922 40.1819608,22.2024314 40.1819608,21.2952941 L40.1819608,3.61184314 C40.1819608,2.70470588 39.4439216,1.9667451 38.5372549,1.9667451 L32.5890196,1.9667451 C31.6815686,1.9667451 30.9435294,2.70470588 30.9435294,3.61184314 L30.9435294,21.2952941 C30.9435294,22.2024314 31.6815686,22.9403922 32.5890196,22.9403922 L38.5372549,22.9403922 Z M32.5890196,0.0100392157 L38.5372549,0.0100392157 C40.5231373,0.0100392157 42.1388235,1.62572549 42.1388235,3.61184314 L42.1388235,21.2952941 C42.1388235,23.2813333 40.5231373,24.897098 38.5372549,24.897098 L32.5890196,24.897098 C30.6031373,24.897098 28.987451,23.2813333 28.987451,21.2952941 L28.987451,3.61184314 C28.987451,1.62572549 30.6031373,0.0100392157 32.5890196,0.0100392157 L32.5890196,0.0100392157 Z" id="Fill-6"></path>
                    <path d="M32.3803922,4.84580392 C32.3803922,4.10807843 32.9788235,3.51003922 33.7160784,3.51003922 C34.4541176,3.51003922 35.0517647,4.10807843 35.0517647,4.84580392 C35.0517647,5.58352941 34.4541176,6.18156863 33.7160784,6.18156863 C32.9788235,6.18156863 32.3803922,5.58352941 32.3803922,4.84580392" id="Fill-7"></path>
                </g>
            </g>
        </g>
    </g>
</svg>