<?xml version="1.0" encoding="UTF-8"?>
<svg width="34px" height="34px" viewBox="0 0 34 34" version="1.1" xmlns="http://www.w3.org/2000/svg" xmlns:xlink="http://www.w3.org/1999/xlink">
    <!-- Generator: Sketch 53.2 (72643) - https://sketchapp.com -->
    <title>Cart</title>
    <desc>Created with Sketch.</desc>
    <g id="Page-1" stroke="none" stroke-width="1" fill="none" fill-rule="evenodd">
        <g id="Home-" transform="translate(-1247.000000, -52.000000)" stroke="#515151" stroke-width="1.92">
            <g id="Group-6-Copy" transform="translate(1247.000000, 52.000000)">
                <g id="Cart">
                    <path d="M25.1402,29.1655 L25.9962,19.8155" id="Stroke-1" stroke-linecap="round" stroke-linejoin="round"></path>
                    <g id="Group-16" transform="translate(0.000000, 0.518800)">
                        <path d="M20.9869,28.6467 C21.1299,25.5297 21.2719,22.4127 21.4159,19.2957" id="Stroke-2" stroke-linecap="round" stroke-linejoin="round"></path>
                        <path d="M16.8336,28.6467 L16.8336,19.2957" id="Stroke-4" stroke-linecap="round" stroke-linejoin="round"></path>
                        <path d="M12.6803,28.6467 C12.5373,25.5297 12.3953,22.4127 12.2523,19.2957" id="Stroke-6" stroke-linecap="round" stroke-linejoin="round"></path>
                        <path d="M8.527,28.6467 L7.671,19.2967" id="Stroke-8" stroke-linecap="round" stroke-linejoin="round"></path>
                        <path d="M2.0934,11.2458 L31.5744,11.2458 C32.1974,11.2458 32.7074,11.7558 32.7074,12.3798 L32.7074,14.9528 C32.7074,15.5758 32.1974,16.0858 31.5744,16.0858 L2.0934,16.0858 C1.4704,16.0858 0.9594,15.5758 0.9594,14.9528 L0.9594,12.3798 C0.9594,11.7558 1.4704,11.2458 2.0934,11.2458 Z" id="Stroke-10" stroke-linecap="round" stroke-linejoin="round"></path>
                        <path d="M30.4088,16.0857 L29.5658,28.9497 C29.4548,30.6437 28.1738,32.0407 26.4748,32.0407 L7.1928,32.0407 C5.4948,32.0407 4.2138,30.6457 4.1018,28.9497 L3.2598,16.0857" id="Stroke-12"></path>
                        <path d="M13.8063,0.4412 L7.6753,13.3652 M19.8623,0.4412 L25.9923,13.3652" id="Stroke-14" stroke-linecap="round" stroke-linejoin="round"></path>
                    </g>
                </g>
            </g>
        </g>
    </g>
</svg>