<?xml version="1.0" encoding="UTF-8"?>
<svg width="31px" height="31px" viewBox="0 0 31 31" version="1.1" xmlns="http://www.w3.org/2000/svg" xmlns:xlink="http://www.w3.org/1999/xlink">
    <!-- Generator: Sketch 53.2 (72643) - https://sketchapp.com -->
    <title>Group 4</title>
    <desc>Created with Sketch.</desc>
    <g id="Page-1" stroke="none" stroke-width="1" fill="none" fill-rule="evenodd">
        <g id="Cart_checkout" transform="translate(-1368.000000, -188.000000)" stroke="#7FB017" stroke-width="1.92">
            <g id="Group-4" transform="translate(1369.000000, 189.000000)">
                <path d="M21.915798,25.543885 L22.6873287,17.1165346" id="Stroke-1" stroke-linecap="round" stroke-linejoin="round"></path>
                <path d="M18.1723419,25.543885 C18.3012308,22.7344678 18.4292183,19.9250505 18.5590085,17.1156333" id="Stroke-2" stroke-linecap="round" stroke-linejoin="round"></path>
                <path d="M14.4288858,25.543885 L14.4288858,17.1156333" id="Stroke-4" stroke-linecap="round" stroke-linejoin="round"></path>
                <path d="M10.6854297,25.543885 C10.5565408,22.7344678 10.4285532,19.9250505 10.2996643,17.1156333" id="Stroke-6" stroke-linecap="round" stroke-linejoin="round"></path>
                <path d="M6.94197358,25.543885 L6.17044289,17.1165346" id="Stroke-8" stroke-linecap="round" stroke-linejoin="round"></path>
                <path d="M1.14323543,9.86009013 L27.7150769,9.86009013 C28.2765998,9.86009013 28.7362735,10.3197638 28.7362735,10.882188 L28.7362735,13.2012867 C28.7362735,13.7628096 28.2765998,14.2224833 27.7150769,14.2224833 L1.14323543,14.2224833 C0.58171251,14.2224833 0.121137529,13.7628096 0.121137529,13.2012867 L0.121137529,10.882188 C0.121137529,10.3197638 0.58171251,9.86009013 1.14323543,9.86009013 Z" id="Stroke-10" stroke-linecap="round" stroke-linejoin="round"></path>
                <path d="M26.6644973,14.2223932 L25.9046838,25.8169852 C25.8046371,27.3438228 24.6500451,28.6029681 23.1187009,28.6029681 L5.73943124,28.6029681 C4.20898834,28.6029681 3.05439627,27.3456255 2.95344833,25.8169852 L2.19453613,14.2223932" id="Stroke-12"></path>
                <path d="M11.700317,0.121678322 L6.17431857,11.7703497 M17.1587164,0.121678322 L22.6838135,11.7703497" id="Stroke-14" stroke-linecap="round" stroke-linejoin="round"></path>
            </g>
        </g>
    </g>
</svg>