<?xml version="1.0" encoding="UTF-8"?>
<svg width="43px" height="40px" viewBox="0 0 43 40" version="1.1" xmlns="http://www.w3.org/2000/svg" xmlns:xlink="http://www.w3.org/1999/xlink">
    <!-- Generator: Sketch 53.2 (72643) - https://sketchapp.com -->
    <title>Page 1</title>
    <desc>Created with Sketch.</desc>
    <defs>
        <polygon id="path-1" points="42.9415551 19.6699795 42.9415551 0.171428571 0 0.171428571 0 19.6699795 0 39.1685304 42.9415551 39.1685304"></polygon>
    </defs>
    <g id="Page-1" stroke="none" stroke-width="1" fill="none" fill-rule="evenodd">
        <g id="Home-" transform="translate(-1355.000000, -1070.000000)">
            <g id="Page-1" transform="translate(1355.000000, 1070.000000)">
                <path d="M14.7577755,15.960966 C14.7577755,17.7715047 13.2910367,19.2397131 11.481702,19.2397131 C9.67219184,19.2397131 8.20545306,17.7715047 8.20545306,15.960966 C8.20545306,14.1500761 9.67219184,12.682219 11.481702,12.682219 C13.2910367,12.682219 14.7577755,14.1500761 14.7577755,15.960966" id="Fill-1" fill="#84B320"></path>
                <path d="M24.7471143,15.960966 C24.7471143,17.7715047 23.2803755,19.2397131 21.4710408,19.2397131 C19.6613551,19.2397131 18.1946163,17.7715047 18.1946163,15.960966 C18.1946163,14.1500761 19.6613551,12.682219 21.4710408,12.682219 C23.2803755,12.682219 24.7471143,14.1500761 24.7471143,15.960966" id="Fill-3" fill="#84B320"></path>
                <path d="M34.736102,15.960966 C34.736102,17.7715047 33.2693633,19.2397131 31.4600286,19.2397131 C29.6503429,19.2397131 28.1836041,17.7715047 28.1836041,15.960966 C28.1836041,14.1500761 29.6503429,12.682219 31.4600286,12.682219 C33.2693633,12.682219 34.736102,14.1500761 34.736102,15.960966" id="Fill-5" fill="#84B320"></path>
                <g id="Group-9" transform="translate(0.000000, 0.004215)">
                    <mask id="mask-2" fill="white">
                        <use xlink:href="#path-1"></use>
                    </mask>
                    <g id="Clip-8"></g>
                    <path d="M5.26530612,3.68422131 C4.29736735,3.68422131 3.51020408,4.47233607 3.51020408,5.44066159 L3.51020408,26.4724532 C3.51020408,27.4409543 4.29736735,28.2288934 5.26530612,28.2288934 C5.73181224,28.2288934 6.17936327,28.4149005 6.50862041,28.7456382 C6.83787755,29.0763759 7.02216327,29.5246194 7.02040816,29.9916569 L7.0072449,33.6023712 L12.8333061,28.6469262 C13.1506286,28.3769614 13.5536,28.2288934 13.9699102,28.2288934 L37.676249,28.2288934 C38.6440122,28.2288934 39.431351,27.4409543 39.431351,26.4724532 L39.431351,5.44066159 C39.431351,4.47233607 38.6440122,3.68422131 37.676249,3.68422131 L5.26530612,3.68422131 Z M5.23810204,39.1685304 C4.98747347,39.1685304 4.7350898,39.114959 4.49885306,39.0050059 C3.87737143,38.7160714 3.48089388,38.0916569 3.48335102,37.405767 L3.50493878,31.4389637 C1.46463265,30.7126756 0,28.7605679 0,26.4724532 L0,5.44066159 C0,2.53533372 2.36201633,0.171340749 5.26530612,0.171340749 L37.676249,0.171340749 C40.5795388,0.171340749 42.9415551,2.53533372 42.9415551,5.44066159 L42.9415551,26.4724532 C42.9415551,29.377781 40.5795388,31.741774 37.676249,31.741774 L14.6149102,31.741774 L6.37505714,38.7506733 C6.05141633,39.0257319 5.64686531,39.1685304 5.23810204,39.1685304 L5.23810204,39.1685304 Z" id="Fill-7" fill="#84B320" mask="url(#mask-2)"></path>
                </g>
            </g>
        </g>
    </g>
</svg>