<?xml version="1.0" encoding="UTF-8"?>
<svg width="40px" height="40px" viewBox="0 0 40 40" version="1.1" xmlns="http://www.w3.org/2000/svg" xmlns:xlink="http://www.w3.org/1999/xlink">
    <!-- Generator: Sketch 53.2 (72643) - https://sketchapp.com -->
    <title>completed</title>
    <desc>Created with Sketch.</desc>
    <defs>
        <polygon id="path-1" points="0 20.000002 0 40 40.00012 40 40.00012 20.000002 40.00012 4e-06 0 4e-06"></polygon>
    </defs>
    <g id="Page-1" stroke="none" stroke-width="1" fill="none" fill-rule="evenodd">
        <g id="Dashboard_Today’s-Menus" transform="translate(-760.000000, -2421.000000)">
            <g id="Group" transform="translate(723.000000, 2421.000000)">
                <g id="completed" transform="translate(37.000000, 0.000000)">
                    <path d="M29.230588,11.691856 C28.794148,11.691856 28.376948,11.878176 28.086068,12.202816 L17.012148,24.536056 L11.854708,19.401016 C11.564588,19.111936 11.179068,18.952696 10.769388,18.952696 C10.357268,18.952696 9.970068,19.113456 9.679228,19.405496 C9.080668,20.006176 9.082628,20.982256 9.683708,21.581736 L15.989188,27.859376 C16.279308,28.148456 16.664788,28.307696 17.074668,28.307696 C17.093588,28.307696 17.113548,28.307096 17.117028,28.306496 C17.536468,28.294776 17.938068,28.109056 18.218868,27.796576 L30.375748,14.257976 C30.941668,13.626336 30.888668,12.652056 30.257948,12.086096 C29.975348,11.831856 29.610428,11.691856 29.230588,11.691856" id="Fill-1" fill="#7FB017"></path>
                    <g id="Group-5">
                        <mask id="mask-2" fill="white">
                            <use xlink:href="#path-1"></use>
                        </mask>
                        <g id="Clip-4"></g>
                        <path d="M20,36.923084 C10.66856,36.923084 3.07692,29.331404 3.07692,20.000004 C3.07692,10.668564 10.66856,3.076924 20,3.076924 C29.3314,3.076924 36.92304,10.668564 36.92304,20.000004 C36.92304,29.331404 29.3314,36.923084 20,36.923084 M20,4e-06 C8.97188,4e-06 0,8.971924 0,20.000004 C0,31.027964 8.97188,40.000004 20,40.000004 C31.02808,40.000004 40.00012,31.027964 40.00012,20.000004 C40.00012,8.971924 31.02808,4e-06 20,4e-06" id="Fill-3" fill="#7FB017" mask="url(#mask-2)"></path>
                    </g>
                </g>
            </g>
        </g>
    </g>
</svg>