<?xml version="1.0" encoding="UTF-8"?>
<svg width="47px" height="60px" viewBox="0 0 47 60" version="1.1" xmlns="http://www.w3.org/2000/svg" xmlns:xlink="http://www.w3.org/1999/xlink">
    <!-- Generator: Sketch 53.2 (72643) - https://sketchapp.com -->
    <title>Page 1</title>
    <desc>Created with Sketch.</desc>
    <g id="Page-1" stroke="none" stroke-width="1" fill="none" fill-rule="evenodd">
        <g id="Cart_checkout" transform="translate(-793.000000, -584.000000)" fill="#7FB017">
            <g id="Page-1" transform="translate(793.000000, 584.000000)">
                <path d="M21.7061069,59.9471856 C21.1116107,59.9471856 20.629771,59.4646707 20.629771,58.8693413 L20.629771,17.9112575 C20.629771,17.3159281 21.1116107,16.8334132 21.7061069,16.8334132 C22.3006031,16.8334132 22.7824427,17.3159281 22.7824427,17.9112575 L22.7824427,58.8693413 C22.7824427,59.4646707 22.3006031,59.9471856 21.7061069,59.9471856" id="Fill-1"></path>
                <path d="M26.7535481,31.2046707 L2.87037252,31.2046707 C2.27587634,31.2046707 1.79403664,30.7221557 1.79403664,30.1268263 C1.79403664,29.531497 2.27587634,29.048982 2.87037252,29.048982 L26.7535481,29.048982 C27.3480443,29.048982 27.829884,29.531497 27.829884,30.1268263 C27.829884,30.7221557 27.3480443,31.2046707 26.7535481,31.2046707" id="Fill-3"></path>
                <path d="M39.8244275,48.8094611 L4.30534351,48.8094611 C3.71084733,48.8094611 3.22900763,48.3269461 3.22900763,47.7316168 C3.22900763,47.1362874 3.71084733,46.6537725 4.30534351,46.6537725 L39.8244275,46.6537725 C40.4189237,46.6537725 40.9007634,47.1362874 40.9007634,47.7316168 C40.9007634,48.3269461 40.4189237,48.8094611 39.8244275,48.8094611" id="Fill-5"></path>
                <path d="M21.7061069,59.9471856 C14.7651756,59.9471856 9.32824427,50.4783234 9.32824427,38.3902994 C9.32824427,26.3022754 14.7651756,16.8334132 21.7061069,16.8334132 C22.3006031,16.8334132 22.7824427,17.3159281 22.7824427,17.9112575 C22.7824427,18.5065868 22.3006031,18.9891018 21.7061069,18.9891018 C16.1633359,18.9891018 11.480916,27.8737725 11.480916,38.3902994 C11.480916,48.9068263 16.1633359,57.791497 21.7061069,57.791497 C26.8197786,57.791497 31.2815496,50.228982 31.8638473,40.5747305 C31.8997252,39.980479 32.4084733,39.5306587 33.0029695,39.5637126 C33.5967481,39.5996407 34.0484504,40.1105389 34.0125725,40.7044311 C33.3509847,51.6747305 28.0600763,59.9471856 21.7061069,59.9471856" id="Fill-7"></path>
                <path d="M21.7061069,59.9471856 C9.73725191,59.9471856 0,50.1962874 0,38.2106587 C0,26.2250299 9.73725191,16.4741317 21.7061069,16.4741317 C22.3006031,16.4741317 22.7824427,16.9566467 22.7824427,17.551976 C22.7824427,18.1473054 22.3006031,18.6298204 21.7061069,18.6298204 C10.9244504,18.6298204 2.15267176,27.4138922 2.15267176,38.2106587 C2.15267176,49.0074251 10.9244504,57.791497 21.7061069,57.791497 C32.4877634,57.791497 41.259542,49.0074251 41.259542,38.2106587 C41.259542,36.8590419 41.1192595,35.5013174 40.8422824,34.1759281 C40.7206565,33.5935329 41.0937863,33.0222754 41.6753664,32.900479 C42.2569466,32.7779641 42.8277634,33.151976 42.9493893,33.7347305 C43.2565038,35.2049102 43.4122137,36.711018 43.4122137,38.2106587 C43.4122137,50.1962874 33.6749618,59.9471856 21.7061069,59.9471856" id="Fill-9"></path>
                <path d="M35.2076282,2.15568862 C30.0171779,2.15568862 25.7943534,6.38443114 25.7943534,11.5821557 C25.7943534,15.688024 31.8989718,28.8589222 35.2076282,35.5372455 C38.5162847,28.8585629 44.6212618,15.6869461 44.6212618,11.5821557 C44.6212618,6.38443114 40.3984374,2.15568862 35.2076282,2.15568862 M35.2076282,39.014012 C34.8032847,39.014012 34.4330252,38.7873054 34.2493305,38.4265868 C33.8162847,37.5779641 23.6416817,17.5746108 23.6416817,11.5821557 C23.6416817,5.19556886 28.8299794,0 35.2076282,0 C41.5852771,0 46.7739336,5.19556886 46.7739336,11.5821557 C46.7739336,17.5746108 36.5989718,37.5779641 36.165926,38.4265868 C35.9822313,38.7873054 35.6119718,39.014012 35.2076282,39.014012" id="Fill-11"></path>
                <path d="M35.2076282,6.54988024 C32.2154145,6.54988024 29.7811015,8.98760479 29.7811015,11.984012 C29.7811015,14.9800599 32.2154145,17.4177844 35.2076282,17.4177844 C38.1994832,17.4177844 40.6337962,14.9800599 40.6337962,11.984012 C40.6337962,8.98760479 38.1994832,6.54988024 35.2076282,6.54988024 M35.2076282,19.5734731 C31.0285748,19.5734731 27.6284298,16.1685629 27.6284298,11.984012 C27.6284298,7.7991018 31.0285748,4.39419162 35.2076282,4.39419162 C39.3863229,4.39419162 42.7864679,7.7991018 42.7864679,11.984012 C42.7864679,16.1685629 39.3863229,19.5734731 35.2076282,19.5734731" id="Fill-13"></path>
            </g>
        </g>
    </g>
</svg>