<?xml version="1.0" encoding="UTF-8"?>
<svg width="27px" height="30px" viewBox="0 0 27 30" version="1.1" xmlns="http://www.w3.org/2000/svg" xmlns:xlink="http://www.w3.org/1999/xlink">
    <!-- Generator: Sketch 53.2 (72643) - https://sketchapp.com -->
    <title>Edit-2</title>
    <desc>Created with Sketch.</desc>
    <g id="Page-1" stroke="none" stroke-width="1" fill="none" fill-rule="evenodd">
        <g id="-_Today’s-Orders-Copy" transform="translate(-444.000000, -694.000000)" fill="#7FB017">
            <g id="Edit-2" transform="translate(444.000000, 694.000000)">
                <path d="M22.48,27.6 L2.48,27.6 L2.48,2.26666667 L13.8133333,2.26666667 L13.8133333,0.266666667 L2.48,0.266666667 C1.3754305,0.266666667 0.48,1.16209717 0.48,2.26666667 L0.48,27.6 C0.48,28.7045695 1.3754305,29.6 2.48,29.6 L22.48,29.6 C23.5845695,29.6 24.48,28.7045695 24.48,27.6 L24.48,14.9333333 L22.48,14.9333333 L22.48,27.6 Z" id="Shape"></path>
                <path d="M25.8933333,2.76 L24.48,1.34666667 C23.6991532,0.566790992 22.4341801,0.566790992 21.6533333,1.34666667 C21.6533333,1.34666667 10.54,12.4466667 10.3733333,13.12 L9.87333333,15.12 C9.7021753,15.8020194 9.90175183,16.5238181 10.3989668,17.0210332 C10.8961819,17.5182482 11.6179806,17.7178247 12.3,17.5466667 L14.3,17.0466667 C14.9666667,16.8733333 25.8933333,5.59333333 25.8933333,5.59333333 C26.673209,4.81248654 26.673209,3.54751346 25.8933333,2.76666667 L25.8933333,2.76 Z M15.0933333,13.56 L13.7266667,12.1933333 L13.68,12.1533333 L23.0666667,2.76666667 L24.48,4.18 L15.0933333,13.56 Z" id="Shape"></path>
            </g>
        </g>
    </g>
</svg>