<?xml version="1.0" encoding="UTF-8"?>
<svg width="38px" height="38px" viewBox="0 0 38 38" version="1.1" xmlns="http://www.w3.org/2000/svg" xmlns:xlink="http://www.w3.org/1999/xlink">
    <!-- Generator: Sketch 53.2 (72643) - https://sketchapp.com -->
    <title>Page 1</title>
    <desc>Created with Sketch.</desc>
    <g id="Page-1" stroke="none" stroke-width="1" fill="none" fill-rule="evenodd">
        <g id="About" transform="translate(-1377.000000, -867.000000)">
            <g id="Page-1" transform="translate(1378.000000, 868.000000)">
                <path d="M9.24569282,32.4137542 L9.42096794,32.5170164 C11.8244386,33.9402575 14.5822699,34.7439252 17.3955626,34.8408394 C18.0517859,34.86073 18.7152064,34.8484571 19.401489,34.7921707 C20.7147823,34.679598 22.0183381,34.4146711 23.2744764,34.0054311 C24.0763389,33.7430436 24.8659237,33.4163287 25.6195221,33.0354435 C27.233408,32.2224652 28.6944574,31.1640275 29.9645669,29.8884853 C36.4971638,23.3156762 36.4810758,12.6369247 29.9281571,6.08400635 L29.9010615,6.05903721 C29.539927,5.7001587 29.1817561,5.37344384 28.8252786,5.07635338 C25.8096151,2.54304355 21.9688038,1.1485805 18.0086021,1.1485805 L17.9518706,1.1485805 C13.4484854,1.16127667 9.21944389,2.92731441 6.04416995,6.12209487 C4.80115605,7.36885911 3.76601674,8.8026803 2.96584771,10.3842003 C2.58269799,11.1430083 2.25627983,11.9318639 1.99590737,12.7287604 C1.30708461,14.8232058 1.0361279,17.0018692 1.19150464,19.2063481 C1.23849869,19.8860166 1.32571288,20.5606066 1.45103036,21.2127667 C1.82147899,23.1463939 2.52384958,24.9826838 3.53739702,26.6721213 L3.64196938,26.8464821 L2.72368015,33.3718921 L9.24569282,32.4137542 Z M17.9933608,36 C17.7820993,36 17.5712611,35.9957679 17.3578827,35.9889966 C14.4196959,35.8874273 11.5390873,35.0655616 9.01241603,33.6088873 L1.3718602,34.7316523 L2.44764301,27.086863 C1.42054773,25.330559 0.705899409,23.428249 0.322749688,21.4290249 C0.188964813,20.7320049 0.0958234438,20.0112855 0.0454424307,19.286334 C-0.120518554,16.9333098 0.168643059,14.6065244 0.904036503,12.3711515 C1.1821905,11.5200846 1.53062389,10.6770587 1.94086929,9.86619644 C2.79522966,8.17633574 3.90191847,6.6439076 5.23002971,5.31165579 C8.62037554,1.90019397 13.1381553,0.0131193793 17.9501771,0 L18.0086021,0 C22.2384904,0 26.3422144,1.49010756 29.5627889,4.19566214 C29.9433984,4.51264327 30.3261248,4.86221125 30.6999604,5.23378593 L30.7279028,5.25960148 C37.7401777,12.2712749 37.7575359,23.677094 30.7787072,30.6985011 C29.4222301,32.0612238 27.8608421,33.1924528 26.1373034,34.0608711 C25.3324773,34.4675719 24.4887012,34.8162934 23.6313772,35.0968789 C22.2909883,35.5336272 20.9006416,35.8163287 19.4980173,35.9369423 C18.9870099,35.9788397 18.4810829,36 17.9933608,36 L17.9933608,36 Z" id="Fill-1" fill="#7EB041"></path>
                <path d="M9.24569282,32.4137542 L9.42096794,32.5170164 C11.8244386,33.9402575 14.5822699,34.7439252 17.3955626,34.8408394 C18.0517859,34.86073 18.7152064,34.8484571 19.401489,34.7921707 C20.7147823,34.679598 22.0183381,34.4146711 23.2744764,34.0054311 C24.0763389,33.7430436 24.8659237,33.4163287 25.6195221,33.0354435 C27.233408,32.2224652 28.6944574,31.1640275 29.9645669,29.8884853 C36.4971638,23.3156762 36.4810758,12.6369247 29.9281571,6.08400635 L29.9010615,6.05903721 C29.539927,5.7001587 29.1817561,5.37344384 28.8252786,5.07635338 C25.8096151,2.54304355 21.9688038,1.1485805 18.0086021,1.1485805 L17.9518706,1.1485805 C13.4484854,1.16127667 9.21944389,2.92731441 6.04416995,6.12209487 C4.80115605,7.36885911 3.76601674,8.8026803 2.96584771,10.3842003 C2.58269799,11.1430083 2.25627983,11.9318639 1.99590737,12.7287604 C1.30708461,14.8232058 1.0361279,17.0018692 1.19150464,19.2063481 C1.23849869,19.8860166 1.32571288,20.5606066 1.45103036,21.2127667 C1.82147899,23.1463939 2.52384958,24.9826838 3.53739702,26.6721213 L3.64196938,26.8464821 L2.72368015,33.3718921 L9.24569282,32.4137542 Z M17.9933608,36 C17.7820993,36 17.5712611,35.9957679 17.3578827,35.9889966 C14.4196959,35.8874273 11.5390873,35.0655616 9.01241603,33.6088873 L1.3718602,34.7316523 L2.44764301,27.086863 C1.42054773,25.330559 0.705899409,23.428249 0.322749688,21.4290249 C0.188964813,20.7320049 0.0958234438,20.0112855 0.0454424307,19.286334 C-0.120518554,16.9333098 0.168643059,14.6065244 0.904036503,12.3711515 C1.1821905,11.5200846 1.53062389,10.6770587 1.94086929,9.86619644 C2.79522966,8.17633574 3.90191847,6.6439076 5.23002971,5.31165579 C8.62037554,1.90019397 13.1381553,0.0131193793 17.9501771,0 L18.0086021,0 C22.2384904,0 26.3422144,1.49010756 29.5627889,4.19566214 C29.9433984,4.51264327 30.3261248,4.86221125 30.6999604,5.23378593 L30.7279028,5.25960148 C37.7401777,12.2712749 37.7575359,23.677094 30.7787072,30.6985011 C29.4222301,32.0612238 27.8608421,33.1924528 26.1373034,34.0608711 C25.3324773,34.4675719 24.4887012,34.8162934 23.6313772,35.0968789 C22.2909883,35.5336272 20.9006416,35.8163287 19.4980173,35.9369423 C18.9870099,35.9788397 18.4810829,36 17.9933608,36 Z" id="Stroke-3" stroke="#7EB041" stroke-width="2"></path>
                <path d="M12.5000005,14 C11.3129293,14 10.3113759,13.0558352 10.0175384,11.7771312 C9.92700245,11.3831394 10.1994185,11 10.5486284,11 L10.5599454,11 C10.8008356,11 11.0158583,11.184492 11.0797185,11.4558037 C11.25109,12.183391 11.8230021,12.7194086 12.5000005,12.7194086 C13.1769988,12.7194086 13.7485067,12.183391 13.9202824,11.4558037 C13.9841426,11.184492 14.1991653,11 14.4400555,11 L14.4509683,11 C14.8005824,11 15.0729985,11.3831394 14.9824626,11.7771312 C14.6882209,13.0558352 13.6866675,14 12.5000005,14" id="Fill-5" fill="#7EB041"></path>
                <path d="M12.5000005,14 C11.3129293,14 10.3113759,13.0558352 10.0175384,11.7771312 C9.92700245,11.3831394 10.1994185,11 10.5486284,11 L10.5599454,11 C10.8008356,11 11.0158583,11.184492 11.0797185,11.4558037 C11.25109,12.183391 11.8230021,12.7194086 12.5000005,12.7194086 C13.1769988,12.7194086 13.7485067,12.183391 13.9202824,11.4558037 C13.9841426,11.184492 14.1991653,11 14.4400555,11 L14.4509683,11 C14.8005824,11 15.0729985,11.3831394 14.9824626,11.7771312 C14.6882209,13.0558352 13.6866675,14 12.5000005,14 Z" id="Stroke-7" stroke="#7EB041" stroke-width="2"></path>
                <path d="M22.5000692,14 C21.3129649,14 20.3117878,13.0558352 20.0175379,11.7771312 C19.9269995,11.3831394 20.1994231,11 20.549047,11 L20.5595559,11 C20.800857,11 21.0154815,11.184492 21.0797476,11.4558037 C21.2511239,12.183391 21.8230519,12.7194086 22.5000692,12.7194086 C23.1770864,12.7194086 23.7486102,12.183391 23.9203907,11.4558037 C23.9842526,11.184492 24.1988772,11 24.4401782,11 L24.4510913,11 C24.800311,11 25.0727346,11.3831394 24.9826004,11.7771312 C24.6883505,13.0558352 23.6871734,14 22.5000692,14" id="Fill-9" fill="#7EB041"></path>
                <path d="M22.5000692,14 C21.3129649,14 20.3117878,13.0558352 20.0175379,11.7771312 C19.9269995,11.3831394 20.1994231,11 20.549047,11 L20.5595559,11 C20.800857,11 21.0154815,11.184492 21.0797476,11.4558037 C21.2511239,12.183391 21.8230519,12.7194086 22.5000692,12.7194086 C23.1770864,12.7194086 23.7486102,12.183391 23.9203907,11.4558037 C23.9842526,11.184492 24.1988772,11 24.4401782,11 L24.4510913,11 C24.800311,11 25.0727346,11.3831394 24.9826004,11.7771312 C24.6883505,13.0558352 23.6871734,14 22.5000692,14 Z" id="Stroke-11" stroke="#7EB041" stroke-width="2"></path>
                <path d="M18,28 C15.8652504,28 13.7921789,27.3740157 12.0047972,26.1898513 C10.2649591,25.0371829 8.88019874,23.4168854 8,21.5048119 L9.05195528,21 C10.6774318,24.5310586 14.1896603,26.8127734 18,26.8127734 C21.8103397,26.8127734 25.3225682,24.5310586 26.9480447,21 L28,21.5048119 C27.1198013,23.4168854 25.7350409,25.0371829 23.9952028,26.1898513 C22.2078211,27.3740157 20.1347496,28 18,28" id="Fill-13" fill="#7EB041"></path>
                <path d="M18,28 C15.8652504,28 13.7921789,27.3740157 12.0047972,26.1898513 C10.2649591,25.0371829 8.88019874,23.4168854 8,21.5048119 L9.05195528,21 C10.6774318,24.5310586 14.1896603,26.8127734 18,26.8127734 C21.8103397,26.8127734 25.3225682,24.5310586 26.9480447,21 L28,21.5048119 C27.1198013,23.4168854 25.7350409,25.0371829 23.9952028,26.1898513 C22.2078211,27.3740157 20.1347496,28 18,28 Z" id="Stroke-15" stroke="#7EB041" stroke-width="2"></path>
                <path d="M7.72122531,22 C7.16046754,22 6.61286671,21.7976696 6.191391,21.4285053 C5.88061505,21.1556254 5.96273249,20.6560113 6.33339519,20.4683232 L6.34609844,20.4616676 C6.57611802,20.3454163 6.8456084,20.3964426 7.04523091,20.5583957 C7.36054373,20.813971 7.81468494,20.8765337 8.2012267,20.6804152 C8.59956434,20.4789721 8.81052904,20.0610001 8.76198447,19.6487962 C8.73430954,19.4109692 8.86950842,19.1837912 9.08682474,19.0737518 L9.09952799,19.0675399 C9.47563494,18.8767459 9.94021096,19.1096921 9.98648708,19.5214523 C10.0862983,20.4124161 9.62852763,21.3135852 8.76742872,21.7501929 C8.43260734,21.9192453 8.0741942,22 7.72122531,22" id="Fill-17" fill="#7EB041"></path>
                <path d="M7.72122531,22 C7.16046754,22 6.61286671,21.7976696 6.191391,21.4285053 C5.88061505,21.1556254 5.96273249,20.6560113 6.33339519,20.4683232 L6.34609844,20.4616676 C6.57611802,20.3454163 6.8456084,20.3964426 7.04523091,20.5583957 C7.36054373,20.813971 7.81468494,20.8765337 8.2012267,20.6804152 C8.59956434,20.4789721 8.81052904,20.0610001 8.76198447,19.6487962 C8.73430954,19.4109692 8.86950842,19.1837912 9.08682474,19.0737518 L9.09952799,19.0675399 C9.47563494,18.8767459 9.94021096,19.1096921 9.98648708,19.5214523 C10.0862983,20.4124161 9.62852763,21.3135852 8.76742872,21.7501929 C8.43260734,21.9192453 8.0741942,22 7.72122531,22 Z" id="Stroke-19" stroke="#7EB041" stroke-width="2"></path>
                <path d="M28.27294,22 C27.9208668,22 27.5638157,21.9194777 27.2293914,21.7509117 C26.363237,21.3120208 25.9061754,20.4019415 26.0161417,19.5060199 C26.0650156,19.1069477 26.512574,18.8804234 26.8777707,19.0653593 L26.9203091,19.0870384 C27.1316435,19.1936641 27.2655943,19.4148793 27.2361794,19.6453855 C27.1832327,20.0595003 27.3941146,20.4815789 27.7941566,20.684212 C28.0430515,20.8107471 28.3272443,20.8341959 28.5946932,20.7514615 C28.7281914,20.709873 28.8490186,20.6443933 28.9531019,20.5585618 C29.14724,20.3988444 29.4106161,20.347965 29.6355266,20.4616696 L29.6771599,20.4824638 C30.0369262,20.6647451 30.1147625,21.1474367 29.8151835,21.4155495 C29.3934197,21.7925002 28.8395153,22 28.27294,22" id="Fill-21" fill="#7EB041"></path>
                <path d="M28.27294,22 C27.9208668,22 27.5638157,21.9194777 27.2293914,21.7509117 C26.363237,21.3120208 25.9061754,20.4019415 26.0161417,19.5060199 C26.0650156,19.1069477 26.512574,18.8804234 26.8777707,19.0653593 L26.9203091,19.0870384 C27.1316435,19.1936641 27.2655943,19.4148793 27.2361794,19.6453855 C27.1832327,20.0595003 27.3941146,20.4815789 27.7941566,20.684212 C28.0430515,20.8107471 28.3272443,20.8341959 28.5946932,20.7514615 C28.7281914,20.709873 28.8490186,20.6443933 28.9531019,20.5585618 C29.14724,20.3988444 29.4106161,20.347965 29.6355266,20.4616696 L29.6771599,20.4824638 C30.0369262,20.6647451 30.1147625,21.1474367 29.8151835,21.4155495 C29.3934197,21.7925002 28.8395153,22 28.27294,22 Z" id="Stroke-23" stroke="#7EB041" stroke-width="2"></path>
            </g>
        </g>
    </g>
</svg>