<?xml version="1.0" encoding="UTF-8"?>
<svg width="66px" height="59px" viewBox="0 0 66 59" version="1.1" xmlns="http://www.w3.org/2000/svg" xmlns:xlink="http://www.w3.org/1999/xlink">
    <!-- Generator: Sketch 53.2 (72643) - https://sketchapp.com -->
    <title>Page 1</title>
    <desc>Created with Sketch.</desc>
    <defs>
        <polygon id="path-1" points="54.5109787 0.193290323 0 0.193290323 0 55.5500129 54.5109787 55.5500129 54.5109787 0.193290323"></polygon>
        <polygon id="path-3" points="27.2758889 0.585635556 27.2758889 26.9626035 0.644207407 26.9626035 0.644207407 0.585635556 27.2758889 0.585635556"></polygon>
    </defs>
    <g id="Page-1" stroke="none" stroke-width="1" fill="none" fill-rule="evenodd">
        <g id="Events_form" transform="translate(-975.000000, -207.000000)">
            <g id="Page-1" transform="translate(975.000000, 207.000000)">
                <g id="Group-3">
                    <mask id="mask-2" fill="white">
                        <use xlink:href="#path-1"></use>
                    </mask>
                    <g id="Clip-2"></g>
                    <path d="M8.90710773,9.67698065 L8.90710773,11.0516903 C8.90710773,12.4245935 10.0224394,13.5391742 11.3980755,13.5391742 C12.7737115,13.5391742 13.8872355,12.4245935 13.8872355,11.0516903 L13.8872355,9.67698065 L24.7639793,9.67698065 L24.7639793,11.0516903 C24.7639793,12.4245935 25.8811187,13.5391742 27.254947,13.5391742 C28.6305831,13.5391742 29.7441071,12.4245935 29.7441071,11.0516903 L29.7441071,9.67698065 L40.6226586,9.67698065 L40.6226586,11.0516903 C40.6226586,12.4245935 41.7379903,13.5391742 43.1136263,13.5391742 C44.4892623,13.5391742 45.6027864,12.4245935 45.6027864,11.0516903 L45.6027864,9.67698065 L51.2879051,9.67698065 L51.2879051,15.7430452 L3.22198904,15.7430452 L3.22198904,9.67698065 L8.90710773,9.67698065 Z M37.4899684,52.3291097 L3.22198904,52.3291097 L3.22198904,18.9639484 L51.2879051,18.9639484 L51.2879051,29.0909161 C51.2879051,29.9796903 52.0091649,30.7004645 52.898538,30.7004645 C53.7897188,30.7004645 54.5109787,29.9796903 54.5109787,29.0909161 L54.5109787,8.06743226 C54.5109787,7.17685161 53.7897188,6.45607742 52.898538,6.45607742 L45.6027864,6.45607742 L45.6027864,2.6824 C45.6027864,1.30769032 44.4892623,0.193109677 43.1136263,0.193109677 C41.7379903,0.193109677 40.6226586,1.30769032 40.6226586,2.6824 L40.6226586,6.45607742 L29.7441071,6.45607742 L29.7441071,2.6824 C29.7441071,1.30769032 28.6305831,0.193109677 27.254947,0.193109677 C25.8811187,0.193109677 24.7639793,1.30769032 24.7639793,2.6824 L24.7639793,6.45607742 L13.8872355,6.45607742 L13.8872355,2.6824 C13.8872355,1.30769032 12.7737115,0.193109677 11.3980755,0.193109677 C10.0224394,0.193109677 8.90710773,1.30769032 8.90710773,2.6824 L8.90710773,6.45607742 L1.61135606,6.45607742 C0.721982958,6.45607742 -0.00108460134,7.17685161 -0.00108460134,8.06743226 L-0.00108460134,53.9386581 C-0.00108460134,54.8292387 0.721982958,55.5500129 1.61135606,55.5500129 L37.4899684,55.5500129 C38.3793414,55.5500129 39.0987937,54.8292387 39.0987937,53.9386581 C39.0987937,53.0498839 38.3793414,52.3291097 37.4899684,52.3291097 L37.4899684,52.3291097 Z" id="Fill-1" fill="#7EB041" mask="url(#mask-2)"></path>
                </g>
                <path d="M25,23.7386085 C25,22.7776262 24.2207367,22 23.2613915,22 L20.7386085,22 C19.7792633,22 19,22.7776262 19,23.7386085 L19,26.2613915 C19,27.2207367 19.7792633,28 20.7386085,28 L23.2613915,28 C24.2207367,28 25,27.2207367 25,26.2613915 L25,23.7386085 Z" id="Fill-4" fill="#7EB041"></path>
                <path d="M35,23.7386085 C35,22.7776262 34.2207367,22 33.2613915,22 L30.7386085,22 C29.7792633,22 29,22.7776262 29,23.7386085 L29,26.2613915 C29,27.2207367 29.7792633,28 30.7386085,28 L33.2613915,28 C34.2207367,28 35,27.2207367 35,26.2613915 L35,23.7386085 Z" id="Fill-6" fill="#7EB041"></path>
                <path d="M39.7386085,22 C38.7776262,22 38,22.7776262 38,23.7386085 L38,26.2613915 C38,27.2207367 38.7776262,28 39.7386085,28 L42.2613915,28 C43.2207367,28 44,27.2207367 44,26.2613915 L44,23.7386085 C44,22.7776262 43.2207367,22 42.2613915,22 L39.7386085,22 Z" id="Fill-8" fill="#7EB041"></path>
                <path d="M14,33.7386085 C14,32.7792633 13.2207367,32 12.2613915,32 L9.73860846,32 C8.7792633,32 8,32.7792633 8,33.7386085 L8,36.2613915 C8,37.2207367 8.7792633,38 9.73860846,38 L12.2613915,38 C13.2207367,38 14,37.2207367 14,36.2613915 L14,33.7386085 Z" id="Fill-10" fill="#7EB041"></path>
                <path d="M25,33.7386085 C25,32.7792633 24.2207367,32 23.2613915,32 L20.7386085,32 C19.7792633,32 19,32.7792633 19,33.7386085 L19,36.2613915 C19,37.2207367 19.7792633,38 20.7386085,38 L23.2613915,38 C24.2207367,38 25,37.2207367 25,36.2613915 L25,33.7386085 Z" id="Fill-12" fill="#7EB041"></path>
                <path d="M35,33.7386085 C35,32.7792633 34.2207367,32 33.2613915,32 L30.7386085,32 C29.7792633,32 29,32.7792633 29,33.7386085 L29,36.2613915 C29,37.2207367 29.7792633,38 30.7386085,38 L33.2613915,38 C34.2207367,38 35,37.2207367 35,36.2613915 L35,33.7386085 Z" id="Fill-14" fill="#7EB041"></path>
                <path d="M12.2618658,41 L9.73977087,41 C8.77905074,41 8,41.7792633 8,42.7386085 L8,45.2613915 C8,46.2207367 8.77905074,47 9.73977087,47 L12.2618658,47 C13.2209493,47 14,46.2207367 14,45.2613915 L14,42.7386085 C14,41.7792633 13.2209493,41 12.2618658,41" id="Fill-16" fill="#7EB041"></path>
                <path d="M23.2618658,41 L20.7397709,41 C19.7790507,41 19,41.7792633 19,42.7386085 L19,45.2613915 C19,46.2207367 19.7790507,47 20.7397709,47 L23.2618658,47 C24.2209493,47 25,46.2207367 25,45.2613915 L25,42.7386085 C25,41.7792633 24.2209493,41 23.2618658,41" id="Fill-18" fill="#7EB041"></path>
                <path d="M33.2618658,41 L30.7397709,41 C29.7790507,41 29,41.7792633 29,42.7386085 L29,45.2613915 C29,46.2207367 29.7790507,47 30.7397709,47 L33.2618658,47 C34.2209493,47 35,46.2207367 35,45.2613915 L35,42.7386085 C35,41.7792633 34.2209493,41 33.2618658,41" id="Fill-20" fill="#7EB041"></path>
                <g id="Group-24" transform="translate(38.000000, 32.000000)">
                    <mask id="mask-4" fill="white">
                        <use xlink:href="#path-3"></use>
                    </mask>
                    <g id="Clip-23"></g>
                    <path d="M13.9595037,23.7594035 C8.40072593,23.7594035 3.88002222,19.2799565 3.88002222,13.7741195 C3.88002222,8.26828247 8.40072593,3.79063309 13.9595037,3.79063309 C19.5182815,3.79063309 24.0408,8.26828247 24.0408,13.7741195 C24.0408,19.2799565 19.5182815,23.7594035 13.9595037,23.7594035 M13.9595037,0.585635556 C6.61857778,0.585635556 0.644207407,6.50130963 0.644207407,13.7741195 C0.644207407,21.0469294 6.61857778,26.9626035 13.9595037,26.9626035 C21.3022444,26.9626035 27.2766148,21.0469294 27.2766148,13.7741195 C27.2766148,6.50130963 21.3022444,0.585635556 13.9595037,0.585635556" id="Fill-22" fill="#7EB041" mask="url(#mask-4)"></path>
                </g>
                <path d="M55.5431073,41.2909756 L55.4270014,41.2055759 C54.9426738,40.8465484 54.2709181,40.9702909 53.9308935,41.4792036 L49.6963443,47.7081558 L48.0692026,45.2803633 C47.7275194,44.7697077 47.0574224,44.6477081 46.5730948,45.0049927 L46.4553302,45.0921353 C45.9710026,45.4511628 45.8548966,46.1552749 46.1949211,46.6641876 L48.7791075,50.5211185 C49.0295645,50.8958316 49.4591565,51.0614025 49.8622099,50.9794885 C50.1574507,50.9463743 50.4377636,50.7842891 50.6218745,50.5089185 L55.805175,42.8630279 C56.1451995,42.3523724 56.0290936,41.6500031 55.5431073,41.2909756" id="Fill-25" fill="#7EB041"></path>
            </g>
        </g>
    </g>
</svg>