<?xml version="1.0" encoding="UTF-8"?>
<svg width="62px" height="40px" viewBox="0 0 62 40" version="1.1" xmlns="http://www.w3.org/2000/svg" xmlns:xlink="http://www.w3.org/1999/xlink">
    <!-- Generator: Sketch 53.2 (72643) - https://sketchapp.com -->
    <title>Page 1</title>
    <desc>Created with Sketch.</desc>
    <defs>
        <polygon id="path-1" points="23.6525571 0 47.2393964 0 47.2393964 39.9013428 23.6525571 39.9013428 0.0657177481 39.9013428 0.0657177481 0"></polygon>
    </defs>
    <g id="Page-1" stroke="none" stroke-width="1" fill="none" fill-rule="evenodd">
        <g id="Home-" transform="translate(-788.000000, -1070.000000)">
            <g id="Page-1" transform="translate(788.000000, 1070.000000)">
                <path d="M24.5644594,12 C23.7526375,13.8159724 23.2091034,15.7728326 22.9872054,17.8227319 L10.7928669,17.8227319 C9.61843123,17.8227319 8.66666667,18.7580602 8.66666667,19.911366 C8.66666667,21.0650515 9.61843123,22 10.7928669,22 L22.9868188,22 L25.0009103,22 L27.2701459,22 C27.1773663,21.3168268 27.1271106,20.6218813 27.1271106,19.911366 C27.1271106,17.0241142 27.933907,14.3202825 29.3333333,12 L24.5644594,12 Z" id="Fill-1" fill="#84B320"></path>
                <g id="Group-5" transform="translate(14.666667, 0.000000)">
                    <mask id="mask-2" fill="white">
                        <use xlink:href="#path-1"></use>
                    </mask>
                    <g id="Clip-4"></g>
                    <path d="M27.4174903,0 C23.2575263,0 19.3987052,1.30446698 16.2081161,3.51860784 C16.1962991,3.51860784 16.1844821,3.51707317 16.1722839,3.51707317 L2.16228164,3.51707317 C1.00421598,3.51707317 0.0657177481,4.46166073 0.0657177481,5.62724034 C0.0657177481,6.79243628 1.00421598,7.73740751 2.16228164,7.73740751 L11.7611135,7.73740751 L16.1722839,7.73740751 L17.5815561,7.73740751 C20.2697322,5.54014799 23.692468,4.22033434 27.4174903,4.22033434 C36.0358926,4.22033434 43.0464211,11.275966 43.0464211,19.9506714 C43.0464211,28.6253768 36.0358926,35.6810085 27.4174903,35.6810085 C21.0363122,35.6810085 15.5356909,31.8136476 13.1113007,26.2811729 L8.620842,26.2811729 C9.33596088,28.4281721 10.4067332,30.4113456 11.7592075,32.1639353 L2.6868038,32.1639353 C1.52873815,32.1639353 0.590239914,33.1089065 0.590239914,34.2741025 C0.590239914,35.4392984 1.52873815,36.3842697 2.6868038,36.3842697 L16.1951555,36.3842697 C19.3876506,38.6003289 23.2533332,39.9013428 27.4174903,39.9013428 C38.346306,39.9013428 47.2395489,30.9503974 47.2395489,19.9506714 C47.2395489,8.95094546 38.346306,0 27.4174903,0" id="Fill-3" fill="#84B320" mask="url(#mask-2)"></path>
                </g>
                <path d="M8.69276321,7.33333333 C9.77841011,7.33333333 10.6666667,6.43333333 10.6666667,5.33333333 C10.6666667,4.23333333 9.77841011,3.33333333 8.69276321,3.33333333 L7.97390346,3.33333333 C6.88825656,3.33333333 6,4.23333333 6,5.33333333 C6,6.43333333 6.88825656,7.33333333 7.97390346,7.33333333 L8.69276321,7.33333333 Z" id="Fill-6" fill="#84B320"></path>
                <path d="M2.69276321,18 L1.97390346,18 C0.888256556,18 0,18.9 0,20 C0,21.1 0.888256556,22 1.97390346,22 L2.69276321,22 C3.77841011,22 4.66666667,21.1 4.66666667,20 C4.66666667,18.9 3.77841011,18 2.69276321,18" id="Fill-8" fill="#84B320"></path>
                <path d="M9.35942988,32 L8.64057012,32 C7.55492322,32 6.66666667,32.9 6.66666667,34 C6.66666667,35.1 7.55492322,36 8.64057012,36 L9.35942988,36 C10.4450768,36 11.3333333,35.1 11.3333333,34 C11.3333333,32.9 10.4450768,32 9.35942988,32" id="Fill-10" fill="#84B320"></path>
                <path d="M40.2505438,25.3878349 L44.0498066,21.6057867 C44.1490539,21.5073691 44.237613,21.3986917 44.3154839,21.2820346 C44.3204463,21.2751947 44.3242635,21.2675949 44.3292259,21.2603751 C44.398699,21.1532177 44.4593925,21.0399805 44.5086344,20.9206634 C44.5124516,20.9119236 44.5151237,20.9028038 44.5185592,20.894444 C44.5647473,20.7777868 44.6017742,20.6569498 44.626586,20.5311728 C44.6281129,20.524333 44.6284946,20.5174931 44.6296398,20.5106533 C44.6529247,20.3856363 44.6666667,20.2579594 44.6666667,20.1261027 L44.6666667,9.42328258 C44.6666667,8.26887061 43.7264894,7.33333333 42.5672047,7.33333333 C41.4079199,7.33333333 40.4677426,8.26887061 40.4677426,9.42328258 L40.4677426,19.2608637 L37.2819045,22.4326466 C36.4615874,23.2484868 36.4615874,24.5719947 37.2819045,25.3878349 C37.6914904,25.795945 38.2289527,26 38.7660332,26 C39.3034955,26 39.8409578,25.795945 40.2505438,25.3878349" id="Fill-12" fill="#84B320"></path>
            </g>
        </g>
    </g>
</svg>