<?xml version="1.0" encoding="UTF-8"?>
<svg width="25px" height="29px" viewBox="0 0 25 29" version="1.1" xmlns="http://www.w3.org/2000/svg" xmlns:xlink="http://www.w3.org/1999/xlink">
    <!-- Generator: Sketch 53.2 (72643) - https://sketchapp.com -->
    <title>Page 1</title>
    <desc>Created with Sketch.</desc>
    <g id="Page-1" stroke="none" stroke-width="1" fill="none" fill-rule="evenodd">
        <g id="-_Today’s-Orders-Copy" transform="translate(-444.000000, -625.000000)">
            <g id="Page-1" transform="translate(445.000000, 626.000000)">
                <path d="M5.43738572,27 C4.12199353,27 3.20352572,25.9784611 3.20352572,24.515822 L3.20352572,13.4313041 C3.20352572,12.223424 2.66229078,11.9213844 1.91373248,11.5030902 C1.06109053,11.0266687 0,10.4342707 0,8.47407293 L0,0.556242274 C0,0.248918418 0.251769891,0 0.562614281,0 C0.873177364,0 1.12522856,0.248918418 1.12522856,0.556242274 L1.12522856,8.47407293 C1.12522856,9.78485785 1.68812415,10.0991347 2.46706362,10.5343943 C3.29663838,10.9977441 4.32875428,11.5742892 4.32875428,13.4313041 L4.32875428,24.515822 C4.32875428,25.1791409 4.61990717,25.8875155 5.43738572,25.8875155 C5.7479488,25.8875155 6,26.136712 6,26.4437577 C6,26.7508035 5.7479488,27 5.43738572,27" id="Fill-1" fill="#7FB017"></path>
                <path d="M5.43738572,27 C4.12199353,27 3.20352572,25.9784611 3.20352572,24.515822 L3.20352572,13.4313041 C3.20352572,12.223424 2.66229078,11.9213844 1.91373248,11.5030902 C1.06109053,11.0266687 0,10.4342707 0,8.47407293 L0,0.556242274 C0,0.248918418 0.251769891,0 0.562614281,0 C0.873177364,0 1.12522856,0.248918418 1.12522856,0.556242274 L1.12522856,8.47407293 C1.12522856,9.78485785 1.68812415,10.0991347 2.46706362,10.5343943 C3.29663838,10.9977441 4.32875428,11.5742892 4.32875428,13.4313041 L4.32875428,24.515822 C4.32875428,25.1791409 4.61990717,25.8875155 5.43738572,25.8875155 C5.7479488,25.8875155 6,26.136712 6,26.4437577 C6,26.7508035 5.7479488,27 5.43738572,27 Z" id="Stroke-3" stroke="#7FB017"></path>
                <path d="M5.56264066,27 C5.25206302,27 5,26.7508035 5,26.4437577 C5,26.136712 5.25206302,25.8875155 5.56264066,25.8875155 C6.37987622,25.8875155 6.67132408,25.1791409 6.67132408,24.515822 L6.67132408,13.4313041 C6.67132408,11.5742892 7.70348837,10.9977441 8.53310203,10.5343943 C9.3117967,10.0991347 9.87471868,9.78485785 9.87471868,8.47407293 L9.87471868,0.556242274 C9.87471868,0.248918418 10.1267817,0 10.4373593,0 C10.7482183,0 11,0.248918418 11,0.556242274 L11,8.47407293 C11,10.4342707 9.93914104,11.0266687 9.08645911,11.5030902 C8.3375844,11.9213844 7.7966054,12.223424 7.7966054,13.4313041 L7.7966054,24.515822 C7.7966054,25.9784611 6.87809452,27 5.56264066,27" id="Fill-5" fill="#7FB017"></path>
                <path d="M5.56264066,27 C5.25206302,27 5,26.7508035 5,26.4437577 C5,26.136712 5.25206302,25.8875155 5.56264066,25.8875155 C6.37987622,25.8875155 6.67132408,25.1791409 6.67132408,24.515822 L6.67132408,13.4313041 C6.67132408,11.5742892 7.70348837,10.9977441 8.53310203,10.5343943 C9.3117967,10.0991347 9.87471868,9.78485785 9.87471868,8.47407293 L9.87471868,0.556242274 C9.87471868,0.248918418 10.1267817,0 10.4373593,0 C10.7482183,0 11,0.248918418 11,0.556242274 L11,8.47407293 C11,10.4342707 9.93914104,11.0266687 9.08645911,11.5030902 C8.3375844,11.9213844 7.7966054,12.223424 7.7966054,13.4313041 L7.7966054,24.515822 C7.7966054,25.9784611 6.87809452,27 5.56264066,27 Z" id="Stroke-7" stroke="#7FB017"></path>
                <path d="M18.0001293,1.11248455 C15.4243992,1.11248455 14.0347414,3.9710136 14.0347414,6.66072311 C14.0347414,9.37601978 14.8286468,10.0329419 15.5966837,10.6681706 C16.2454665,11.2052225 16.9806503,11.8134734 16.9806503,13.4313041 L16.9806503,24.515822 C16.9806503,25.1791409 17.2483897,25.8875155 18.0001293,25.8875155 C18.7516103,25.8875155 19.0196084,25.1791409 19.0196084,24.515822 L19.0196084,13.4313041 C19.0196084,11.8134734 19.7547921,11.2052225 20.403575,10.6681706 C21.1713532,10.0329419 21.9652586,9.37601978 21.9652586,6.66072311 C21.9652586,3.9710136 20.5756008,1.11248455 18.0001293,1.11248455 M18.0001293,27 C16.7905166,27 15.9459089,25.9784611 15.9459089,24.515822 L15.9459089,13.4313041 C15.9459089,12.3610939 15.5558114,12.0384734 14.9657501,11.5498146 C14.0898414,10.825309 13,9.9236403 13,6.66072311 C13,2.86353523 15.1494167,0 18.0001293,0 C20.8505833,0 23,2.86353523 23,6.66072311 C23,9.9236403 21.9101586,10.825309 21.0345086,11.5498146 C20.4441886,12.0384734 20.0543498,12.3610939 20.0543498,13.4313041 L20.0543498,24.515822 C20.0543498,25.9784611 19.2097421,27 18.0001293,27" id="Fill-9" fill="#7FB017"></path>
                <path d="M18.0001293,1.11248455 C15.4243992,1.11248455 14.0347414,3.9710136 14.0347414,6.66072311 C14.0347414,9.37601978 14.8286468,10.0329419 15.5966837,10.6681706 C16.2454665,11.2052225 16.9806503,11.8134734 16.9806503,13.4313041 L16.9806503,24.515822 C16.9806503,25.1791409 17.2483897,25.8875155 18.0001293,25.8875155 C18.7516103,25.8875155 19.0196084,25.1791409 19.0196084,24.515822 L19.0196084,13.4313041 C19.0196084,11.8134734 19.7547921,11.2052225 20.403575,10.6681706 C21.1713532,10.0329419 21.9652586,9.37601978 21.9652586,6.66072311 C21.9652586,3.9710136 20.5756008,1.11248455 18.0001293,1.11248455 Z M18.0001293,27 C16.7905166,27 15.9459089,25.9784611 15.9459089,24.515822 L15.9459089,13.4313041 C15.9459089,12.3610939 15.5558114,12.0384734 14.9657501,11.5498146 C14.0898414,10.825309 13,9.9236403 13,6.66072311 C13,2.86353523 15.1494167,0 18.0001293,0 C20.8505833,0 23,2.86353523 23,6.66072311 C23,9.9236403 21.9101586,10.825309 21.0345086,11.5498146 C20.4441886,12.0384734 20.0543498,12.3610939 20.0543498,13.4313041 L20.0543498,24.515822 C20.0543498,25.9784611 19.2097421,27 18.0001293,27 Z" id="Stroke-11" stroke="#7FB017"></path>
                <path d="M3.5,9 C3.224,9 3,8.74583163 3,8.43265988 L3,0.56734012 C3,0.254168374 3.224,0 3.5,0 C3.776,0 4,0.254168374 4,0.56734012 L4,8.43265988 C4,8.74583163 3.776,9 3.5,9" id="Fill-13" fill="#7FB017"></path>
                <path d="M3.5,9 C3.224,9 3,8.74583163 3,8.43265988 L3,0.56734012 C3,0.254168374 3.224,0 3.5,0 C3.776,0 4,0.254168374 4,0.56734012 L4,8.43265988 C4,8.74583163 3.776,9 3.5,9 Z" id="Stroke-15" stroke="#7FB017" stroke-width="0.75"></path>
                <path d="M6.5,9 C6.224,9 6,8.74583163 6,8.43265988 L6,0.56734012 C6,0.254168374 6.224,0 6.5,0 C6.776,0 7,0.254168374 7,0.56734012 L7,8.43265988 C7,8.74583163 6.776,9 6.5,9" id="Fill-17" fill="#7FB017"></path>
                <path d="M6.5,9 C6.224,9 6,8.74583163 6,8.43265988 L6,0.56734012 C6,0.254168374 6.224,0 6.5,0 C6.776,0 7,0.254168374 7,0.56734012 L7,8.43265988 C7,8.74583163 6.776,9 6.5,9 Z" id="Stroke-19" stroke="#7FB017" stroke-width="0.75"></path>
            </g>
        </g>
    </g>
</svg>