<?xml version="1.0" encoding="UTF-8"?>
<svg width="32px" height="46px" viewBox="0 0 32 46" version="1.1" xmlns="http://www.w3.org/2000/svg" xmlns:xlink="http://www.w3.org/1999/xlink">
    <!-- Generator: Sketch 53.2 (72643) - https://sketchapp.com -->
    <title>Page 1</title>
    <desc>Created with Sketch.</desc>
    <g id="Page-1" stroke="none" stroke-width="1" fill="none" fill-rule="evenodd">
        <g id="About" transform="translate(-529.000000, -864.000000)">
            <g id="Page-1" transform="translate(530.000000, 865.000000)">
                <path d="M16.7626,38.711 C16.1006,39.603 15.5106,40.398 14.9996,41.11 C14.4916,40.399 13.8996,39.604 13.2386,38.712 C8.8776,32.84 1.5796,23.011 1.7656,15.008 L1.7656,14.987 C1.7656,11.462 3.1436,8.144 5.6466,5.642 C8.1496,3.14 11.4716,1.762 14.9996,1.762 C22.2946,1.762 28.2326,7.697 28.2346,14.992 L28.2346,15.012 C28.4176,23.014 21.1206,32.841 16.7626,38.711 M29.9956,14.982 C29.9886,6.72 23.2636,7.10542736e-15 14.9996,7.10542736e-15 C11.0006,7.10542736e-15 7.2366,1.561 4.4006,4.396 C1.5676,7.228 0.0066,10.985 0.0036,14.977 C-0.1904,23.583 7.3296,33.711 11.8236,39.763 C12.6576,40.887 13.3786,41.857 13.9526,42.682 C14.1916,43.024 14.5826,43.229 14.9996,43.229 C15.4176,43.229 15.8086,43.024 16.0476,42.682 C16.6236,41.854 17.3436,40.884 18.1766,39.762 C22.6696,33.711 30.1876,23.587 29.9956,14.982" id="Fill-1" fill="#7EB041"></path>
                <path d="M16.7626,38.711 C16.1006,39.603 15.5106,40.398 14.9996,41.11 C14.4916,40.399 13.8996,39.604 13.2386,38.712 C8.8776,32.84 1.5796,23.011 1.7656,15.008 L1.7656,14.987 C1.7656,11.462 3.1436,8.144 5.6466,5.642 C8.1496,3.14 11.4716,1.762 14.9996,1.762 C22.2946,1.762 28.2326,7.697 28.2346,14.992 L28.2346,15.012 C28.4176,23.014 21.1206,32.841 16.7626,38.711 Z M29.9956,14.982 C29.9886,6.72 23.2636,7.10542736e-15 14.9996,7.10542736e-15 C11.0006,7.10542736e-15 7.2366,1.561 4.4006,4.396 C1.5676,7.228 0.0066,10.985 0.0036,14.977 C-0.1904,23.583 7.3296,33.711 11.8236,39.763 C12.6576,40.887 13.3786,41.857 13.9526,42.682 C14.1916,43.024 14.5826,43.229 14.9996,43.229 C15.4176,43.229 15.8086,43.024 16.0476,42.682 C16.6236,41.854 17.3436,40.884 18.1766,39.762 C22.6696,33.711 30.1876,23.587 29.9956,14.982 Z" id="Stroke-3" stroke="#7EB041" stroke-width="2"></path>
                <path d="M14.9999,21.8492 C11.0399,21.8492 7.8179,18.6272 7.8179,14.6672 C7.8179,10.7072 11.0399,7.4852 14.9999,7.4852 C18.9599,7.4852 22.1829,10.7072 22.1829,14.6672 C22.1829,18.6272 18.9599,21.8492 14.9999,21.8492 M14.9999,5.7232 C10.0679,5.7232 6.0559,9.7352 6.0559,14.6672 C6.0559,19.5992 10.0679,23.6112 14.9999,23.6112 C19.9319,23.6112 23.9439,19.5992 23.9439,14.6672 C23.9439,9.7352 19.9319,5.7232 14.9999,5.7232" id="Fill-5" fill="#7EB041"></path>
                <path d="M14.9999,21.8492 C11.0399,21.8492 7.8179,18.6272 7.8179,14.6672 C7.8179,10.7072 11.0399,7.4852 14.9999,7.4852 C18.9599,7.4852 22.1829,10.7072 22.1829,14.6672 C22.1829,18.6272 18.9599,21.8492 14.9999,21.8492 Z M14.9999,5.7232 C10.0679,5.7232 6.0559,9.7352 6.0559,14.6672 C6.0559,19.5992 10.0679,23.6112 14.9999,23.6112 C19.9319,23.6112 23.9439,19.5992 23.9439,14.6672 C23.9439,9.7352 19.9319,5.7232 14.9999,5.7232 Z" id="Stroke-7" stroke="#7EB041" stroke-width="2"></path>
            </g>
        </g>
    </g>
</svg>