<?xml version="1.0" encoding="UTF-8"?>
<svg width="41px" height="24px" viewBox="0 0 41 24" version="1.1" xmlns="http://www.w3.org/2000/svg" xmlns:xlink="http://www.w3.org/1999/xlink">
    <!-- Generator: Sketch 53.2 (72643) - https://sketchapp.com -->
    <title>Maestro-dark Copy</title>
    <desc>Created with Sketch.</desc>
    <g id="Page-1" stroke="none" stroke-width="1" fill="none" fill-rule="evenodd">
        <g id="Home-" transform="translate(-1264.000000, -4335.000000)">
            <g id="Maestro-dark-Copy" transform="translate(1264.000000, 4335.000000)">
                <rect id="Rectangle" fill="#000066" x="0" y="0" width="40.6746032" height="24" rx="2.13333333"></rect>
                <path d="M34.0269452,11.9934932 C34.0269452,16.4156277 30.396389,20 25.9167718,20 C21.4380518,20 17.8069828,16.4156277 17.8069828,11.9934932 C17.8069828,7.57123216 21.4380518,3.98673336 25.9167718,3.98673336 C30.396389,3.98673336 34.0269452,7.57123216 34.0269452,11.9934932" id="Fill-356" fill="#CC0000"></path>
                <path d="M19.6518704,17.0780179 C19.4279408,16.8098986 19.2217,16.5265955 19.0341734,16.2300066 L21.9084705,16.2300066 C22.0810002,15.9582179 22.2367382,15.6750413 22.375813,15.3821219 L18.5670873,15.3821219 C18.4372414,15.1078025 18.3218799,14.8248791 18.2236944,14.5344902 L22.718565,14.5344902 C22.9892801,13.7360792 23.1355329,12.8819944 23.1355329,11.9934932 C23.1355329,11.4117033 23.072725,10.844338 22.953518,10.2979768 L17.9893823,10.2979768 C18.0521902,10.0091064 18.1314051,9.72643595 18.2247198,9.45009208 L22.7180523,9.45009208 C22.6194822,9.15970327 22.5047616,8.87690632 22.3750439,8.60258695 L18.5678563,8.60258695 C18.7069311,8.30966751 18.8630537,8.02699709 19.0350706,7.75457569 L21.9075733,7.75457569 C21.7201749,7.45874604 21.5134213,7.17594909 21.2898763,6.90745015 L19.6528958,6.90745015 C19.9047686,6.60567353 20.1784318,6.32237046 20.4714501,6.06007154 C19.0319943,4.77160561 17.1214788,3.98673336 15.0258722,3.98673336 C10.5465113,3.98673336 6.91544231,7.57123216 6.91544231,11.9934932 C6.91544231,16.4156277 10.5465113,20 15.0258722,20 C17.121607,20 19.0322507,19.2151277 20.4714501,17.9271679 C20.764853,17.6643629 21.0389008,17.3804272 21.2907735,17.0780179 L19.6518704,17.0780179" id="Fill-357" fill="#0066CC"></path>
                <path d="M20.3558322,14.1571746 C20.0092349,14.2477708 19.6740455,14.2920567 19.3197573,14.2912975 C18.1893423,14.2902853 17.6006138,13.7820099 17.6006138,12.8099982 C17.6006138,11.6743818 18.3500794,10.8391502 19.3674401,10.8391502 C20.1995814,10.8391502 20.7307573,11.3074417 20.7307573,12.0411954 C20.7307573,12.2846412 20.694867,12.521887 20.6068077,12.8571943 L18.5965686,12.8571943 C18.5250444,13.3319389 18.876128,13.5403356 19.4738291,13.5403356 C19.8318344,13.5403356 20.1554877,13.476817 20.5141339,13.3344695 L20.3558322,14.1571746 L20.3558322,14.1571746 Z M19.8152993,12.1874653 C19.8152993,12.1158488 19.9270718,11.6061816 19.345265,11.5951734 C19.0240472,11.5951734 18.7937086,11.8059742 18.7005221,12.1874653 L19.8152993,12.1874653 L19.8152993,12.1874653 Z" id="Fill-359" fill="#000066"></path>
                <path d="M21.0368499,11.9647707 C21.0368499,12.3842212 21.2760329,12.6741039 21.8198985,12.8898393 C22.2355846,13.0578726 22.3009562,13.1065871 22.3009562,13.2567795 C22.3009562,13.4649231 22.1174031,13.5603275 21.709536,13.5577969 C21.4033151,13.5556459 21.1237556,13.5188253 20.7939498,13.4286087 L20.6479533,14.1937421 C20.941228,14.2609301 21.3522997,14.2829465 21.716714,14.2912975 C22.8022662,14.2912975 23.3034481,13.9404269 23.3034481,13.1819996 C23.3034481,12.7259816 23.0943873,12.4578623 22.5788493,12.2579432 C22.1479099,12.0878854 22.0974071,12.0513179 22.0974071,11.8973296 C22.0974071,11.7166432 22.2681422,11.6252878 22.6010244,11.6252878 C22.8029071,11.6252878 23.0791339,11.6435083 23.3413892,11.674888 L23.4884111,10.905579 C23.221285,10.8690116 22.8161096,10.8396563 22.5814129,10.8396563 C21.4313864,10.8396563 21.0333891,11.3507154 21.0368499,11.9647707" id="Fill-360" fill="#000066"></path>
                <path d="M17.0495701,14.2365096 L16.2062772,14.2365096 L16.2264014,13.8877899 C15.9692733,14.1628685 15.6266495,14.2910445 15.1618706,14.2910445 C14.6117242,14.2910445 14.2348764,13.9196758 14.2348764,13.3855881 C14.2348764,12.5737647 14.8900019,12.1054732 16.0164433,12.1054732 C16.1321894,12.1054732 16.2794677,12.1140773 16.4307195,12.130906 C16.4619953,12.0222158 16.4704551,11.9753993 16.4704551,11.9164358 C16.4704551,11.6942472 16.2931829,11.6123816 15.8191751,11.6123816 C15.3518326,11.614153 15.0365111,11.6826064 14.7438772,11.7601699 L14.887951,11.015408 C15.3940037,10.8883708 15.7252195,10.8391502 16.1001446,10.8391502 C16.9724061,10.8391502 17.4330832,11.1769882 17.4330832,11.811415 C17.4403894,11.9808401 17.380786,12.3207026 17.3506638,12.4695031 C17.316568,12.6857447 17.0748215,13.9404269 17.0495701,14.2365096 L17.0495701,14.2365096 Z M16.3093335,12.7553368 C16.20256,12.7449613 16.1560308,12.741798 16.0828403,12.741798 C15.5076989,12.741798 15.2160905,12.9108435 15.2160905,13.2445059 C15.2160905,13.4540414 15.3583698,13.5850011 15.5802485,13.5850011 C15.9934992,13.5850011 16.2919011,13.2437468 16.3093335,12.7553368 L16.3093335,12.7553368 Z" id="Fill-361" fill="#000066"></path>
                <path d="M25.0802723,14.1838726 C24.803661,14.2586525 24.5879349,14.2912975 24.3547763,14.2912975 C23.838213,14.2912975 23.5560899,14.0306435 23.5560899,13.5665275 C23.5398111,13.4389842 23.6660679,12.8498555 23.6947801,12.6857447 C23.7232359,12.5211278 24.1707106,10.1213394 24.1707106,10.1213394 L25.1743561,10.1213394 L25.0225916,10.9154485 L25.5373604,10.9154485 L25.3975166,11.7256269 L24.8804405,11.7256269 C24.8804405,11.7256269 24.5967792,13.1322729 24.5967792,13.2398243 C24.5967792,13.4102616 24.7013737,13.4844089 24.9417103,13.4844089 C25.0565591,13.4844089 25.1453875,13.4737802 25.2139636,13.4535353 L25.0802723,14.1838726" id="Fill-362" fill="#000066"></path>
                <path d="M29.5648886,10.8391502 C28.8292664,10.8391502 28.2545095,11.1383962 27.9206019,11.6374348 L28.2104158,10.8969749 C27.67642,10.7035089 27.3321298,10.9797262 27.0210382,11.3722256 C27.0210382,11.3722256 26.9688691,11.4373891 26.9168282,11.4969853 L26.9168282,10.9150689 L25.9744525,10.9150689 C25.8467858,11.9421216 25.6210617,12.9837254 25.4445585,14.0130557 L25.4018747,14.2368892 L26.4156464,14.2368892 C26.5119092,13.7145689 26.5908678,13.2906898 26.66957,12.9525988 C26.8849115,12.025126 27.2474032,11.7416964 27.7915252,11.8672152 C27.6659093,12.1335631 27.5970769,12.4422989 27.5970769,12.7838063 C27.5970769,13.6129644 28.0528832,14.2912975 29.1853491,14.2912975 C30.3279412,14.2912975 31.1553399,13.6887565 31.1553399,12.3147556 C31.1553399,11.4861036 30.6039116,10.8391502 29.5648886,10.8391502 L29.5648886,10.8391502 Z M29.2698194,13.4854211 C28.911814,13.4908619 28.6946779,13.1942731 28.6946779,12.7504021 C28.6946779,12.224539 29.0114095,11.6302225 29.5204103,11.6302225 C29.9310974,11.6302225 30.0717103,11.951738 30.0717103,12.2942576 C30.0717103,13.0423093 29.7611314,13.4854211 29.2698194,13.4854211 L29.2698194,13.4854211 Z" id="Fill-363" fill="#000066"></path>
                <polyline id="Fill-364" fill="#000066" points="13.762535 14.2368892 12.752865 14.2368892 13.3528733 11.1161267 11.9714828 14.2368892 11.051154 14.2368892 10.8829825 11.1344737 10.2810515 14.2368892 9.36508078 14.2368892 10.1451812 10.1775192 11.7229427 10.1775192 11.8543267 12.4405275 12.8538705 10.1775192 14.5582733 10.1775192 13.762535 14.2368892"></polyline>
                <path d="M20.6091149,13.9070226 C20.2627739,13.9977454 19.9274563,14.0420313 19.5732964,14.0412721 C18.4428813,14.0402599 17.8541529,13.531858 17.8541529,12.5599728 C17.8541529,11.4243564 18.6034902,10.5891248 19.6207228,10.5891248 C20.4529923,10.5891248 20.9842963,11.0574163 20.9842963,11.7910435 C20.9842963,12.0344893 20.9482779,12.2712289 20.8603467,12.6071689 L18.8502358,12.6071689 C18.7785834,13.0814074 19.1294107,13.2901837 19.7271118,13.2901837 C20.0851171,13.2901837 20.4090267,13.2266651 20.7675448,13.0840645 L20.6091149,13.9070226 L20.6091149,13.9070226 Z M20.068582,11.9374399 C20.068582,11.8656968 20.1803545,11.3561562 19.5988041,11.3450215 C19.2775863,11.3450215 19.0472477,11.5558222 18.9538048,11.9374399 L20.068582,11.9374399 L20.068582,11.9374399 Z" id="Fill-366" fill="#FFFFFF"></path>
                <path d="M21.290389,11.7144922 C21.290389,12.1340692 21.5294438,12.4236989 22.0731812,12.6396874 C22.4891237,12.8078472 22.5543671,12.8564351 22.5543671,13.0062479 C22.5543671,13.2147711 22.3706858,13.3101756 21.9632032,13.3077715 C21.6565978,13.3054939 21.3770383,13.2686734 21.0474888,13.1784567 L20.901236,13.9433371 C21.1946389,14.0107781 21.6059669,14.0327945 21.9699967,14.0412721 C23.0555489,14.0412721 23.5569871,13.6902749 23.5569871,12.9315946 C23.5569871,12.4758297 23.3477982,12.2074573 22.8322602,12.0077912 C22.4013207,11.83786 22.3506898,11.8007864 22.3506898,11.6473042 C22.3506898,11.4666178 22.5216813,11.3748828 22.8544353,11.3748828 C23.056318,11.3748828 23.3324166,11.3934829 23.5948001,11.4248626 L23.741822,10.6555536 C23.4746959,10.61848 23.0695205,10.5895044 22.8350802,10.5895044 C21.6847973,10.5895044 21.2868,11.1003104 21.290389,11.7144922" id="Fill-367" fill="#FFFFFF"></path>
                <path d="M17.3031092,13.9863576 L16.4595599,13.9863576 L16.4799404,13.637638 C16.2226842,13.9124635 15.8803167,14.0405129 15.4154097,14.0405129 C14.8653914,14.0405129 14.4881591,13.6692708 14.4881591,13.1351831 C14.4881591,12.3236128 15.1434128,11.8553213 16.2698542,11.8553213 C16.3856003,11.8553213 16.5327504,11.8640519 16.6842586,11.8802479 C16.7155344,11.7718108 16.723866,11.7253739 16.723866,11.6662839 C16.723866,11.4435892 16.546722,11.3621031 16.0728423,11.3621031 C15.6053717,11.3640011 15.2900501,11.4324544 14.9975445,11.5101445 L15.1412337,10.7652561 C15.6474146,10.6382189 15.9785022,10.5891248 16.3536836,10.5891248 C17.2259451,10.5891248 17.6864941,10.9265832 17.6864941,11.5612631 C17.6940567,11.7308147 17.6340687,12.0700445 17.604331,12.2193512 C17.5698507,12.4355928 17.3282324,13.6902749 17.3031092,13.9863576 L17.3031092,13.9863576 Z M16.5627444,12.5053114 C16.456099,12.4944297 16.4094417,12.491646 16.336123,12.491646 C15.761238,12.491646 15.4695014,12.6604385 15.4695014,12.9938479 C15.4695014,13.2037629 15.612037,13.3349757 15.8335312,13.3349757 C16.2470383,13.3349757 16.5454402,12.9933418 16.5627444,12.5053114 L16.5627444,12.5053114 Z" id="Fill-368" fill="#FFFFFF"></path>
                <path d="M25.3336832,13.9337207 C25.0569437,14.0086271 24.8413457,14.0412721 24.608059,14.0412721 C24.0914956,14.0412721 23.8096289,13.7804916 23.8096289,13.3163756 C23.7932219,13.1888323 23.9194788,12.5997036 23.9480628,12.4355928 C23.976775,12.2709759 24.4242496,9.8711875 24.4242496,9.8711875 L25.427767,9.8711875 L25.2761306,10.6650435 L25.7908995,10.6650435 L25.6509275,11.475475 L25.1339795,11.475475 C25.1339795,11.475475 24.8500619,12.8821209 24.8500619,12.9891662 C24.8500619,13.1602362 24.9547846,13.2338773 25.1951212,13.2338773 C25.30997,13.2338773 25.3986702,13.2237548 25.4676308,13.2032568 L25.3336832,13.9337207" id="Fill-369" fill="#FFFFFF"></path>
                <path d="M30.3253776,12.0435995 C30.3253776,12.7922839 30.0144141,13.2353957 29.5231021,13.2353957 C29.1650967,13.2404569 28.9480888,12.9442477 28.9480888,12.5003767 C28.9480888,11.9745135 29.2648204,11.3800706 29.773693,11.3800706 C30.1845083,11.3800706 30.3253776,11.701586 30.3253776,12.0435995 L30.3253776,12.0435995 Z M31.4087507,12.0646037 C31.4087507,11.2360782 30.8571943,10.5891248 29.8184276,10.5891248 C28.6234101,10.5891248 27.8504877,11.3753889 27.8504877,12.5337809 C27.8504877,13.3628125 28.306294,14.0412721 29.4388881,14.0412721 C30.5814802,14.0412721 31.4087507,13.4387311 31.4087507,12.0646037 L31.4087507,12.0646037 Z" id="Fill-370" fill="#FFFFFF"></path>
                <path d="M26.2277352,10.6646639 C26.1001966,11.6919697 25.8743443,12.7334469 25.6979694,13.7626507 L25.6554138,13.9868638 L26.6690573,13.9868638 C27.0343688,11.998934 27.1570366,11.4327075 27.9226528,11.6319939 L28.2909125,10.6914885 C27.7567885,10.4980224 27.4131393,10.7743663 27.1020476,11.1671188 C27.1301189,10.9903549 27.1829289,10.8196644 27.1702391,10.6646639 L26.2277352,10.6646639" id="Fill-371" fill="#FFFFFF"></path>
                <polyline id="Fill-372" fill="#FFFFFF" points="14.0159459 13.9868638 13.0065323 13.9868638 13.6064123 10.8661013 12.2248937 13.9868638 11.3045648 13.9868638 11.1362651 10.8843218 10.5343342 13.9868638 9.61849166 13.9868638 10.3984639 9.9273673 11.9763536 9.9273673 12.0596703 12.4405275 13.1703457 9.9273673 14.8116842 9.9273673 14.0159459 13.9868638"></polyline>
            </g>
        </g>
    </g>
</svg>