<?xml version="1.0" encoding="UTF-8"?>
<svg width="41px" height="24px" viewBox="0 0 41 24" version="1.1" xmlns="http://www.w3.org/2000/svg" xmlns:xlink="http://www.w3.org/1999/xlink">
    <!-- Generator: Sketch 53.2 (72643) - https://sketchapp.com -->
    <title>MasterCard-dark Copy</title>
    <desc>Created with Sketch.</desc>
    <g id="Page-1" stroke="none" stroke-width="1" fill="none" fill-rule="evenodd">
        <g id="Home-" transform="translate(-1320.000000, -4335.000000)">
            <g id="MasterCard-dark-Copy" transform="translate(1320.000000, 4335.000000)">
                <rect id="Rectangle" fill="#000066" x="0" y="0" width="40.6746032" height="24" rx="2.13333333"></rect>
                <path d="M22.8300938,12.1941609 C22.8300938,16.5054631 19.2764958,20 14.8926086,20 C10.5085959,20 6.95474702,16.5054631 6.95474702,12.1941609 C6.95474702,7.88298197 10.5085959,4.388075 14.8926086,4.388075 C19.2764958,4.388075 22.8300938,7.88298197 22.8300938,12.1941609" id="Fill-333" fill="#CC0000"></path>
                <path d="M25.5493884,4.388075 C23.4979379,4.388075 21.6293794,5.15327594 20.220434,6.40858544 C19.933803,6.6644337 19.6662388,6.94075969 19.4192469,7.23497286 L21.023001,7.23497286 C21.2420197,7.49723583 21.4438532,7.77294502 21.628125,8.06173035 L18.8139975,8.06173035 C18.6456566,8.32707732 18.4926195,8.60278651 18.3566422,8.88848784 L22.0852294,8.88848784 C22.2126767,9.15605529 22.3248203,9.43164112 22.4214094,9.71487526 L18.0204622,9.71487526 C17.9288908,9.98404638 17.8516196,10.2598789 17.789903,10.5411393 L22.6517177,10.5411393 C22.7681263,11.0740537 22.8300938,11.6269524 22.8300938,12.1941609 C22.8300938,13.0607636 22.6864647,13.8949227 22.4214094,14.6739399 L18.0204622,14.6739399 C18.1170512,14.9569273 18.2291949,15.2328832 18.3563913,15.5008208 L22.0852294,15.5008208 C21.9490012,15.7857819 21.7967167,16.0617378 21.6273723,16.3274549 L18.8139975,16.3274549 C18.9975166,16.6153767 19.1997264,16.891456 19.4192469,17.1533489 L21.0224992,17.1533489 C20.7760091,17.4478087 20.508194,17.7241347 20.2206849,17.979983 C21.6295048,19.2352925 23.4979379,20 25.5493884,20 C29.9331502,20 33.4868737,16.5054631 33.4868737,12.1941609 C33.4868737,7.88335205 29.9331502,4.388075 25.5493884,4.388075" id="Fill-334" fill="#FF9900"></path>
                <path d="M13.0389774,13.0487977 C12.948535,13.0386822 12.908645,13.0354748 12.846552,13.0354748 C12.3580875,13.0354748 12.1110956,13.2002835 12.1110956,13.5258301 C12.1110956,13.7262898 12.2316437,13.8537205 12.4198041,13.8537205 C12.7709115,13.8537205 13.0239246,13.5250899 13.0389774,13.0487977 L13.0389774,13.0487977 Z M13.6658025,14.4835957 L12.9515455,14.4835957 L12.9679782,14.1499074 C12.7502139,14.413404 12.4595687,14.539231 12.0648081,14.539231 C11.5979194,14.539231 11.2776703,14.1807474 11.2776703,13.6597988 C11.2776703,12.8756005 11.8344997,12.4183056 12.7904802,12.4183056 C12.8884491,12.4183056 13.0136385,12.4271876 13.1418385,12.443101 C13.1684318,12.3367648 13.1754565,12.2916151 13.1754565,12.2342528 C13.1754565,12.021087 13.0254299,11.9411499 12.622892,11.9411499 C12.2012872,11.9369556 11.8535667,12.0402078 11.7106902,12.0863444 C11.7197219,12.0328062 11.8302348,11.3620989 11.8302348,11.3620989 C12.2594915,11.2379989 12.5427356,11.1916156 12.8614794,11.1916156 C13.6015771,11.1916156 13.993578,11.5182724 13.9926999,12.1358117 C13.9942052,12.3014839 13.966232,12.505151 13.9229551,12.7738286 C13.8481927,13.2401287 13.6876292,14.2402068 13.6658025,14.4835957 L13.6658025,14.4835957 Z" id="Fill-336" fill="#000066"></path>
                <polyline id="Fill-337" fill="#000066" points="10.9170295 14.4835957 10.0551292 14.4835957 10.5491131 11.4400623 9.44661839 14.4835957 8.85943239 14.4835957 8.78680246 11.457086 8.26798142 14.4835957 7.46140036 14.4835957 8.13514015 10.5241157 9.37436478 10.5241157 9.44925263 12.7403981 10.2052813 10.5241157 11.5834937 10.5241157 10.9170295 14.4835957"></polyline>
                <path d="M26.6141256,13.0487977 C26.5236832,13.0386822 26.4842949,13.0354748 26.4223274,13.0354748 C25.9334866,13.0354748 25.6867455,13.2002835 25.6867455,13.5258301 C25.6867455,13.7262898 25.8067919,13.8537205 25.9954541,13.8537205 C26.3463106,13.8537205 26.5994491,13.5250899 26.6141256,13.0487977 L26.6141256,13.0487977 Z M27.2413271,14.4835957 L26.5273209,14.4835957 L26.5435027,14.1499074 C26.3257384,14.413404 26.0352187,14.539231 25.640709,14.539231 C25.173193,14.539231 24.8533203,14.1807474 24.8533203,13.6597988 C24.8533203,12.8756005 25.4104006,12.4183056 26.3661302,12.4183056 C26.4639736,12.4183056 26.5889121,12.4271876 26.7172375,12.443101 C26.7439563,12.3367648 26.7508555,12.2916151 26.7508555,12.2342528 C26.7508555,12.021087 26.6008289,11.9411499 26.198291,11.9411499 C25.7766862,11.9369556 25.4290912,12.0402078 25.2857129,12.0863444 C25.2952464,12.0328062 25.4060102,11.3620989 25.4060102,11.3620989 C25.835016,11.2379989 26.118511,11.1916156 26.436753,11.1916156 C27.1773525,11.1916156 27.5688517,11.5182724 27.568099,12.1358117 C27.5696043,12.3014839 27.541882,12.505151 27.4983542,12.7738286 C27.4238427,13.2401287 27.2629028,14.2402068 27.2413271,14.4835957 L27.2413271,14.4835957 Z" id="Fill-338" fill="#000066"></path>
                <path d="M17.4954946,14.4346219 C17.2595414,14.5076509 17.0757714,14.539231 16.8763213,14.539231 C16.4359005,14.539231 16.1954314,14.2902909 16.1954314,13.8317624 C16.1892849,13.6894052 16.2587788,13.3150082 16.3134707,12.9735482 C16.363396,12.6726736 16.6872828,10.7761398 16.6872828,10.7761398 L17.5436637,10.7761398 L17.4436878,11.2635344 L17.961129,11.2635344 L17.844344,12.0374939 L17.3251467,12.0374939 C17.2256725,12.6497287 17.0837996,13.4125858 17.0821688,13.5137408 C17.0821688,13.6797831 17.172235,13.7523187 17.3773298,13.7523187 C17.4755496,13.7523187 17.5515664,13.7424499 17.6096453,13.7219722 L17.4954946,14.4346219" id="Fill-339" fill="#000066"></path>
                <path d="M20.1217125,14.4085929 C19.8274296,14.4970419 19.5438091,14.5402179 19.2428778,14.539231 C18.2838868,14.5379974 17.7840073,14.0457917 17.7840073,13.1027059 C17.7840073,12.0020896 18.4198641,11.1916156 19.2832696,11.1916156 C19.989373,11.1916156 20.4405817,11.645333 20.4405817,12.3566257 C20.4405817,12.5931065 20.4097234,12.8235426 20.3348356,13.1487191 L18.6290985,13.1487191 C18.5715214,13.6158828 18.8753378,13.8104212 19.3739629,13.8104212 C19.6801627,13.8104212 19.956884,13.7482478 20.2643381,13.6079877 L20.1217125,14.4085929 L20.1217125,14.4085929 Z M19.6402727,12.4997231 C19.6451649,12.432492 19.730966,11.9248664 19.2413726,11.9248664 C18.9689162,11.9248664 18.7736057,12.129397 18.6944529,12.4997231 L19.6402727,12.4997231 L19.6402727,12.4997231 Z" id="Fill-340" fill="#000066"></path>
                <path d="M14.1826165,12.281623 C14.1826165,12.688587 14.383321,12.9694773 14.8386693,13.180546 C15.1875187,13.342024 15.2418343,13.3897642 15.2418343,13.5359456 C15.2418343,13.7364053 15.0877937,13.8274448 14.7469724,13.8274448 C14.4896944,13.8274448 14.2506052,13.787723 13.974762,13.7000141 C13.974762,13.7000141 13.8617403,14.4100733 13.8563463,14.4439972 C14.0521586,14.4856928 14.2267715,14.5245512 14.753119,14.539231 C15.6623102,14.539231 16.0822843,14.1987579 16.0822843,13.4629166 C16.0822843,13.0205483 15.9066679,12.7608759 15.4749024,12.5654739 C15.1137598,12.4025156 15.0719882,12.3660011 15.0719882,12.2157488 C15.0719882,12.0416881 15.2153664,11.9527457 15.4937185,11.9527457 C15.6629374,11.9527457 15.893873,11.9705095 16.1130172,12.0009794 L16.2355723,11.2541591 C16.0125395,11.2192482 15.6741016,11.1916156 15.4771603,11.1916156 C14.5132771,11.1916156 14.1794805,11.6866586 14.1826165,12.281623" id="Fill-341" fill="#000066"></path>
                <path d="M24.312798,11.2766105 C24.5521381,11.2766105 24.7756727,11.337797 25.082876,11.4903931 L25.2239963,10.6310686 C25.0973016,10.5822181 24.6531176,10.2959 24.2767967,10.2959 C23.7002731,10.2959 23.2123104,10.5776538 22.869733,11.0416101 C22.3694771,10.8787751 22.1636296,11.2078991 21.9117455,11.5360362 L21.6878345,11.5873539 C21.704769,11.4794141 21.7201981,11.3722144 21.715306,11.2635344 L20.9235268,11.2635344 C20.8156482,12.2604051 20.6241009,13.2697351 20.4741997,14.2669759 L20.4349369,14.4835957 L21.297088,14.4835957 C21.440968,13.5640716 21.5196191,12.9755219 21.5675373,12.576823 L21.8921768,12.399925 C21.940973,12.2221635 22.0923795,12.1624574 22.3969485,12.1697356 C22.3571839,12.379694 22.3356082,12.6008782 22.3356082,12.8297106 C22.3356082,13.8833268 22.9143897,14.539231 23.8416443,14.539231 C24.0806081,14.539231 24.2858284,14.508391 24.6035686,14.4232728 L24.7545988,13.5210191 C24.4688458,13.6590587 24.2348996,13.7240693 24.0227801,13.7240693 C23.5217716,13.7240693 23.2185824,13.3602812 23.2185824,12.7593955 C23.2185824,11.887365 23.6691639,11.2766105 24.312798,11.2766105" id="Fill-342" fill="#000066"></path>
                <path d="M31.6086562,10.5241157 L31.4171089,11.6680312 C31.1819083,11.3632091 30.9287698,11.1423951 30.5945969,11.1423951 C30.1598209,11.1423951 29.7640567,11.4665847 29.5048971,11.9439872 C29.1440054,11.8703413 28.7710714,11.7451311 28.7710714,11.7451311 L28.7708205,11.7482151 C28.7995463,11.4813878 28.8117141,11.3190463 28.8088289,11.2635344 L28.0171753,11.2635344 C27.9096729,12.2604051 27.7178747,13.2697351 27.568099,14.2669759 L27.5284599,14.4835957 L28.3908619,14.4835957 C28.5072705,13.7404762 28.5962076,13.1226902 28.6618129,12.6334452 C28.9565976,12.3714289 29.1041154,12.1435833 29.4012834,12.1583865 C29.2694457,12.4719672 29.1925508,12.832918 29.1925508,13.2032442 C29.1925508,14.0079202 29.6062529,14.539231 30.2329525,14.539231 C30.5488112,14.539231 30.7911618,14.4320313 31.0274913,14.1838313 L30.9868487,14.483349 L31.8022106,14.483349 L32.4586396,10.5241157 L31.6086562,10.5241157 L31.6086562,10.5241157 Z M30.5309987,13.739736 C30.2377193,13.739736 30.089198,13.5258301 30.089198,13.1049264 C30.089198,12.4719672 30.3667973,12.0233075 30.7575438,12.0233075 C31.0537084,12.0233075 31.2142719,12.2448617 31.2142719,12.6539229 C31.2142719,13.29231 30.9320313,13.739736 30.5309987,13.739736 L30.5309987,13.739736 Z" id="Fill-343" fill="#000066"></path>
                <polyline id="Fill-344" fill="#FFFFFF" points="11.1648995 14.2485953 10.3032501 14.2485953 10.7971086 11.2050618 9.69486472 14.2485953 9.10742784 14.2485953 9.03492335 11.2227023 8.51597687 14.2485953 7.70939581 14.2485953 8.38313561 10.2894853 9.62236023 10.2894853 9.65698175 12.7403981 10.4931667 10.2894853 11.8314892 10.2894853 11.1648995 14.2485953"></polyline>
                <path d="M13.2869729,12.8142907 C13.1966559,12.8039284 13.1567658,12.8010912 13.0946729,12.8010912 C12.6062084,12.8010912 12.359091,12.9656532 12.359091,13.290953 C12.359091,13.491166 12.4797646,13.6193368 12.6680505,13.6193368 C13.0190324,13.6193368 13.2720455,13.2907063 13.2869729,12.8142907 L13.2869729,12.8142907 Z M13.9136726,14.2485953 L13.1997919,14.2485953 L13.2160991,13.9151537 C12.9983348,14.1785269 12.7076896,14.3044772 12.312929,14.3044772 C11.8459148,14.3044772 11.5257912,13.9455002 11.5257912,13.424675 C11.5257912,12.6403533 12.0827461,12.1836753 13.0387265,12.1836753 C13.1364445,12.1836753 13.2616339,12.1924338 13.3899593,12.2087173 C13.4165527,12.1021344 13.4235773,12.0568614 13.4235773,11.9992523 C13.4235773,11.7862099 13.2735508,11.7068896 12.8710129,11.7068896 C12.4492826,11.7019552 12.1016876,11.8052074 11.9586856,11.8512206 C11.9678428,11.7979291 12.0782302,11.1272218 12.0782302,11.1272218 C12.5076123,11.0033685 12.7908565,10.9566152 13.1096003,10.9566152 C13.8495726,10.9566152 14.241448,11.2836421 14.2408208,11.9009346 C14.2422007,12.0663601 14.2144784,12.271014 14.171076,12.5389515 C14.0961882,13.0048816 13.9356246,14.0055764 13.9136726,14.2485953 L13.9136726,14.2485953 Z" id="Fill-345" fill="#FFFFFF"></path>
                <path d="M25.4718663,10.3960682 L25.330746,11.2552693 C25.023041,11.1031666 24.8001336,11.0416101 24.5610444,11.0416101 C23.9176611,11.0416101 23.466327,11.6531047 23.466327,12.5252586 C23.466327,13.1261443 23.7696416,13.4891922 24.2706501,13.4891922 C24.4828951,13.4891922 24.717343,13.424675 25.0024688,13.286142 L24.8510623,14.1883957 C24.5338238,14.2733906 24.3284781,14.3044772 24.0896398,14.3044772 C23.1617579,14.3044772 22.5838545,13.6484497 22.5838545,12.5950803 C22.5838545,11.1796497 23.3827837,10.1904274 24.5247921,10.1904274 C24.901113,10.1904274 25.345548,10.3472177 25.4718663,10.3960682" id="Fill-346" fill="#FFFFFF"></path>
                <path d="M26.8619956,12.8142907 C26.7721804,12.8039284 26.7321649,12.8010912 26.6701974,12.8010912 C26.1819838,12.8010912 25.934741,12.9656532 25.934741,13.290953 C25.934741,13.491166 26.0552891,13.6193368 26.2434496,13.6193368 C26.594306,13.6193368 26.84757,13.2907063 26.8619956,12.8142907 L26.8619956,12.8142907 Z M27.4891971,14.2485953 L26.7753164,14.2485953 L26.7914982,13.9151537 C26.5737338,14.1785269 26.2830887,14.3044772 25.8887044,14.3044772 C25.4211885,14.3044772 25.1014412,13.9455002 25.1014412,13.424675 C25.1014412,12.6403533 25.6578943,12.1836753 26.6141256,12.1836753 C26.7118436,12.1836753 26.8367821,12.1924338 26.9649821,12.2087173 C26.9917009,12.1021344 26.9987255,12.0568614 26.9987255,11.9992523 C26.9987255,11.7862099 26.8490753,11.7068896 26.4462865,11.7068896 C26.0249326,11.7019552 25.677463,11.8052074 25.5342102,11.8512206 C25.5432419,11.7979291 25.6537547,11.1272218 25.6537547,11.1272218 C26.0831369,11.0033685 26.3661302,10.9566152 26.6848739,10.9566152 C27.4248462,10.9566152 27.817098,11.2836421 27.8160945,11.9009346 C27.8178506,12.0663601 27.7898774,12.271014 27.7464751,12.5389515 C27.6718381,13.0048816 27.5112746,14.0055764 27.4891971,14.2485953 L27.4891971,14.2485953 Z" id="Fill-347" fill="#FFFFFF"></path>
                <path d="M17.7433646,14.1997448 C17.5076623,14.2727738 17.3236414,14.3044772 17.1244422,14.3044772 C16.6838959,14.3044772 16.4433014,14.0554138 16.4433014,13.5973788 C16.4372803,13.4545281 16.5068997,13.0807479 16.5617171,12.7389178 C16.611266,12.4377965 16.9352783,10.5415094 16.9352783,10.5415094 L17.79191,10.5415094 L17.6916832,11.0287807 L18.1314769,11.0287807 L18.0143156,11.8024934 L17.5731421,11.8024934 C17.473668,12.415345 17.331795,13.1777087 17.3300389,13.2788637 C17.3300389,13.4453995 17.4204813,13.5174416 17.6253253,13.5174416 C17.723545,13.5174416 17.7994364,13.5079429 17.8577662,13.4869717 L17.7433646,14.1997448" id="Fill-348" fill="#FFFFFF"></path>
                <path d="M20.3700843,14.1742093 C20.0756759,14.262905 19.7914282,14.304724 19.4908733,14.3044772 C18.5317568,14.3038604 18.0322536,13.811038 18.0322536,12.8680755 C18.0322536,11.7670892 18.667985,10.9566152 19.5307633,10.9566152 C20.2376193,10.9566152 20.6885772,11.4103326 20.6885772,12.1224888 C20.6885772,12.3584761 20.6572171,12.5887889 20.5832073,12.9140888 L18.8772194,12.9140888 C18.8193914,13.3812524 19.1235841,13.5761609 19.6217075,13.5761609 C19.9281581,13.5761609 20.204754,13.5137408 20.5125845,13.3731106 L20.3700843,14.1742093 L20.3700843,14.1742093 Z M19.888519,12.2647227 C19.8931603,12.1973682 19.9793378,11.6899893 19.4898698,11.6899893 C19.2171626,11.6899893 19.0218521,11.8948899 18.9424483,12.2647227 L19.888519,12.2647227 L19.888519,12.2647227 Z" id="Fill-349" fill="#FFFFFF"></path>
                <path d="M14.4304866,12.0466225 C14.4304866,12.4543267 14.6314419,12.7346002 15.0869156,12.9459156 C15.435765,13.1072702 15.4898298,13.1550105 15.4898298,13.3013152 C15.4898298,13.5020216 15.3359146,13.5925677 14.9948424,13.5925677 C14.7378153,13.5925677 14.4986006,13.5533393 14.222632,13.4658772 C14.222632,13.4658772 14.1097357,14.1754429 14.1044672,14.2088734 C14.3001541,14.2510624 14.4748924,14.2895507 15.000989,14.3044772 C15.9104311,14.3044772 16.3304052,13.9641275 16.3304052,13.2282862 C16.3304052,12.7856712 16.1545379,12.5261221 15.7228979,12.3312136 C15.3616298,12.1677619 15.3201091,12.1316174 15.3201091,11.9811185 C15.3201091,11.8070578 15.4633619,11.7174985 15.7419648,11.7174985 C15.9108074,11.7174985 16.1419939,11.7360025 16.3610126,11.766349 L16.4836932,11.019652 C16.2605349,10.9849879 15.9223479,10.9566152 15.7252812,10.9566152 C14.7611472,10.9566152 14.4276014,11.4517815 14.4304866,12.0466225" id="Fill-350" fill="#FFFFFF"></path>
                <path d="M32.050206,14.2485953 L31.235095,14.2485953 L31.2754868,13.9489543 C31.0390318,14.1972776 30.7968066,14.3044772 30.480948,14.3044772 C29.8547501,14.3044772 29.4404208,13.7737833 29.4404208,12.9682437 C29.4404208,11.8972338 30.0828005,10.9944866 30.8425923,10.9944866 C31.1767653,10.9944866 31.4297783,11.1287021 31.6654807,11.4336476 L31.8566517,10.2894853 L32.7065096,10.2894853 L32.050206,14.2485953 L32.050206,14.2485953 Z M30.7788687,13.5046122 C31.1804031,13.5046122 31.4621419,13.0574329 31.4621419,12.4196626 C31.4621419,12.0104781 31.3017038,11.7881837 31.0055393,11.7881837 C30.6146673,11.7881837 30.3371934,12.2369667 30.3371934,12.8701727 C30.3371934,13.2915698 30.4858402,13.5046122 30.7788687,13.5046122 L30.7788687,13.5046122 Z" id="Fill-351" fill="#FFFFFF"></path>
                <path d="M28.2654216,11.0287807 C28.1576684,12.0254046 27.9659956,13.0347347 27.8160945,14.0320988 L27.7768317,14.2485953 L28.6387319,14.2485953 C28.9470641,12.2795259 29.0211993,11.89526 29.5048971,11.943247 C29.581792,11.5402305 29.7251702,11.187298 29.8319199,11.0094132 C29.4710282,10.9353973 29.2694457,11.1359803 29.0052684,11.5171622 C29.0263424,11.3522301 29.0643508,11.1922324 29.0572007,11.0287807 L28.2654216,11.0287807" id="Fill-352" fill="#FFFFFF"></path>
                <path d="M21.1718986,11.0287807 C21.0636437,12.0254046 20.87172,13.0347347 20.7220697,14.0320988 L20.6829324,14.2485953 L21.5450835,14.2485953 C21.8535412,12.2795259 21.9274255,11.89526 22.4103706,11.943247 C22.4877673,11.5402305 22.6313964,11.187298 22.7378952,11.0094132 C22.3773798,10.9353973 22.1754209,11.1359803 21.9117455,11.5171622 C21.9325685,11.3522301 21.9708278,11.1922324 21.9633014,11.0287807 L21.1718986,11.0287807" id="Fill-353" fill="#FFFFFF"></path>
            </g>
        </g>
    </g>
</svg>