<?xml version="1.0" encoding="UTF-8"?>
<svg width="79px" height="54px" viewBox="0 0 79 54" version="1.1" xmlns="http://www.w3.org/2000/svg" xmlns:xlink="http://www.w3.org/1999/xlink">
    <!-- Generator: Sketch 53.2 (72643) - https://sketchapp.com -->
    <title>Page 1</title>
    <desc>Created with Sketch.</desc>
    <g id="Page-1" stroke="none" stroke-width="1" fill="none" fill-rule="evenodd">
        <g id="Contact-Us" transform="translate(-920.000000, -235.000000)">
            <g id="Page-1" transform="translate(921.000000, 236.000000)">
                <path d="M74.0932,50.9392 L2.7802,50.9392 C1.7622,50.9392 0.9292,50.1062 0.9292,49.0872 L0.9292,2.7812 C0.9292,1.7622 1.7622,0.9292 2.7802,0.9292 L74.0932,0.9292 C75.1122,0.9292 75.9452,1.7622 75.9452,2.7812 L75.9452,49.0872 C75.9452,50.1062 75.1122,50.9392 74.0932,50.9392" id="Fill-1" fill="#FFFFFF"></path>
                <path d="M74.0932,50.9392 L2.7802,50.9392 C1.7622,50.9392 0.9292,50.1062 0.9292,49.0872 L0.9292,2.7812 C0.9292,1.7622 1.7622,0.9292 2.7802,0.9292 L74.0932,0.9292 C75.1122,0.9292 75.9452,1.7622 75.9452,2.7812 L75.9452,49.0872 C75.9452,50.1062 75.1122,50.9392 74.0932,50.9392 Z" id="Stroke-3" stroke="#7FB017" stroke-width="3.858"></path>
                <path d="M73.2563,48.4314 L38.4373,10.3914 L3.6173,48.4314 C2.8803,48.9474 3.2443,50.1064 4.1453,50.1064 L72.7293,50.1064 C73.6293,50.1064 73.9933,48.9474 73.2563,48.4314" id="Fill-5" fill="#FFFFFF"></path>
                <path d="M73.2563,48.4314 L38.4373,10.3914 L3.6173,48.4314 C2.8803,48.9474 3.2443,50.1064 4.1453,50.1064 L72.7293,50.1064 C73.6293,50.1064 73.9933,48.9474 73.2563,48.4314 Z" id="Stroke-7" stroke="#7FB017" stroke-width="3.858"></path>
                <path d="M3.6171,2.6038 L37.3501,39.4558 C37.9341,40.0938 38.9401,40.0938 39.5241,39.4558 L73.2561,2.6038 C73.9931,2.0878 73.6291,0.9288 72.7291,0.9288 L4.1451,0.9288 C3.2451,0.9288 2.8801,2.0878 3.6171,2.6038" id="Fill-9" fill="#FFFFFF"></path>
                <path d="M3.6171,2.6038 L37.3501,39.4558 C37.9341,40.0938 38.9401,40.0938 39.5241,39.4558 L73.2561,2.6038 C73.9931,2.0878 73.6291,0.9288 72.7291,0.9288 L4.1451,0.9288 C3.2451,0.9288 2.8801,2.0878 3.6171,2.6038 Z" id="Stroke-11" stroke="#7FB017" stroke-width="3.858"></path>
            </g>
        </g>
    </g>
</svg>