<?xml version="1.0" encoding="UTF-8"?>
<svg width="54px" height="54px" viewBox="0 0 54 54" version="1.1" xmlns="http://www.w3.org/2000/svg" xmlns:xlink="http://www.w3.org/1999/xlink">
    <!-- Generator: Sketch 53.2 (72643) - https://sketchapp.com -->
    <title>Page 1</title>
    <desc>Created with Sketch.</desc>
    <g id="Page-1" stroke="none" stroke-width="1" fill="none" fill-rule="evenodd" stroke-linecap="round" stroke-linejoin="round">
        <g id="Ingredient-Calculator" transform="translate(-1169.000000, -495.000000)" stroke="#7FB017" stroke-width="4">
            <g id="Page-1" transform="translate(1171.000000, 497.000000)">
                <path d="M5.83583206,34.9584126 C3.36158401,35.1560519 1.48225516,34.6533605 0.575030879,33.36226 C-1.82993822,29.9379435 3.52873321,22.265455 12.5437934,16.2256395 C17.7331163,12.7476166 23.0027148,10.5692873 27,10" id="Stroke-1"></path>
                <path d="M26.6405871,8.02391972 C28.2919572,7.79991992 29.7868184,9.17425205 29.9794449,11.0945837 C30.1720713,13.0137487 28.9892247,14.7532471 27.3388578,14.9760803 C25.6874876,15.2000801 24.1926264,13.825748 24,11.9054163" id="Stroke-3"></path>
                <path d="M42.9999973,14.2458013 L42.9999973,12.1228846 C43.0010998,11.4017455 42.6637239,10.7244822 42.0915079,10.3003489 L28.7783888,0.429405124 C28.0231518,-0.129730851 27.0044088,-0.144356138 26.2337363,0.394529439 L12.2690186,10.1698463 C11.6703417,10.5894795 11.0011025,11.5974993 11,12.3388889 L11.0066152,18" id="Stroke-5"></path>
                <path d="M11.0044151,24 L11.0000028,47.6932428 C10.9977966,48.8893792 12.3071381,49.9989175 13.524925,50 L40.7795245,49.977268 C41.9984144,49.9783505 42.9867632,49.0106166 42.9889693,47.8144802 L43,31.9345518" id="Stroke-7"></path>
                <path d="M4.5,9 L4.5,9 C4.5,6.515 2.485,4.5 0,4.5 C2.485,4.5 4.5,2.485 4.5,0 C4.5,2.485 6.515,4.5 9,4.5 C6.515,4.5 4.5,6.515 4.5,9 Z" id="Stroke-9"></path>
                <path d="M45.5,27 L45.5,27 C45.5,24.515 43.485,22.5 41,22.5 C43.485,22.5 45.5,20.485 45.5,18 C45.5,20.485 47.515,22.5 50,22.5 C47.515,22.5 45.5,24.515 45.5,27 Z" id="Stroke-11"></path>
                <path d="M46,0 L46,4" id="Stroke-13"></path>
                <path d="M43,2 L47,2" id="Stroke-15"></path>
            </g>
        </g>
    </g>
</svg>