<?xml version="1.0" encoding="UTF-8"?>
<svg width="25px" height="29px" viewBox="0 0 25 29" version="1.1" xmlns="http://www.w3.org/2000/svg" xmlns:xlink="http://www.w3.org/1999/xlink">
    <!-- Generator: Sketch 53.2 (72643) - https://sketchapp.com -->
    <title>Notification</title>
    <desc>Created with Sketch.</desc>
    <g id="Page-1" stroke="none" stroke-width="1" fill="none" fill-rule="evenodd">
        <g id="-_Today’s-Orders-Copy" transform="translate(-1345.000000, -55.000000)" fill="#515151">
            <g id="Group-7" transform="translate(0.000000, -4.000000)">
                <g id="Notification" transform="translate(1345.000000, 59.000000)">
                    <path d="M24.0128205,22.0336957 C23.75,21.7941304 21.6153846,19.6443478 21.6153846,12.8608696 C21.5652583,10.5418449 20.6948166,8.31252074 19.1538462,6.55652174 C18.3268151,5.5842033 17.3029378,4.79194612 16.1474359,4.23021739 C16.1526388,4.17359363 16.1526388,4.11662377 16.1474359,4.06 C16.1474359,2.14501266 14.5689526,0.592608696 12.6217949,0.592608696 C10.6746371,0.592608696 9.09615385,2.14501266 9.09615385,4.06 C9.09095098,4.11662377 9.09095098,4.17359363 9.09615385,4.23021739 C7.94065193,4.79194612 6.91677467,5.5842033 6.08974359,6.55652174 C4.54877313,8.31252074 3.67833146,10.5418449 3.62820513,12.8608696 C3.62820513,19.6317391 1.5,21.7752174 1.23717949,22.0147826 C0.515986012,22.4390826 0.180470057,23.2912954 0.423076923,24.0826087 C0.6790403,24.9115679 1.46550486,25.4710451 2.34615385,25.4506522 L8.61538462,25.4506522 C8.26210385,25.8138362 8.26210385,26.3861638 8.61538462,26.7493478 C9.64951615,27.7938262 11.0689444,28.3829699 12.5512821,28.3829699 C14.0336197,28.3829699 15.453048,27.7938262 16.4871795,26.7493478 C16.8165971,26.391491 16.8165971,25.8463351 16.4871795,25.4884783 L22.8397436,25.4884783 C23.7203926,25.5088712 24.5068571,24.949394 24.7628205,24.1204348 C25.0249863,23.3380468 24.7166863,22.4802579 24.0128205,22.0336957 L24.0128205,22.0336957 Z M12.6410256,2.45869565 C13.3120965,2.51497904 13.893024,2.93981383 14.1410256,3.55565217 C13.1516341,3.35306046 12.1304171,3.35306046 11.1410256,3.55565217 C11.3890273,2.93981383 11.9699548,2.51497904 12.6410256,2.45869565 L12.6410256,2.45869565 Z M12.6410256,5.29565217 C16.7051282,5.29565217 19.6923077,9.33043478 19.6923077,12.8608696 C19.6562688,14.985763 19.9084914,17.1058954 20.4423077,19.1652174 L4.83974359,19.1652174 C5.37355984,17.1058954 5.62578249,14.985763 5.58974359,12.8608696 C5.58974359,9.33043478 8.57692308,5.29565217 12.6410256,5.29565217 Z M12.5961538,26.5034783 C11.6332717,26.5136368 10.7076193,26.1381137 10.0320513,25.4632609 L15.0961538,25.4632609 C14.4365719,26.1230781 13.5369616,26.4973942 12.5961538,26.5034783 L12.5961538,26.5034783 Z M2.38461538,23.5782609 C3.18643128,22.8998798 3.79966554,22.0321063 4.16666667,21.0565217 L21.1217949,21.0565217 C21.488796,22.0321063 22.1020303,22.8998798 22.9038462,23.5782609 L2.38461538,23.5782609 Z" id="Shape"></path>
                </g>
            </g>
        </g>
    </g>
</svg>