<?xml version="1.0" encoding="UTF-8"?>
<svg width="52px" height="50px" viewBox="0 0 52 50" version="1.1" xmlns="http://www.w3.org/2000/svg" xmlns:xlink="http://www.w3.org/1999/xlink">
    <!-- Generator: Sketch 53.2 (72643) - https://sketchapp.com -->
    <title>Page 1</title>
    <desc>Created with Sketch.</desc>
    <g id="Page-1" stroke="none" stroke-width="1" fill="none" fill-rule="evenodd">
        <g id="About" transform="translate(-1077.000000, -861.000000)">
            <g id="Page-1" transform="translate(1078.000000, 862.000000)">
                <path d="M1.08095524,10.6087684 L8.05548335,11.8132706 L14.9065581,34.1494755 C15.3339419,35.7725215 16.970581,37.0251801 18.6319108,36.9996156 L41.7941164,36.6434967 C43.4554462,36.6179323 45.0538735,35.3153338 45.4324639,33.6798028 L49.916761,17.900585 C50.1248681,16.9998837 49.9385123,16.0997768 49.4053113,15.4297501 C48.8715224,14.7591289 48.0414454,14.3833908 47.1278903,14.3976593 L42.9792689,14.4612732 C42.7788041,15.3702979 42.4878069,16.2555417 42.1103922,17.1021415 L47.1672778,17.0248536 C47.3013129,17.0224755 47.365979,17.0587414 47.3812637,17.0783606 C47.3965484,17.0967908 47.417124,17.1681335 47.3865546,17.300712 L42.9022575,33.0805243 C42.7946767,33.5454407 42.2262033,34.0085737 41.7547289,34.0157079 L18.5925233,34.3712323 C18.121049,34.3789611 17.5390544,33.9330693 17.4173647,33.472909 L12.7437724,18.7293492 L12.4433692,17.6806118 C12.4457207,17.6473185 12.4533631,17.6241321 12.4598297,17.6152143 C12.4745265,17.5950005 12.5380168,17.5569511 12.6720519,17.5551675 L17.7283496,17.4772851 C17.3262443,16.6419812 17.0087928,15.7662498 16.7812858,14.8637648 L11.6585584,14.9428363 L10.3252619,10.2901044 C10.1865238,9.80675771 9.78677004,9.44528812 9.29530801,9.36146046 L1.51833293,8.01902899 C0.812297165,7.89655739 0.139770179,8.37812049 0.0186682919,9.09333088 C-0.101845722,9.80854127 0.373743729,10.4862968 1.08095524,10.6087684" id="Fill-1" fill="#7EB041"></path>
                <path d="M1.08095524,10.6087684 L8.05548335,11.8132706 L14.9065581,34.1494755 C15.3339419,35.7725215 16.970581,37.0251801 18.6319108,36.9996156 L41.7941164,36.6434967 C43.4554462,36.6179323 45.0538735,35.3153338 45.4324639,33.6798028 L49.916761,17.900585 C50.1248681,16.9998837 49.9385123,16.0997768 49.4053113,15.4297501 C48.8715224,14.7591289 48.0414454,14.3833908 47.1278903,14.3976593 L42.9792689,14.4612732 C42.7788041,15.3702979 42.4878069,16.2555417 42.1103922,17.1021415 L47.1672778,17.0248536 C47.3013129,17.0224755 47.365979,17.0587414 47.3812637,17.0783606 C47.3965484,17.0967908 47.417124,17.1681335 47.3865546,17.300712 L42.9022575,33.0805243 C42.7946767,33.5454407 42.2262033,34.0085737 41.7547289,34.0157079 L18.5925233,34.3712323 C18.121049,34.3789611 17.5390544,33.9330693 17.4173647,33.472909 L12.7437724,18.7293492 L12.4433692,17.6806118 C12.4457207,17.6473185 12.4533631,17.6241321 12.4598297,17.6152143 C12.4745265,17.5950005 12.5380168,17.5569511 12.6720519,17.5551675 L17.7283496,17.4772851 C17.3262443,16.6419812 17.0087928,15.7662498 16.7812858,14.8637648 L11.6585584,14.9428363 L10.3252619,10.2901044 C10.1865238,9.80675771 9.78677004,9.44528812 9.29530801,9.36146046 L1.51833293,8.01902899 C0.812297165,7.89655739 0.139770179,8.37812049 0.0186682919,9.09333088 C-0.101845722,9.80854127 0.373743729,10.4862968 1.08095524,10.6087684 Z" id="Stroke-3" stroke="#7EB041" stroke-width="0.376"></path>
                <path d="M27.9995311,42.924493 C27.9660535,40.1621101 26.1477995,37.9587419 23.9387988,38.0005863 C21.729798,38.0424306 19.9669914,40.3144497 20.000469,43.0761789 C20.0339467,45.8372542 21.8516776,48.0406223 24.0606783,47.9994318 C26.269679,47.9569336 28.0330087,45.6849145 27.9995311,42.924493" id="Fill-5" fill="#7EB041"></path>
                <path d="M27.9995311,42.924493 C27.9660535,40.1621101 26.1477995,37.9587419 23.9387988,38.0005863 C21.729798,38.0424306 19.9669914,40.3144497 20.000469,43.0761789 C20.0339467,45.8372542 21.8516776,48.0406223 24.0606783,47.9994318 C26.269679,47.9569336 28.0330087,45.6849145 27.9995311,42.924493 Z" id="Stroke-7" stroke="#7EB041" stroke-width="0.376"></path>
                <path d="M38.9995311,42.9244931 C38.9660535,40.1621101 37.1478028,37.9587419 34.9388061,38.0005863 C32.7303324,38.0424306 30.9664828,40.3144498 31.0004834,43.0761789 C31.0334379,45.8366005 32.8516886,48.0406225 35.0606854,47.9994319 C37.2696821,47.9569337 39.0330087,45.6849146 38.9995311,42.9244931" id="Fill-9" fill="#7EB041"></path>
                <path d="M38.9995311,42.9244931 C38.9660535,40.1621101 37.1478028,37.9587419 34.9388061,38.0005863 C32.7303324,38.0424306 30.9664828,40.3144498 31.0004834,43.0761789 C31.0334379,45.8366005 32.8516886,48.0406225 35.0606854,47.9994319 C37.2696821,47.9569337 39.0330087,45.6849146 38.9995311,42.9244931 Z" id="Stroke-11" stroke="#7EB041" stroke-width="0.376"></path>
                <path d="M20.7273824,17.5593816 C22.7877798,20.8763781 26.4852301,23.0610665 30.6726456,22.9986987 C34.8630893,22.9339089 38.4927076,20.6372007 40.4519626,17.259653 C40.9376883,16.422835 41.3186377,15.5181996 41.5820924,14.5663343 C41.8673503,13.5351468 42.0151271,12.4476467 41.9987748,11.3238158 C41.9787886,10.0249919 41.7401652,8.77945308 41.3240885,7.62050251 L39.3581714,10.2720409 C39.4084398,10.6311097 39.4356937,10.990784 39.4411445,11.3625686 C39.4574969,12.5075924 39.2521839,13.5981201 38.8772909,14.6075091 C38.5078487,15.6023658 37.9670095,16.5124508 37.2856612,17.3074885 C37.1651383,17.4485729 37.0470379,17.5926848 36.9174303,17.726503 C35.3239836,19.3698634 33.1097529,20.4022619 30.6338845,20.4398037 C28.1634668,20.4773455 25.917137,19.5133699 24.273422,17.9184504 C24.1407862,17.7888708 24.0184463,17.6483919 23.8930782,17.5109406 C23.1887155,16.7370959 22.6194111,15.8439652 22.2196867,14.8600077 C21.8139059,13.8633345 21.5758882,12.7794674 21.5583246,11.6344436 C21.5207747,9.16334788 22.485564,6.91992476 24.0814332,5.27535332 C25.6754855,3.63017636 27.8915331,2.59656685 30.3619508,2.55902508 C32.0516947,2.53359357 33.635451,2.97682858 34.9939082,3.76581112 L36.5213398,1.70706926 C34.7243971,0.600192749 32.5979846,-0.0331731307 30.3231896,0.00134107119 C23.9742344,0.100039578 18.9068197,5.32621635 19.0013,11.6731964 C19.0188636,12.7970273 19.1999509,13.8796833 19.5160965,14.9011826 C19.8080164,15.8451763 20.2162198,16.7377014 20.7273824,17.5593816" id="Fill-13" fill="#7EB041"></path>
                <path d="M20.7273824,17.5593816 C22.7877798,20.8763781 26.4852301,23.0610665 30.6726456,22.9986987 C34.8630893,22.9339089 38.4927076,20.6372007 40.4519626,17.259653 C40.9376883,16.422835 41.3186377,15.5181996 41.5820924,14.5663343 C41.8673503,13.5351468 42.0151271,12.4476467 41.9987748,11.3238158 C41.9787886,10.0249919 41.7401652,8.77945308 41.3240885,7.62050251 L39.3581714,10.2720409 C39.4084398,10.6311097 39.4356937,10.990784 39.4411445,11.3625686 C39.4574969,12.5075924 39.2521839,13.5981201 38.8772909,14.6075091 C38.5078487,15.6023658 37.9670095,16.5124508 37.2856612,17.3074885 C37.1651383,17.4485729 37.0470379,17.5926848 36.9174303,17.726503 C35.3239836,19.3698634 33.1097529,20.4022619 30.6338845,20.4398037 C28.1634668,20.4773455 25.917137,19.5133699 24.273422,17.9184504 C24.1407862,17.7888708 24.0184463,17.6483919 23.8930782,17.5109406 C23.1887155,16.7370959 22.6194111,15.8439652 22.2196867,14.8600077 C21.8139059,13.8633345 21.5758882,12.7794674 21.5583246,11.6344436 C21.5207747,9.16334788 22.485564,6.91992476 24.0814332,5.27535332 C25.6754855,3.63017636 27.8915331,2.59656685 30.3619508,2.55902508 C32.0516947,2.53359357 33.635451,2.97682858 34.9939082,3.76581112 L36.5213398,1.70706926 C34.7243971,0.600192749 32.5979846,-0.0331731307 30.3231896,0.00134107119 C23.9742344,0.100039578 18.9068197,5.32621635 19.0013,11.6731964 C19.0188636,12.7970273 19.1999509,13.8796833 19.5160965,14.9011826 C19.8080164,15.8451763 20.2162198,16.7377014 20.7273824,17.5593816 Z" id="Stroke-15" stroke="#7EB041" stroke-width="0.376"></path>
                <path d="M30.314156,12.9133943 L27.4130653,9.42504939 C26.7288625,8.60349526 25.5064829,8.49561441 24.6921519,9.18498487 C23.8736993,9.87376257 23.7653574,11.1025373 24.4513267,11.9246841 L26.9408358,14.9204522 L28.9227866,17.3050931 C28.9863786,17.3809654 29.0605692,17.4426116 29.1335823,17.5066288 C29.4921705,17.8255293 29.9467356,18.0069114 30.4366295,17.9997983 L30.4648926,17.9992056 C30.9394774,17.9855723 31.3804997,17.7899642 31.7226011,17.4669144 C31.8068016,17.3880784 31.8892357,17.3074641 31.9593047,17.2132166 L33.7251604,14.8167207 L38.4244916,8.43871023 L40.0949593,6.17321247 L41.5876049,4.14540823 L41.6182233,4.10332285 C42.2547321,3.23968333 42.0774989,2.02157818 41.2195956,1.38259163 C40.5607118,0.889422054 39.6945652,0.885272791 39.0403919,1.29960637 C38.843139,1.42467702 38.6629616,1.58353453 38.5163467,1.78329192 L37.5506904,3.09268086 L36.0656994,5.10388805 L30.314156,12.9133943 Z" id="Fill-17" fill="#7EB041"></path>
                <path d="M30.314156,12.9133943 L27.4130653,9.42504939 C26.7288625,8.60349526 25.5064829,8.49561441 24.6921519,9.18498487 C23.8736993,9.87376257 23.7653574,11.1025373 24.4513267,11.9246841 L26.9408358,14.9204522 L28.9227866,17.3050931 C28.9863786,17.3809654 29.0605692,17.4426116 29.1335823,17.5066288 C29.4921705,17.8255293 29.9467356,18.0069114 30.4366295,17.9997983 L30.4648926,17.9992056 C30.9394774,17.9855723 31.3804997,17.7899642 31.7226011,17.4669144 C31.8068016,17.3880784 31.8892357,17.3074641 31.9593047,17.2132166 L33.7251604,14.8167207 L38.4244916,8.43871023 L40.0949593,6.17321247 L41.5876049,4.14540823 L41.6182233,4.10332285 C42.2547321,3.23968333 42.0774989,2.02157818 41.2195956,1.38259163 C40.5607118,0.889422054 39.6945652,0.885272791 39.0403919,1.29960637 C38.843139,1.42467702 38.6629616,1.58353453 38.5163467,1.78329192 L37.5506904,3.09268086 L36.0656994,5.10388805 L30.314156,12.9133943 Z" id="Stroke-19" stroke="#7EB041" stroke-width="0.376"></path>
            </g>
        </g>
    </g>
</svg>