<?xml version="1.0" encoding="UTF-8"?>
<svg width="16px" height="16px" viewBox="0 0 16 16" version="1.1" xmlns="http://www.w3.org/2000/svg" xmlns:xlink="http://www.w3.org/1999/xlink">
    <!-- Generator: Sketch 53.2 (72643) - https://sketchapp.com -->
    <title>phone</title>
    <desc>Created with Sketch.</desc>
    <g id="Page-1" stroke="none" stroke-width="1" fill="none" fill-rule="evenodd" stroke-linecap="round" stroke-linejoin="round">
        <g id="Home-" transform="translate(-1236.000000, -8.000000)" stroke="#7FB017">
            <g id="Group-2">
                <g id="phone" transform="translate(1237.000000, 9.000000)">
                    <path d="M13.9216867,10.4440688 L13.9216867,12.5440688 C13.9232867,12.9382704 13.7586202,13.3148797 13.4681412,13.5813742 C13.1776621,13.8478688 12.7882914,13.9795505 12.3956867,13.9440688 C10.2416704,13.7100174 8.17258607,12.97397 6.35468666,11.7950688 C4.66336634,10.7203335 3.22942196,9.28638914 2.15468666,7.59506882 C0.971671299,5.76891161 0.23545676,3.68976501 0.0056866584,1.52606882 C-0.0296820944,1.13467946 0.101077064,0.74644552 0.366022704,0.456203562 C0.630968344,0.165961605 1.00570263,0.000438906427 1.39868666,6.88232601e-05 L3.49868666,6.88232601e-05 C4.2013915,-0.00684728675 4.80033725,0.508246061 4.89868666,1.20406882 C4.98732277,1.87611534 5.15170128,2.53597764 5.38868666,3.17106882 C5.58100116,3.68268134 5.45799721,4.25943321 5.07368666,4.64806882 L4.18468666,5.53706882 C5.18117549,7.2895509 6.63220458,8.74057999 8.38468666,9.73706882 L9.27368666,8.84806882 C9.66232227,8.46375827 10.2390741,8.34075432 10.7506867,8.53306882 C11.3857778,8.7700542 12.0456401,8.93443271 12.7176867,9.02306882 C13.4215805,9.12237104 13.9393197,9.73342363 13.9216867,10.4440688 Z" id="Shape"></path>
                </g>
            </g>
        </g>
    </g>
</svg>