<?xml version="1.0" encoding="UTF-8"?>
<svg width="33px" height="31px" viewBox="0 0 33 31" version="1.1" xmlns="http://www.w3.org/2000/svg" xmlns:xlink="http://www.w3.org/1999/xlink">
    <!-- Generator: Sketch 53.2 (72643) - https://sketchapp.com -->
    <title>Page 1 Copy 2</title>
    <desc>Created with Sketch.</desc>
    <defs>
        <polygon id="path-1" points="32.7480855 11.2602312 32.7480855 22.4901961 0 22.4901961 0 11.2602312 0 0.0302663266 32.7480855 0.0302663266"></polygon>
        <polygon id="path-3" points="0 31 32.8235294 31 32.8235294 0 0 0"></polygon>
    </defs>
    <g id="Page-1" stroke="none" stroke-width="1" fill="none" fill-rule="evenodd">
        <g id="Dishes_form" transform="translate(-796.000000, -410.000000)">
            <g id="Page-1-Copy-2" transform="translate(796.000000, 410.000000)">
                <g id="Group-3" transform="translate(0.000000, 7.901961)">
                    <mask id="mask-2" fill="white">
                        <use xlink:href="#path-1"></use>
                    </mask>
                    <g id="Clip-2"></g>
                    <path d="M31.2694358,2.91058823 C31.2694358,2.1304025 30.6291258,1.49561464 29.8419472,1.49561464 L2.90597089,1.49561464 C2.11887605,1.49561464 1.47848229,2.1304025 1.47848229,2.91058823 L1.47848229,19.6099323 C1.47848229,20.390035 2.11887605,21.0248229 2.90597089,21.0248229 L29.8419472,21.0248229 C30.6291258,21.0248229 31.2694358,20.390035 31.2694358,19.6099323 L31.2694358,2.91058823 Z M0,19.6099323 L0,2.91058823 C0,1.32233224 1.30356303,0.0302663266 2.90597089,0.0302663266 L29.8419472,0.0302663266 C31.4444388,0.0302663266 32.7480855,1.32233224 32.7480855,2.91058823 L32.7480855,19.6099323 C32.7480855,21.1981053 31.4444388,22.4902542 29.8419472,22.4902542 L2.90597089,22.4902542 C1.30356303,22.4902542 0,21.1981053 0,19.6099323 L0,19.6099323 Z" id="Fill-1" fill="#FFFFFF" mask="url(#mask-2)"></path>
                </g>
                <path d="M13.0403168,20.0588674 C13.0403168,19.5717074 12.6439788,19.1753695 12.1567312,19.1753695 C11.6697466,19.1753695 11.2734087,19.5717074 11.2734087,20.0588674 C11.2734087,20.5460273 11.6697466,20.9422776 12.1567312,20.9422776 C12.6439788,20.9422776 13.0403168,20.5460273 13.0403168,20.0588674 M9.7254902,20.0588674 C9.7254902,18.7181913 10.8161428,17.627451 12.1567312,17.627451 C13.4975826,17.627451 14.5882353,18.7181913 14.5882353,20.0588674 C14.5882353,21.3995434 13.4975826,22.4901961 12.1567312,22.4901961 C10.8161428,22.4901961 9.7254902,21.3995434 9.7254902,20.0588674" id="Fill-4" fill="#FFFFFF"></path>
                <path d="M17.9379759,19.754902 C17.9379759,16.7000375 15.344609,14.2147421 12.1567342,14.2147421 C8.96920219,14.2147421 6.37574956,16.7000375 6.37574956,19.754902 C6.37574956,22.8097664 8.96920219,25.2950618 12.1567342,25.2950618 C15.344609,25.2950618 17.9379759,22.8097664 17.9379759,19.754902 M4.8627451,19.754902 C4.8627451,15.9004564 8.13485182,12.7647059 12.1567342,12.7647059 C16.1789594,12.7647059 19.4509804,15.9004564 19.4509804,19.754902 C19.4509804,23.6093475 16.1789594,26.745098 12.1567342,26.745098 C8.13485182,26.745098 4.8627451,23.6093475 4.8627451,19.754902" id="Fill-6" fill="#FFFFFF"></path>
                <mask id="mask-4" fill="white">
                    <use xlink:href="#path-3"></use>
                </mask>
                <g id="Clip-9"></g>
                <polygon id="Fill-8" fill="#FFFFFF" mask="url(#mask-4)" points="24.3137255 13.372549 28.5686275 13.372549 28.5686275 12.1568627 24.3137255 12.1568627"></polygon>
                <path d="M15.4969889,0 L15.503078,0 C15.6692245,0 15.8039216,0.180076269 15.8039216,0.402197171 L15.8039216,3.24486165 C15.8039216,3.46698255 15.6692245,3.64705882 15.503078,3.64705882 L15.4969889,3.64705882 C15.3308424,3.64705882 15.1960784,3.46698255 15.1960784,3.24486165 L15.1960784,0.402197171 C15.1960784,0.180076269 15.3308424,0 15.4969889,0" id="Fill-10" fill="#FFFFFF" mask="url(#mask-4)"></path>
                <path d="M19.3318597,1.32918174 L19.3373792,1.33469656 C19.4888187,1.48592329 19.4888187,1.73116048 19.3375516,1.88247338 L17.0794981,4.14130957 C16.9280585,4.29270863 16.6823573,4.2927948 16.5308315,4.14139574 L16.5253983,4.13588091 C16.3739587,3.98465418 16.3738725,3.73941699 16.5252258,3.58810409 L18.7833656,1.32935408 C18.9348052,1.17786884 19.1804202,1.17778267 19.3318597,1.32918174" id="Fill-11" fill="#FFFFFF" mask="url(#mask-4)"></path>
                <path d="M21.2745098,5.16362176 L21.2745098,5.16971157 C21.2745098,5.33587633 21.094438,5.47058824 20.8723225,5.47058824 L18.0298172,5.47058824 C17.8076123,5.47058824 17.627451,5.33587633 17.627451,5.16971157 L17.627451,5.16362176 C17.627451,4.997457 17.8076123,4.8627451 18.0298172,4.8627451 L20.8723225,4.8627451 C21.094438,4.8627451 21.2745098,4.997457 21.2745098,5.16362176" id="Fill-12" fill="#FFFFFF" mask="url(#mask-4)"></path>
                <path d="M8.71830638,8.19876514 L13.7718897,8.19876514 L13.7718897,6.38947015 L8.71830638,6.38947015 L8.71830638,8.19876514 Z M7.29411765,9.7254902 L15.1960784,9.7254902 L15.1960784,4.8627451 L7.29411765,4.8627451 L7.29411765,9.7254902 Z" id="Fill-13" fill="#FFFFFF" mask="url(#mask-4)"></path>
            </g>
        </g>
    </g>
</svg>