<?xml version="1.0" encoding="UTF-8"?>
<svg width="42px" height="40px" viewBox="0 0 42 40" version="1.1" xmlns="http://www.w3.org/2000/svg" xmlns:xlink="http://www.w3.org/1999/xlink">
    <!-- Generator: Sketch 53.2 (72643) - https://sketchapp.com -->
    <title>Page 1</title>
    <desc>Created with Sketch.</desc>
    <defs>
        <polygon id="path-1" points="0 0 41.9756898 0 41.9756898 40 0 40"></polygon>
    </defs>
    <g id="Page-1" stroke="none" stroke-width="1" fill="none" fill-rule="evenodd">
        <g id="Home-" transform="translate(-1073.000000, -1070.000000)">
            <g id="Page-1" transform="translate(1073.000000, 1070.000000)">
                <mask id="mask-2" fill="white">
                    <use xlink:href="#path-1"></use>
                </mask>
                <g id="Clip-2"></g>
                <path d="M39.9994946,25.1241711 C39.8961872,25.8501949 39.7322229,26.5675944 39.5041684,27.2651733 C39.4535066,27.4200312 39.3975039,27.573149 39.3396701,27.725586 C39.3199852,27.7774827 39.2988507,27.8288498 39.2780977,27.8804439 C39.2676449,27.9043496 39.2250706,28.0064786 39.2184327,28.0214576 C39.0830802,28.3251211 38.9281954,28.6197822 38.7607978,28.9071052 C38.6109486,29.1641677 38.4449244,29.4117738 38.269668,29.6523443 C38.2595204,29.6662641 38.2129787,29.7273146 38.1910049,29.7565916 C38.1597227,29.7957032 38.1283643,29.8348148 38.0966243,29.8733969 C37.9883576,30.0050298 37.8745211,30.1321237 37.7588534,30.2573263 C37.5603262,30.4720242 37.3487521,30.6746935 37.1307689,30.8697977 C37.0210525,30.9679929 36.907979,31.0624811 36.7939899,31.155759 C36.7560698,31.1867003 36.7173868,31.2167338 36.6790089,31.2470699 C36.6914455,31.2357978 36.5316013,31.3574448 36.5070334,31.3752985 C35.9888942,31.7524193 35.434895,32.0794591 34.8662465,32.3756332 C34.5797478,32.5248172 34.2876031,32.6629562 33.9930168,32.7957239 C33.9178633,32.8296156 33.8421758,32.8625995 33.7664119,32.8955833 C33.7563406,32.8998955 33.6636386,32.9390827 33.6273208,32.9546669 C33.4610677,33.0231311 33.2938226,33.0893259 33.1260435,33.1540832 C32.4328768,33.4218125 31.7264344,33.6554232 31.0159481,33.8734497 C29.4598519,34.3509595 27.8773567,34.7408654 26.2958533,35.1250218 C26.2516768,35.1357642 26.2091789,35.1505918 26.1680543,35.1682942 L15.8075592,35.1682942 C15.7665109,35.1505918 15.7240129,35.1357642 15.6798364,35.1250218 C14.0679665,34.7335272 12.4570884,34.3329546 10.8712361,33.8462909 C10.1627336,33.6289453 9.46086895,33.3901147 8.76968606,33.1232176 C8.62998456,33.0692027 8.49119864,33.0128426 8.35264161,32.9560286 C8.3197572,32.9420331 8.21973062,32.9000468 8.20920151,32.8955833 C8.13343767,32.8629021 8.05797902,32.8293886 7.98259667,32.7957239 C7.66328986,32.6534998 7.34894241,32.5003819 7.03909654,32.3390181 C6.47136369,32.0432979 5.92514685,31.7075582 5.40815212,31.3313452 C5.39541037,31.3220401 5.3390262,31.2792972 5.30766775,31.2557697 C5.2655513,31.2225589 5.22343484,31.1893481 5.18169988,31.155759 C5.0669478,31.0633133 4.95532394,30.9671607 4.84492084,30.8697977 C4.60702392,30.6601685 4.38225023,30.4363168 4.16731898,30.2037653 C4.06805538,30.0964164 3.97283557,29.9855118 3.87906542,29.8733969 C3.85106408,29.8398834 3.82397832,29.8055378 3.79658737,29.7714192 C3.79200949,29.7642323 3.71914497,29.6701223 3.70602173,29.6523443 C3.51359837,29.3929366 3.33933391,29.1206683 3.17689563,28.8419696 C3.02208714,28.5762828 2.88459828,28.3009884 2.75725704,28.0214576 C2.75206879,28.0099586 2.72498302,27.9462603 2.70812118,27.9068461 C2.68355325,27.8466278 2.6595957,27.7861826 2.63594335,27.725586 C2.56697002,27.5478816 2.50501611,27.3675293 2.44580892,27.1864962 C2.04287958,25.9543664 1.89287786,24.8527349 1.84770949,23.6296076 L40.1216475,23.6296076 C40.0966981,24.1860216 40.0533609,24.7458399 39.9994946,25.1241711 M25.6195485,38.2020517 C25.6225691,38.1968517 25.6249855,38.1928517 25.628006,38.1870517 C25.6572047,38.1802517 25.6966732,38.1678517 25.7518485,38.1464517 C25.6817718,38.1736517 25.6425047,38.1910517 25.6195485,38.2020517 M25.5981088,38.1570429 C25.5977273,38.1580263 25.5974984,38.1589341 25.5975747,38.1597663 C25.5972695,38.1610524 25.5969643,38.1624141 25.5967354,38.1636245 C25.5871219,38.1617332 25.5709467,38.1602202 25.5435558,38.1602202 L16.3594221,38.1602202 C16.3582013,38.1602202 16.358125,38.1604472 16.3572857,38.1605228 C16.3559124,38.1601445 16.3546916,38.1598419 16.3533182,38.1594637 C16.3497322,38.1469056 16.3455358,38.1322293 16.3404239,38.1136948 C16.3706379,38.222708 16.3520212,37.9106472 16.3520212,37.8641974 L16.3520212,36.983921 L25.6236686,36.983921 L25.6236686,38.1381301 C25.6233634,38.1381301 25.6231345,38.1382814 25.6229056,38.1382814 C25.6194722,38.0952359 25.6052045,38.1264798 25.5981088,38.1570429 M32.9142404,15.9463289 C34.4698788,14.4125025 36.0256698,12.8787518 37.5813845,11.3449254 C37.9866027,10.9454119 38.391821,10.5458983 38.7971156,10.1463848 C38.8283214,10.1155191 38.9484907,9.99001391 38.9420816,9.99462862 C38.9646658,9.97843928 38.9811462,9.96784813 38.9951087,9.9593752 C39.0196003,9.95725697 39.0379881,9.95627351 39.051264,9.95604655 C39.1118445,9.98471833 39.1026125,9.992813 39.1649479,10.0545443 L39.7567146,10.6414457 C39.7899805,10.6742783 39.8230938,10.7072621 39.8563597,10.7401704 C39.9104549,10.7999348 39.9160246,10.8224031 39.8532314,10.8842858 C39.8258405,10.9112932 39.7982969,10.9383007 39.7708297,10.9653838 C39.6225065,11.1115417 39.4741071,11.257624 39.3257839,11.403782 C38.732949,11.9875816 38.1401904,12.5713057 37.5474319,13.1551053 C35.8222595,14.8540024 34.0971634,16.5529752 32.3719911,18.251948 C31.1919674,19.4141005 30.01202,20.5762529 28.83192,21.7383297 L27.0394529,21.7383297 C28.9977154,19.8076376 30.9559779,17.8769454 32.9142404,15.9463289 M39.0632156,9.94356412 C39.0676458,9.94556412 39.0708677,9.94716412 39.0750964,9.94896412 C39.0587855,9.95836412 39.0336142,9.96956412 38.9993814,9.97856412 C39.026969,9.96216412 39.0485156,9.95036412 39.0632156,9.94356412 M39.0362816,9.95436271 C39.0322542,9.95276271 39.0278241,9.95116271 39.0237967,9.94936271 C39.0598419,9.93316271 39.0610501,9.93976271 39.0362816,9.95436271 M39.0665235,9.9559709 C39.1188797,9.9569709 39.1088112,9.9625709 39.0665235,9.9559709 M41.060112,21.8139808 L31.3536427,21.8139808 C31.9227489,21.2534061 32.4920077,20.6929069 33.0611902,20.1323322 L41.1480835,12.1680852 C41.8691752,11.4579482 41.8571201,10.3908135 41.2872509,9.62265208 C41.2502464,9.56576244 41.2053832,9.51008322 41.1512117,9.45629528 C40.79223,9.10035677 40.4508731,8.72187424 40.0376435,8.42683488 C39.3181541,7.91339075 38.2418956,8.1332329 37.6478399,8.7189995 C37.3710311,8.99194872 37.0941459,9.2648223 36.817337,9.53777153 C35.3869799,10.9479083 33.956699,12.3581208 32.5264181,13.7683333 C29.8060919,16.450241 27.0859183,19.1321487 24.3656684,21.8139808 L0.915577753,21.8139808 C0.417352308,21.8139808 -0.00121810322,22.2268846 2.6635695e-06,22.7217942 C0.00732726428,25.7700803 0.627934579,28.8191986 2.63121287,31.2133295 C4.39544977,33.3217261 7.04413221,34.4930323 9.60324088,35.3472847 C11.2166368,35.8859207 12.8681816,36.3077513 14.520871,36.7121065 L14.520871,37.3417508 C14.520871,37.9480945 14.4784493,38.5172178 14.7708993,39.0767335 C15.2792723,40.0493799 16.3650681,39.975847 17.2872811,39.975847 L24.103051,39.975847 C24.8909796,39.975847 25.9367953,40.1261658 26.6264522,39.6767981 C27.4004947,39.1725834 27.4548188,38.3743129 27.4548188,37.5551626 L27.4548188,36.7124091 C30.2732641,36.0261779 33.1287139,35.2959933 35.7197151,33.9797395 C38.166208,32.736943 40.0625166,30.8310644 41.0762872,28.2830591 C41.773345,26.5313575 41.9711855,24.590982 41.9756871,22.7217942 C41.9769079,22.2268846 41.5583374,21.8139808 41.060112,21.8139808 M15.3107834,31.4594982 C14.5514664,31.3441302 13.8011527,31.1269359 13.0731942,30.889694 C11.5057296,30.378822 9.96374857,29.6301029 8.64265001,28.5665238 C8.25559065,28.2549169 7.72783791,28.1897056 7.34779795,28.5665238 C7.0223873,28.8892515 6.959823,29.5380355 7.34779795,29.8503989 C8.83568376,31.0481831 10.5149248,31.9205918 12.319447,32.5503873 C13.1286628,32.8327929 13.9737386,33.0810799 14.8240026,33.210292 C15.3168872,33.2851866 15.806491,33.0943945 15.9502363,32.57626 C16.070787,32.14172 15.8048124,31.5346198 15.3107834,31.4594982 M5.87349316,25.3669355 C5.6403267,24.9300503 5.0374968,24.7992495 4.62083384,25.0412575 C4.17700882,25.2990008 4.05889963,25.8458827 4.29229498,26.2832975 C4.54377294,26.7545283 4.77976242,27.2326434 5.09510174,27.6663512 C5.38640721,28.0667726 5.88608232,28.2602125 6.34783735,27.9919536 C6.74740958,27.7599316 6.96874986,27.1521506 6.67629992,26.7499136 C6.3608843,26.3162814 6.12489482,25.8381663 5.87349316,25.3669355 M24.7939287,7.0355352 C24.8839602,7.15544222 24.9658279,7.28034221 25.0409051,7.40993257 C25.0502897,7.42619756 25.0901172,7.51145637 25.1044612,7.53846382 C25.1223912,7.59073874 25.1384901,7.64377018 25.1532919,7.69710421 C25.1629054,7.73477847 25.1700011,7.77298228 25.1773257,7.81111045 C25.1597009,7.74302444 25.1843451,7.97307949 25.184574,7.98578887 C25.1888467,8.19965458 25.1806828,8.2013189 25.1117095,8.43515651 C25.0906513,8.50657116 25.0385398,8.62193911 24.9385895,8.79487757 C24.8495499,8.94897889 24.7453269,9.09468294 24.6423247,9.23978178 C24.157604,9.92268441 23.7992326,10.563525 23.7037076,11.4091532 C23.60803,12.2561431 23.9827291,13.0087204 24.5065907,13.6426768 C24.5876954,13.7407963 24.673912,13.8348306 24.7583738,13.9298484 C24.8092646,13.987192 24.8592397,14.0453677 24.9086807,14.1039216 C24.9121142,14.1080824 24.9143268,14.1105789 24.9173787,14.1142102 C24.9247033,14.1254065 24.9357665,14.1416715 24.9530098,14.1659555 C24.9987123,14.2306372 25.0379294,14.2991772 25.0767651,14.367944 C25.0863786,14.3850412 25.0937795,14.3975236 25.1001885,14.4080391 C25.104156,14.4204459 25.1091154,14.4350466 25.1162111,14.4547159 C25.1465014,14.5393695 25.1645077,14.62773 25.1826666,14.7154853 C25.148714,14.5512467 25.1846503,14.8810099 25.184574,14.8766978 C25.2093709,16.0458101 27.0405973,16.048231 27.0157242,14.8766978 C26.9980994,14.0446112 26.6839808,13.3891699 26.1539392,12.7614169 C26.0717663,12.6641296 25.9854734,12.5700952 25.9011641,12.4745479 C25.8677457,12.4367223 25.8355479,12.3978376 25.8031976,12.3592556 C25.8216617,12.3781684 25.7267471,12.2553109 25.713929,12.2362469 C25.6802054,12.1863928 25.6511358,12.1339666 25.622753,12.0810864 C25.6596049,12.1457681 25.5763639,11.9674584 25.5683526,11.9420397 C25.5657585,11.933718 25.5322637,11.7496589 25.5302036,11.7722786 C25.5240998,11.6860363 25.5260073,11.5991888 25.5279147,11.5129465 C25.533103,11.2777472 25.6134447,11.0898298 25.7716103,10.8171832 C25.9498422,10.5096614 26.1760656,10.2305088 26.3761187,9.93705812 C26.8809821,9.1967363 27.0949978,8.35103246 26.9663595,7.46568745 C26.8699952,6.80275671 26.4988821,6.27743536 26.099081,5.76043563 C25.9332856,5.54596471 25.7837416,5.32339913 25.6623516,5.08184511 C25.6728808,5.09281452 25.6068068,4.928349 25.6031445,4.91700133 C25.574609,4.82690085 25.5562975,4.73400128 25.5379097,4.64147996 C25.5680474,4.79300915 25.5266176,4.44970438 25.5273806,4.46574242 C25.521582,4.35287095 25.5273043,4.23969688 25.533103,4.12690107 C25.5384438,4.02182166 25.5546953,3.95925819 25.6031445,3.78299109 C25.6056623,3.77398861 25.6624279,3.62215682 25.660902,3.61474301 C25.6877589,3.55959334 25.7165232,3.50527584 25.7462031,3.4516392 C25.8088437,3.33801122 25.8827763,3.23066229 25.9592269,3.12558289 C25.9718923,3.10939355 26.0368982,3.02307562 26.0489532,3.00802105 C26.0949609,2.95075316 26.1411974,2.89378786 26.1870525,2.83651997 C26.6594892,2.24666821 26.9979468,1.65250434 27.0158005,0.877685607 C27.04281,-0.293847585 25.2115835,-0.291275447 25.1846503,0.877685607 C25.1846503,0.903104382 25.1822088,0.928447506 25.1811406,0.953866282 C25.1788517,0.934423945 25.1616847,1.06651079 25.1532919,1.09798166 C25.1481036,1.1175753 25.1252143,1.17355712 25.111328,1.20775143 C25.0888964,1.24981345 25.0652441,1.29119461 25.0409051,1.33204621 C24.9900906,1.41753198 24.9311886,1.49810041 24.8714474,1.57776104 C24.8883092,1.55226661 24.6965725,1.79624147 24.661094,1.84087562 C24.1318916,2.50781587 23.8153315,3.17036835 23.7111085,4.0205356 C23.611616,4.83234773 23.8456981,5.68410365 24.2908965,6.36428284 C24.4438738,6.59804479 24.626531,6.8120618 24.7939287,7.0355352 M20.2711403,7.0355352 C20.3610956,7.15544222 20.4429633,7.28034221 20.5180404,7.40993257 C20.5275014,7.42619756 20.5672526,7.51145637 20.5816729,7.53846382 C20.5995266,7.59073874 20.6156255,7.64377018 20.6304273,7.69710421 C20.6400408,7.73477847 20.6470602,7.77298228 20.6545374,7.81111045 C20.6368363,7.74302444 20.6614805,7.97307949 20.6617857,7.98578887 C20.6659821,8.19965458 20.6578182,8.2013189 20.5888449,8.43515651 C20.5677867,8.50657116 20.5156752,8.62193911 20.4157249,8.79487757 C20.3266089,8.94897889 20.2225385,9.09468294 20.1194601,9.23978178 C19.6348156,9.92268441 19.276368,10.563525 19.1809193,11.4091532 C19.0851654,12.2561431 19.4598645,13.0087204 19.9838023,13.6426768 C20.064907,13.7407963 20.1510474,13.8348306 20.2355855,13.9298484 C20.2864762,13.987192 20.3362988,14.0453677 20.3858161,14.1039216 C20.3893258,14.1080824 20.3914622,14.1106546 20.3945904,14.1142858 C20.401915,14.1254065 20.4129782,14.1416715 20.4301452,14.1659555 C20.4758477,14.2306372 20.5150648,14.2991772 20.5539004,14.367944 C20.563514,14.3849655 20.5708386,14.397448 20.5772476,14.4078878 C20.5812914,14.4203702 20.5862508,14.4349709 20.5932702,14.4547159 C20.6236367,14.5393695 20.641643,14.62773 20.6597257,14.7154853 C20.6259257,14.5512467 20.6617857,14.8810099 20.6617094,14.8766978 C20.6865062,16.0458101 22.5177327,16.048231 22.4929359,14.8766978 C22.4751585,14.0446112 22.1610399,13.3891699 21.6310745,12.7614169 C21.5489017,12.6641296 21.4626087,12.5700952 21.3782995,12.4745479 C21.344881,12.4367223 21.3127596,12.3978376 21.280333,12.3592556 C21.2987971,12.3781684 21.2038824,12.2553109 21.1910644,12.2362469 C21.157417,12.1863928 21.1283475,12.1339666 21.0999647,12.0810864 C21.1367403,12.1457681 21.0535755,11.9674584 21.045488,11.9420397 C21.0428938,11.933718 21.009399,11.7496589 21.0074153,11.7722786 C21.0013115,11.6860363 21.0030663,11.5991888 21.0050501,11.5129465 C21.0102383,11.2777472 21.09058,11.0898298 21.2486693,10.8171832 C21.4270539,10.5096614 21.6532009,10.2305088 21.8532541,9.93705812 C22.3581174,9.1967363 22.5721331,8.35103246 22.4434185,7.46568745 C22.3471305,6.80275671 21.9759411,6.27743536 21.5762163,5.76043563 C21.4104209,5.54596471 21.2608007,5.32339913 21.1395633,5.08184511 C21.1500161,5.09281452 21.0839421,4.928349 21.0803561,4.91700133 C21.0517444,4.82690085 21.0334329,4.73400128 21.0151214,4.64147996 C21.0451828,4.79300915 21.003753,4.44970438 21.004516,4.46574242 C20.9987936,4.35287095 21.0044397,4.23969688 21.010162,4.12690107 C21.0155792,4.02182166 21.0317543,3.95925819 21.0803561,3.78299109 C21.0827976,3.77398861 21.1395633,3.62215682 21.1380373,3.61474301 C21.1649705,3.55959334 21.1937348,3.50527584 21.2232621,3.4516392 C21.2859027,3.33801122 21.3599117,3.23066229 21.4364385,3.12558289 C21.449104,3.10939355 21.5140335,3.02307562 21.5261649,3.00802105 C21.5720199,2.95075316 21.6183328,2.89378786 21.6641878,2.83651997 C22.1366246,2.24666821 22.4750822,1.65250434 22.4929359,0.877685607 C22.519869,-0.293847585 20.6886426,-0.291275447 20.6617857,0.877685607 C20.6617857,0.903104382 20.6593442,0.928447506 20.658276,0.953790631 C20.6559108,0.934575247 20.63882,1.06651079 20.6304273,1.09798166 C20.625239,1.1175753 20.6022733,1.17363278 20.5884634,1.20775143 C20.5660318,1.24981345 20.5423031,1.29119461 20.5180404,1.33204621 C20.4673023,1.41745632 20.408324,1.49802476 20.3485827,1.57760974 C20.3649105,1.55294747 20.1736316,1.79631712 20.1383056,1.84087562 C19.6090269,2.50789152 19.2924669,3.17036835 19.1882439,4.0205356 C19.0887514,4.83234773 19.3228334,5.68410365 19.7680318,6.36428284 C19.9210092,6.59804479 20.1036664,6.8120618 20.2711403,7.0355352 M15.9445902,7.0355352 C16.0344692,7.15544222 16.1164132,7.28034221 16.1914903,7.40993257 C16.200875,7.42619756 16.2406262,7.51138072 16.2550465,7.53838817 C16.2729765,7.59073874 16.2890754,7.64377018 16.3038772,7.69710421 C16.3134907,7.73477847 16.3205101,7.77298228 16.3279873,7.81111045 C16.3102862,7.74302444 16.3349304,7.97307949 16.3352356,7.98578887 C16.339432,8.19965458 16.3312681,8.2013189 16.2622948,8.43515651 C16.2412366,8.50657116 16.1891251,8.62193911 16.0891748,8.79487757 C16.0000588,8.94905454 15.8959122,9.09468294 15.79291,9.23978178 C15.3081893,9.92268441 14.9498179,10.563525 14.8542929,11.4091532 C14.758539,12.2561431 15.1332381,13.0087204 15.6572523,13.6426768 C15.7382807,13.7407963 15.8244973,13.8348306 15.9089591,13.9298484 C15.9599261,13.987192 16.0097487,14.0453677 16.0591897,14.1039216 C16.0626994,14.1081581 16.0649884,14.1107302 16.0681929,14.1144371 C16.0754412,14.1256335 16.0865044,14.1418228 16.1035951,14.1659555 C16.1492976,14.2306372 16.1885147,14.2991772 16.2273504,14.367944 C16.2370402,14.3850412 16.2443648,14.3975236 16.2507738,14.4080391 C16.2548176,14.4204459 16.2597007,14.4350466 16.2667964,14.4547159 C16.2970867,14.5393695 16.3151693,14.62773 16.3331756,14.7154853 C16.2993756,14.5512467 16.3353119,14.8810099 16.3352356,14.8766978 C16.3600324,16.0458101 18.1912589,16.048231 18.1663858,14.8766978 C18.1486847,14.0446112 17.8344898,13.3891699 17.3045244,12.7614169 C17.2223516,12.6641296 17.1360586,12.5700952 17.0516731,12.4745479 C17.0182546,12.4367223 16.9861332,12.3978376 16.9536303,12.3591799 C16.9723996,12.3783953 16.8773324,12.2553109 16.864438,12.2362469 C16.8307906,12.1863171 16.8016448,12.1338909 16.773262,12.0810108 C16.8102665,12.1459951 16.7269492,11.9674584 16.7189379,11.9420397 C16.7162674,11.933718 16.6827727,11.7496589 16.6807889,11.7722786 C16.6746851,11.6860363 16.6764399,11.5991888 16.6784237,11.5129465 C16.6836119,11.2777472 16.7639537,11.0898298 16.9221192,10.8171832 C17.1004275,10.5096614 17.3265745,10.2305088 17.526704,9.93705812 C18.0315674,9.1967363 18.245583,8.35103246 18.1169447,7.46568745 C18.0205805,6.80275671 17.6494674,6.27743536 17.2496662,5.76043563 C17.0837945,5.54596471 16.9342506,5.32339913 16.8128606,5.08184511 C16.8233134,5.09266322 16.7573157,4.928349 16.7537297,4.91700133 C16.7251943,4.82690085 16.7068065,4.73400128 16.688495,4.64147996 C16.7185564,4.79300915 16.6771266,4.44970438 16.6778896,4.46574242 C16.6721672,4.35287095 16.6778133,4.23969688 16.6836119,4.12690107 C16.6889528,4.02182166 16.7052042,3.95925819 16.7537297,3.78299109 C16.7561713,3.77398861 16.8128606,3.62230812 16.811411,3.61474301 C16.8383441,3.55959334 16.8670321,3.50527584 16.896712,3.4516392 C16.9593526,3.33801122 17.0333616,3.23066229 17.1098121,3.12558289 C17.1224776,3.10939355 17.1874834,3.02307562 17.1995385,3.00802105 C17.2454698,2.95075316 17.2917064,2.89378786 17.3375614,2.83651997 C17.8100745,2.24674386 18.1485321,1.65250434 18.1663858,0.877685607 C18.193319,-0.293847585 16.3620925,-0.291275447 16.3352356,0.877685607 C16.3352356,0.903104382 16.3327941,0.928447506 16.3317259,0.953866282 C16.3293607,0.934423945 16.3121936,1.06651079 16.3038772,1.09798166 C16.2986889,1.1175753 16.2756469,1.17378408 16.261837,1.20790273 C16.2394054,1.2498891 16.2157531,1.29119461 16.1914903,1.33204621 C16.1406759,1.41753198 16.0816976,1.49817607 16.02188,1.57783669 C16.039276,1.55173706 15.8470815,1.79616581 15.8116793,1.84087562 C15.2824006,2.50781587 14.9658405,3.17036835 14.8616175,4.0205356 C14.762125,4.83234773 14.9962833,5.6841793 15.4414054,6.36428284 C15.5943828,6.59804479 15.77704,6.8120618 15.9445902,7.0355352" id="Fill-1" stroke="#84B320" fill="#84B320" mask="url(#mask-2)"></path>
            </g>
        </g>
    </g>
</svg>