<?xml version="1.0" encoding="UTF-8"?>
<svg width="33px" height="26px" viewBox="0 0 33 26" version="1.1" xmlns="http://www.w3.org/2000/svg" xmlns:xlink="http://www.w3.org/1999/xlink">
    <!-- Generator: Sketch 53.2 (72643) - https://sketchapp.com -->
    <title>Page 1</title>
    <desc>Created with Sketch.</desc>
    <g id="Page-1" stroke="none" stroke-width="1" fill="none" fill-rule="evenodd">
        <g id="-_Today’s-Orders-Copy" transform="translate(-441.000000, -487.000000)" fill="#7FB017">
            <g id="Page-1" transform="translate(441.000000, 487.000000)">
                <path d="M2.79347956,19.6265502 C3.39406379,12.5499297 9.31021149,6.97613736 16.4959545,6.97613736 C23.6814663,6.97613736 29.5978452,12.5499297 30.1981983,19.6265502 L2.79347956,19.6265502 Z M32.5610048,19.8963662 C32.1414281,12.4092067 26.6663561,6.26787055 19.5122836,4.89762431 C19.535632,4.80411913 19.5520452,4.70805536 19.5520452,4.60733959 C19.5520452,3.95164036 19.0235865,3.4206147 18.3726068,3.4206147 L17.6751616,3.4206147 L17.6751616,2.37321717 L18.3726068,2.37321717 C19.0235865,2.37321717 19.5520452,1.84219151 19.5520452,1.18672489 C19.5520452,0.53102566 19.0235865,0 18.3726068,0 L14.6193021,0 C13.9680913,0 13.4398638,0.53102566 13.4398638,1.18672489 C13.4398638,1.84219151 13.9680913,2.37321717 14.6193021,2.37321717 L15.3165162,2.37321717 L15.3165162,3.4206147 L14.6193021,3.4206147 C13.9680913,3.4206147 13.4398638,3.95164036 13.4398638,4.60733959 C13.4398638,4.70805536 13.4560458,4.80411913 13.4796254,4.89762431 C6.32324117,6.26833575 0.846782159,12.4129283 0.430441818,19.9035768 C0.169680072,20.1212903 0,20.4455346 0,20.8135077 C0,21.4689743 0.528227473,22 1.17943832,22 L1.56410813,22 L31.4275697,22 L31.8207928,22 C32.4717725,22 33,21.4689743 33,20.8135077 C33,20.4415804 32.8268524,20.1138471 32.5610048,19.8963662 L32.5610048,19.8963662 Z" id="Fill-1"></path>
                <path d="M31.8205699,24 L1.17943006,24 C0.526605582,24 0,24.4466876 0,25.000196 C0,25.5533124 0.526605582,26 1.17943006,26 L31.8205699,26 C32.4731632,26 33,25.5533124 33,25.000196 C33,24.4466876 32.4731632,24 31.8205699,24" id="Fill-3"></path>
                <path d="M16.7876024,9 C15.8254311,9 14.8663491,9.08087336 13.9364957,9.24069869 C13.2846716,9.35283843 12.879747,9.83196507 13.032069,10.3110917 C13.1630041,10.7222707 13.6610804,11 14.211911,11 C14.3026864,11 14.3960757,10.9921397 14.4889897,10.9760699 C15.2372924,10.8476856 16.010784,10.7823581 16.7876024,10.7823581 C17.4567736,10.7823581 18,10.3834061 18,9.89117904 C18,9.39877729 17.4567736,9 16.7876024,9" id="Fill-5"></path>
                <path d="M9.47048053,10.7079211 C8.94019579,11.1412932 8.84384526,11.9455534 9.25470293,12.5041441 C9.49403288,12.8296123 9.85302779,13 10.2148775,13 C10.4746671,13 10.7363599,12.9126731 10.9576092,12.731746 C11.1250926,12.5949841 11.2951929,12.4637429 11.4705271,12.3377714 C12.0236505,11.9395308 12.1666299,11.1425478 11.7888407,10.5586123 C11.4103377,9.97392387 10.6549972,9.82511691 10.1018738,10.2223537 C9.88680995,10.3774341 9.67579041,10.5395409 9.47048053,10.7079211 Z" id="Fill-7"></path>
            </g>
        </g>
    </g>
</svg>