<?xml version="1.0" encoding="UTF-8"?>
<svg width="180px" height="52px" viewBox="0 0 180 52" version="1.1" xmlns="http://www.w3.org/2000/svg" xmlns:xlink="http://www.w3.org/1999/xlink">
    <!-- Generator: Sketch 53.2 (72643) - https://sketchapp.com -->
    <title>Button - Play Store</title>
    <desc>Created with Sketch.</desc>
    <defs>
        <linearGradient x1="19.2147947%" y1="1.83910089%" x2="69.3023416%" y2="74.6223446%" id="linearGradient-1">
            <stop stop-color="#19A3B4" offset="0%"></stop>
            <stop stop-color="#5BC3AF" offset="34.816763%"></stop>
            <stop stop-color="#C8F7A6" offset="92.2336229%"></stop>
            <stop stop-color="#D7FEA5" offset="100%"></stop>
        </linearGradient>
        <path d="M16.7429608,8.1353404 L2.15547882,0.243259753 C1.74185804,0.020597062 1.36036979,-0.0312006034 1.05135063,0.0636496669 L12.9998637,11.8190289 L16.7429608,8.1353404" id="path-2"></path>
        <linearGradient x1="-14.698314%" y1="-49.3262037%" x2="74.8444046%" y2="88.780083%" id="linearGradient-4">
            <stop stop-color="#FC227C" offset="0%"></stop>
            <stop stop-color="#FEEB7B" offset="100%"></stop>
        </linearGradient>
        <linearGradient x1="43.6570416%" y1="-14.8137139%" x2="49.4739219%" y2="82.8944571%" id="linearGradient-5">
            <stop stop-color="#0E4DA0" offset="0%"></stop>
            <stop stop-color="#6BFED4" offset="100%"></stop>
        </linearGradient>
        <path d="M1.05066695,0.0636496669 C0.606964662,0.200207148 0.319822964,0.642169046 0.319822964,1.31082982 L0.322557646,22.3554813 C0.322557646,23.0167424 0.600811626,23.4519773 1.03152417,23.5972799 L12.9998637,11.821047 L1.05066695,0.0636496669" id="path-6"></path>
        <linearGradient x1="132.244588%" y1="31.0354243%" x2="5.95853392%" y2="93.1556758%" id="linearGradient-8">
            <stop stop-color="#FC472E" offset="0%"></stop>
            <stop stop-color="#FC472F" offset="0.331892433%"></stop>
            <stop stop-color="#893CD8" offset="100%"></stop>
        </linearGradient>
        <path d="M1.03152417,23.5972799 C1.34259435,23.7008752 1.73160298,23.652441 2.15547882,23.4237241 L16.7600526,15.5208802 L12.9998637,11.821047 L1.03152417,23.5972799" id="path-9"></path>
    </defs>
    <g id="Page-1" stroke="none" stroke-width="1" fill="none" fill-rule="evenodd">
        <g id="Home-" transform="translate(-830.000000, -3917.000000)">
            <g id="Button---Play-Store" transform="translate(830.000000, 3917.000000)">
                <rect id="Button" fill="#2B2D32" x="0" y="0" width="180" height="52" rx="19.2000003"></rect>
                <g id="Icon---Google-Play" transform="translate(16.022727, 14.181818)">
                    <mask id="mask-3" fill="white">
                        <use xlink:href="#path-2"></use>
                    </mask>
                    <use id="Fill-1" fill="url(#linearGradient-1)" xlink:href="#path-2"></use>
                    <path d="M16.7621036,15.5208802 L21.741961,12.826729 C22.7517427,12.2784809 22.7517427,11.3864848 21.741961,10.8395822 L16.7436445,8.1353404 L12.9998637,11.8190289 L16.7621036,15.5208802" id="Fill-2" fill="url(#linearGradient-4)"></path>
                    <mask id="mask-7" fill="white">
                        <use xlink:href="#path-6"></use>
                    </mask>
                    <use id="Fill-3" fill="url(#linearGradient-5)" xlink:href="#path-6"></use>
                    <mask id="mask-10" fill="white">
                        <use xlink:href="#path-9"></use>
                    </mask>
                    <use id="Fill-4" fill="url(#linearGradient-8)" xlink:href="#path-9"></use>
                </g>
                <path d="M55.0172728,23.1960521 C57.2754546,23.1960521 58.6936365,21.5968832 58.6936365,19.5979221 C58.6936365,17.6205715 57.2754546,15.988987 55.0172728,15.988987 L52.6936364,15.988987 L52.6936364,23.1960521 L55.0172728,23.1960521 Z M55.0172728,22.6341819 L53.3154546,22.6341819 L53.3154546,16.5508572 L55.0172728,16.5508572 C56.9481819,16.5508572 58.039091,17.9123117 58.039091,19.5979221 C58.039091,21.2835325 56.9372728,22.6341819 55.0172728,22.6341819 L55.0172728,22.6341819 Z M63.5045456,23.3257144 C65.6318184,23.3257144 67.0390911,21.7049352 67.0390911,19.5979221 C67.0390911,17.4909091 65.6318184,15.8701299 63.5045456,15.8701299 C61.3663638,15.8701299 59.9700001,17.4909091 59.9700001,19.5979221 C59.9700001,21.7049352 61.3663638,23.3257144 63.5045456,23.3257144 L63.5045456,23.3257144 Z M63.5045456,22.7638443 C61.748182,22.7638443 60.6245456,21.4131949 60.6245456,19.5979221 C60.6245456,17.7718442 61.748182,16.432 63.5045456,16.432 C65.2500002,16.432 66.3845457,17.7718442 66.3845457,19.5979221 C66.3845457,21.4131949 65.2500002,22.7638443 63.5045456,22.7638443 L63.5045456,22.7638443 Z M74.8500003,23.1960521 L76.9227276,15.988987 L76.2245458,15.988987 L74.4681822,22.3316365 L72.6900003,15.988987 L72.1227276,15.988987 L70.3336366,22.3316365 L68.577273,15.988987 L67.8790911,15.988987 L69.9627275,23.1960521 L70.6609094,23.1960521 L72.4063639,17.0046753 L74.1518185,23.1960521 L74.8500003,23.1960521 Z M83.8500005,23.1960521 L83.8500005,15.988987 L83.2281823,15.988987 L83.2281823,22.0939222 L78.6681822,15.988987 L78.0354549,15.988987 L78.0354549,23.1960521 L78.6572731,23.1960521 L78.6572731,17.0046753 L83.2390914,23.1960521 L83.8500005,23.1960521 Z M89.664546,23.1960521 L89.664546,22.6341819 L86.1409096,22.6341819 L86.1409096,15.988987 L85.5081823,15.988987 L85.5081823,23.1960521 L89.664546,23.1960521 Z M94.2027279,23.3257144 C96.3300007,23.3257144 97.7372734,21.7049352 97.7372734,19.5979221 C97.7372734,17.4909091 96.3300007,15.8701299 94.2027279,15.8701299 C92.064546,15.8701299 90.6681824,17.4909091 90.6681824,19.5979221 C90.6681824,21.7049352 92.064546,23.3257144 94.2027279,23.3257144 L94.2027279,23.3257144 Z M94.2027279,22.7638443 C92.4463642,22.7638443 91.3227279,21.4131949 91.3227279,19.5979221 C91.3227279,17.7718442 92.4463642,16.432 94.2027279,16.432 C95.9481825,16.432 97.0827279,17.7718442 97.0827279,19.5979221 C97.0827279,21.4131949 95.9481825,22.7638443 94.2027279,22.7638443 L94.2027279,22.7638443 Z M105.264546,23.1960521 L102.286364,15.988987 L101.511819,15.988987 L98.5336371,23.1960521 L99.2536371,23.1960521 L99.9736371,21.4240001 L103.824546,21.4240001 L104.544546,23.1960521 L105.264546,23.1960521 Z M103.617273,20.8621299 L100.18091,20.8621299 L101.904546,16.6481039 L103.617273,20.8621299 Z M108.657274,23.1960521 C110.915455,23.1960521 112.333637,21.5968832 112.333637,19.5979221 C112.333637,17.6205715 110.915455,15.988987 108.657274,15.988987 L106.333637,15.988987 L106.333637,23.1960521 L108.657274,23.1960521 Z M108.657274,22.6341819 L106.955455,22.6341819 L106.955455,16.5508572 L108.657274,16.5508572 C110.588183,16.5508572 111.679092,17.9123117 111.679092,19.5979221 C111.679092,21.2835325 110.577274,22.6341819 108.657274,22.6341819 L108.657274,22.6341819 Z M117.330001,23.1960521 L117.330001,19.7816104 L121.246365,19.7816104 L121.246365,19.2197403 L117.330001,19.2197403 L117.330001,16.5508572 L121.322728,16.5508572 L121.322728,15.988987 L116.708183,15.988987 L116.708183,23.1960521 L117.330001,23.1960521 Z M127.639092,23.1960521 L125.533637,20.1705975 C126.624547,20.1273767 127.551819,19.4034286 127.551819,18.096 C127.551819,16.7777662 126.591819,15.988987 125.337274,15.988987 L122.62091,15.988987 L122.62091,23.1960521 L123.242728,23.1960521 L123.242728,20.2138182 L124.846365,20.2138182 L126.886365,23.1960521 L127.639092,23.1960521 Z M125.282728,19.6519481 L123.242728,19.6519481 L123.242728,16.5508572 L125.282728,16.5508572 C126.253637,16.5508572 126.897274,17.1883637 126.897274,18.096 C126.897274,19.0036364 126.253637,19.6519481 125.282728,19.6519481 L125.282728,19.6519481 Z M132.362728,23.3257144 C134.490001,23.3257144 135.897274,21.7049352 135.897274,19.5979221 C135.897274,17.4909091 134.490001,15.8701299 132.362728,15.8701299 C130.224547,15.8701299 128.828183,17.4909091 128.828183,19.5979221 C128.828183,21.7049352 130.224547,23.3257144 132.362728,23.3257144 L132.362728,23.3257144 Z M132.362728,22.7638443 C130.606365,22.7638443 129.482728,21.4131949 129.482728,19.5979221 C129.482728,17.7718442 130.606365,16.432 132.362728,16.432 C134.108183,16.432 135.242729,17.7718442 135.242729,19.5979221 C135.242729,21.4131949 134.108183,22.7638443 132.362728,22.7638443 L132.362728,22.7638443 Z M144.242729,23.1960521 L144.242729,15.988987 L143.304547,15.988987 L140.839092,21.9858702 L138.362729,15.988987 L137.435456,15.988987 L137.435456,23.1960521 L138.057274,23.1960521 L138.057274,16.7669611 L140.719092,23.1960521 L140.959092,23.1960521 L143.610001,16.7669611 L143.610001,23.1960521 L144.242729,23.1960521 Z M56.0427273,36.1568832 C57.3518183,36.1568832 58.3881819,35.6274287 59.1300001,34.8062339 L59.1300001,32.0401039 L55.6609091,32.0401039 L55.6609091,33.3799481 L57.5809092,33.3799481 L57.5809092,34.2443637 C57.2863637,34.5144936 56.6863637,34.7954287 56.0427273,34.7954287 C54.7118182,34.7954287 53.7518182,33.7905455 53.7518182,32.429091 C53.7518182,31.0676364 54.7118182,30.0627533 56.0427273,30.0627533 C56.8063637,30.0627533 57.4281819,30.4949611 57.7663637,31.0028052 L59.0427274,30.3112728 C58.4972728,29.4576623 57.5481819,28.7012987 56.0427273,28.7012987 C53.9045455,28.7012987 52.1590909,30.1491948 52.1590909,32.429091 C52.1590909,34.6981819 53.9045455,36.1568832 56.0427273,36.1568832 L56.0427273,36.1568832 Z M63.8209093,36.1568832 C66.0136366,36.1568832 67.617273,34.6009352 67.617273,32.429091 C67.617273,30.2572468 66.0136366,28.7012987 63.8209093,28.7012987 C61.6172729,28.7012987 60.0136365,30.2572468 60.0136365,32.429091 C60.0136365,34.6009352 61.6172729,36.1568832 63.8209093,36.1568832 L63.8209093,36.1568832 Z M63.8209093,34.7954287 C62.468182,34.7954287 61.6063638,33.7689351 61.6063638,32.429091 C61.6063638,31.0784416 62.468182,30.0627533 63.8209093,30.0627533 C65.1627275,30.0627533 66.0245457,31.0784416 66.0245457,32.429091 C66.0245457,33.7689351 65.1627275,34.7954287 63.8209093,34.7954287 L63.8209093,34.7954287 Z M72.1663639,36.1568832 C74.3590912,36.1568832 75.9627276,34.6009352 75.9627276,32.429091 C75.9627276,30.2572468 74.3590912,28.7012987 72.1663639,28.7012987 C69.9627275,28.7012987 68.3590912,30.2572468 68.3590912,32.429091 C68.3590912,34.6009352 69.9627275,36.1568832 72.1663639,36.1568832 L72.1663639,36.1568832 Z M72.1663639,34.7954287 C70.8136366,34.7954287 69.9518184,33.7689351 69.9518184,32.429091 C69.9518184,31.0784416 70.8136366,30.0627533 72.1663639,30.0627533 C73.5081821,30.0627533 74.3700003,31.0784416 74.3700003,32.429091 C74.3700003,33.7689351 73.5081821,34.7954287 72.1663639,34.7954287 L72.1663639,34.7954287 Z M80.5881822,36.1568832 C81.8972732,36.1568832 82.9336368,35.6274287 83.675455,34.8062339 L83.675455,32.0401039 L80.2063641,32.0401039 L80.2063641,33.3799481 L82.1263641,33.3799481 L82.1263641,34.2443637 C81.8318186,34.5144936 81.2318186,34.7954287 80.5881822,34.7954287 C79.2572731,34.7954287 78.2972731,33.7905455 78.2972731,32.429091 C78.2972731,31.0676364 79.2572731,30.0627533 80.5881822,30.0627533 C81.3518186,30.0627533 81.9736368,30.4949611 82.3118186,31.0028052 L83.5881823,30.3112728 C83.0427277,29.4576623 82.0936368,28.7012987 80.5881822,28.7012987 C78.4500004,28.7012987 76.7045458,30.1491948 76.7045458,32.429091 C76.7045458,34.6981819 78.4500004,36.1568832 80.5881822,36.1568832 L80.5881822,36.1568832 Z M89.4790915,36.0272209 L89.4790915,34.6765715 L86.4027278,34.6765715 L86.4027278,28.8201558 L84.8427278,28.8201558 L84.8427278,36.0272209 L89.4790915,36.0272209 Z M95.6754552,36.0272209 L95.6754552,34.6765715 L92.0754551,34.6765715 L92.0754551,33.0341819 L95.5990916,33.0341819 L95.5990916,31.6835325 L92.0754551,31.6835325 L92.0754551,30.1708052 L95.6754552,30.1708052 L95.6754552,28.8201558 L90.5263642,28.8201558 L90.5263642,36.0272209 L95.6754552,36.0272209 Z M101.239092,36.0272209 L101.239092,33.4555845 L103.093637,33.4555845 C104.664546,33.4555845 105.537274,32.3966754 105.537274,31.1432728 C105.537274,29.879065 104.675455,28.8201558 103.093637,28.8201558 L99.6900007,28.8201558 L99.6900007,36.0272209 L101.239092,36.0272209 Z M102.875455,32.1049351 L101.239092,32.1049351 L101.239092,30.1708052 L102.875455,30.1708052 C103.486364,30.1708052 103.955455,30.5381818 103.955455,31.1432728 C103.955455,31.7375585 103.486364,32.1049351 102.875455,32.1049351 L102.875455,32.1049351 Z M111.079092,36.0272209 L111.079092,34.6765715 L108.002728,34.6765715 L108.002728,28.8201558 L106.442728,28.8201558 L106.442728,36.0272209 L111.079092,36.0272209 Z M118.911819,36.0272209 L116.108183,28.8201558 L114.166365,28.8201558 L111.362728,36.0272209 L113.119092,36.0272209 L113.577274,34.8062339 L116.697274,34.8062339 L117.155456,36.0272209 L118.911819,36.0272209 Z M116.271819,33.4555845 L114.002728,33.4555845 L115.137274,30.3544935 L116.271819,33.4555845 Z M123.166365,36.0272209 L123.166365,33.0774027 L125.948183,28.8201558 L124.191819,28.8201558 L122.391819,31.7051429 L120.591819,28.8201558 L118.824546,28.8201558 L121.617274,33.0774027 L121.617274,36.0272209 L123.166365,36.0272209 Z M132.024547,36.1568832 C133.977274,36.1568832 134.937274,35.1628053 134.937274,33.8445715 C134.937274,31.154078 130.759092,31.9212468 130.759092,30.7867013 C130.759092,30.3544935 131.130001,30.0735585 131.784547,30.0735585 C132.526365,30.0735585 133.311819,30.3220779 133.90091,30.8623377 L134.762729,29.716987 C134.042728,29.0578701 133.082728,28.7121039 131.926365,28.7121039 C130.213638,28.7121039 129.166365,29.7061818 129.166365,30.9055585 C129.166365,33.6176624 133.355456,32.7424416 133.355456,33.9958442 C133.355456,34.4172468 132.951819,34.7954287 132.090001,34.7954287 C131.086365,34.7954287 130.290001,34.3416105 129.777274,33.8121559 L128.926365,35.0115326 C129.613638,35.6922598 130.617274,36.1568832 132.024547,36.1568832 L132.024547,36.1568832 Z M139.213638,36.0272209 L139.213638,30.1708052 L141.330001,30.1708052 L141.330001,28.8201558 L135.526365,28.8201558 L135.526365,30.1708052 L137.653638,30.1708052 L137.653638,36.0272209 L139.213638,36.0272209 Z M145.78091,36.1568832 C147.973638,36.1568832 149.577274,34.6009352 149.577274,32.429091 C149.577274,30.2572468 147.973638,28.7012987 145.78091,28.7012987 C143.577274,28.7012987 141.973638,30.2572468 141.973638,32.429091 C141.973638,34.6009352 143.577274,36.1568832 145.78091,36.1568832 L145.78091,36.1568832 Z M145.78091,34.7954287 C144.428183,34.7954287 143.566365,33.7689351 143.566365,32.429091 C143.566365,31.0784416 144.428183,30.0627533 145.78091,30.0627533 C147.122729,30.0627533 147.984547,31.0784416 147.984547,32.429091 C147.984547,33.7689351 147.122729,34.7954287 145.78091,34.7954287 L145.78091,34.7954287 Z M156.570002,36.0272209 L154.922729,33.2827014 C155.708183,33.0990131 156.526365,32.4074806 156.526365,31.1432728 C156.526365,29.8034286 155.588183,28.8201558 154.07182,28.8201558 L150.668183,28.8201558 L150.668183,36.0272209 L152.217274,36.0272209 L152.217274,33.4663897 L153.35182,33.4663897 L154.780911,36.0272209 L156.570002,36.0272209 Z M153.853638,32.1157403 L152.217274,32.1157403 L152.217274,30.1708052 L153.853638,30.1708052 C154.464547,30.1708052 154.933638,30.5381818 154.933638,31.1324676 C154.933638,31.7483637 154.464547,32.1157403 153.853638,32.1157403 L153.853638,32.1157403 Z M162.83182,36.0272209 L162.83182,34.6765715 L159.23182,34.6765715 L159.23182,33.0341819 L162.755456,33.0341819 L162.755456,31.6835325 L159.23182,31.6835325 L159.23182,30.1708052 L162.83182,30.1708052 L162.83182,28.8201558 L157.682729,28.8201558 L157.682729,36.0272209 L162.83182,36.0272209 Z" id="DOWNLOAD-FROM" fill="#FFFFFF"></path>
            </g>
        </g>
    </g>
</svg>