<?xml version="1.0" encoding="UTF-8"?>
<svg width="35px" height="49px" viewBox="0 0 35 49" version="1.1" xmlns="http://www.w3.org/2000/svg" xmlns:xlink="http://www.w3.org/1999/xlink">
    <!-- Generator: Sketch 53.2 (72643) - https://sketchapp.com -->
    <title>Fill 1</title>
    <desc>Created with Sketch.</desc>
    <g id="Page-1" stroke="none" stroke-width="1" fill="none" fill-rule="evenodd">
        <g id="Home-" transform="translate(-516.000000, -1067.000000)" fill="#84B320">
            <path d="M533.495247,1071.94009 C540.430032,1071.94009 546.056626,1077.57317 546.056626,1084.51733 C546.056626,1091.46149 540.430032,1097.09394 533.495247,1097.09394 C526.559837,1097.09394 520.933867,1091.46149 520.933867,1084.51733 C520.933867,1077.57317 526.559837,1071.94009 533.495247,1071.94009 L533.495247,1071.94009 Z M538.07766,1078.90176 L531.531712,1085.45597 L528.912833,1082.83441 C528.046531,1081.94889 526.612889,1081.94889 525.728487,1082.83441 C524.861561,1083.71993 524.861561,1085.15475 525.728487,1086.02277 L529.938915,1090.23914 C530.682262,1090.9828 532.380538,1090.9828 533.123885,1090.23914 L541.262006,1082.09075 C542.128933,1081.2046 542.128933,1079.76978 541.262006,1078.90176 C540.37698,1078.01624 538.943962,1078.01624 538.07766,1078.90176 L538.07766,1078.90176 Z M530.964996,1113.79943 L534.4327,1103.10009 C534.079439,1102.95761 533.724929,1102.81637 533.495247,1102.81637 C533.053358,1102.81637 532.132756,1103.31256 531.708343,1103.48942 C530.717837,1103.89687 529.425874,1103.89687 528.382317,1103.61315 C527.356236,1103.33006 526.224052,1102.69201 525.569332,1101.84212 C525.285974,1101.48778 524.737982,1100.60227 524.34852,1100.37167 C524.17189,1100.26543 523.83548,1100.19419 523.481594,1100.15919 L520.191144,1110.30922 C519.837259,1111.38972 520.349675,1111.60219 521.199125,1111.17787 L526.277103,1108.66192 C526.595413,1108.50256 526.843195,1108.5913 527.00235,1108.89189 L529.638081,1113.92316 C530.080594,1114.75556 530.61111,1114.89742 530.964996,1113.79943 L530.964996,1113.79943 Z M534.4327,1108.8569 L536.485487,1115.21613 C536.838748,1116.31412 537.369889,1116.17289 537.812402,1115.32237 L540.448756,1110.30922 C540.625387,1109.99051 540.855069,1109.91989 541.174003,1110.07925 L546.250733,1112.57707 C547.100807,1113.00202 547.613224,1112.80704 547.259962,1111.70905 L543.508899,1100.15919 C543.155638,1100.19419 542.818604,1100.26543 542.641973,1100.37167 C542.252512,1100.60227 541.703895,1101.46966 541.421161,1101.84212 C540.766442,1102.69201 539.634257,1103.33006 538.608176,1103.61315 C537.829878,1103.82625 536.927376,1103.87937 536.096025,1103.71939 L534.4327,1108.8569 Z M519.200015,1076.24458 C519.642528,1075.48279 519.606952,1074.6329 519.730531,1073.72925 C519.819159,1073.05621 520.297248,1072.27693 520.792188,1071.79824 C521.270277,1071.30205 522.048576,1070.82398 522.720771,1070.73524 C523.623273,1070.6115 524.472099,1070.64713 525.232922,1070.20405 C525.993745,1069.76098 526.400682,1068.9992 526.966775,1068.27304 C527.373712,1067.74185 528.170111,1067.3169 528.842306,1067.13942 C529.514501,1066.96257 530.417003,1066.92695 531.036147,1067.19254 C531.884973,1067.52938 532.610845,1067.98995 533.495247,1067.98995 C534.379649,1067.98995 535.104896,1067.52938 535.954346,1067.19254 C536.574114,1066.92695 537.475992,1066.96257 538.148187,1067.13942 C538.820383,1067.3169 539.616781,1067.74185 540.023719,1068.27304 C540.589811,1068.9992 540.996748,1069.76098 541.757571,1070.20405 C542.518394,1070.64713 543.36722,1070.6115 544.287198,1070.73524 C544.941918,1070.82398 545.72084,1071.30205 546.215781,1071.79824 C546.693246,1072.27693 547.171335,1073.05621 547.259962,1073.72925 C547.383541,1074.6329 547.366065,1075.48279 547.790478,1076.24458 C548.232367,1077.00636 548.99319,1077.41381 549.719062,1077.98062 C550.249578,1078.38807 550.673991,1079.18547 550.851246,1079.85852 C551.045977,1080.53156 551.063452,1081.4352 550.798194,1082.05513 C550.462409,1082.90502 550.001796,1083.63119 550.001796,1084.51733 C550.001796,1085.40285 550.462409,1086.12963 550.798194,1086.97953 C551.063452,1087.59946 551.045977,1088.5031 550.868722,1089.17614 C550.673991,1089.84919 550.249578,1090.64659 549.719062,1091.05404 C548.99319,1091.62085 548.232367,1092.0283 547.790478,1092.79008 C547.366065,1093.55187 547.383541,1094.40176 547.259962,1095.3229 C547.171335,1095.97845 546.693246,1096.75773 546.215781,1097.25392 C545.72084,1097.73199 544.941918,1098.21068 544.287198,1098.29879 C543.36722,1098.42253 542.518394,1098.38753 541.757571,1098.8306 C540.996748,1099.27368 540.589811,1100.03546 540.023719,1100.76162 C539.616781,1101.29281 538.820383,1101.71776 538.148187,1101.89523 C537.475992,1102.09021 536.574114,1102.10771 535.954346,1101.84212 C535.104896,1101.50528 534.379649,1101.04471 533.495247,1101.04471 C532.610845,1101.04471 531.884973,1101.50528 531.036147,1101.84212 C530.417003,1102.10771 529.514501,1102.09021 528.842306,1101.89523 C528.170111,1101.71776 527.373712,1101.29281 526.966775,1100.76162 C526.400682,1100.03546 525.993745,1099.27368 525.232922,1098.8306 C524.472099,1098.38753 523.623273,1098.42253 522.720771,1098.29879 C522.048576,1098.21068 521.270277,1097.73199 520.792188,1097.25392 C520.297248,1096.75773 519.819159,1095.97845 519.730531,1095.3229 C519.606952,1094.40176 519.642528,1093.55187 519.200015,1092.79008 C518.757502,1092.0283 517.996679,1091.62085 517.271432,1091.05404 C516.740915,1090.64659 516.316502,1089.84919 516.139247,1089.17614 C515.962617,1088.5031 515.927041,1087.59946 516.192299,1086.97953 C516.528709,1086.12963 516.988698,1085.40285 516.988698,1084.51733 C516.988698,1083.63119 516.528709,1082.90502 516.192299,1082.05513 C515.927041,1081.4352 515.962617,1080.53156 516.139247,1079.85852 C516.316502,1079.18547 516.740915,1078.38807 517.271432,1077.98062 C517.996679,1077.41381 518.757502,1077.00636 519.200015,1076.24458 L519.200015,1076.24458 Z" id="Fill-1"></path>
        </g>
    </g>
</svg>