<svg xmlns="http://www.w3.org/2000/svg" viewBox="0 0 325.5 383.9"><g fill="#7fb017"><path d="M11.9 0h6.7c2.2 1.2 4.4 2.3 6.5 3.5 12.2 7.1 24.3 14.1 36.4 21.4 2.1 1.3 3.6 1.2 5.7 0 14.3-8.4 28.7-16.6 43-24.9h6.8c3 1.7 6.1 3.2 9.1 5 11.3 6.6 22.6 13.2 33.8 19.9 2.1 1.3 3.6 1.3 5.7 0 14.2-8.4 28.6-16.6 42.9-24.9h6.8c3.1 1.7 6.3 3.4 9.4 5.3 11.1 6.7 22.2 13.4 33.2 20.4 2.5 1.6 4.3 1.4 6.7-.1 14-8.6 28.1-17 42.2-25.5h6.8c9 3.3 11.9 10 11.9 19.3-.2 69.5-.1 139-.1 208.5 0 46.2-.2 92.5.1 138.7.1 14.1-13.1 22-25 14.3-11.7-7.6-24.1-14.2-36.1-21.4-2.5-1.5-4.3-1.4-6.7.1-12 7.2-24.2 14.1-36.1 21.3-6.6 4-12.7 4-19.3 0-12.2-7.4-24.5-14.4-36.8-21.7-2-1.2-3.4-1.2-5.4 0-12.2 7.3-24.6 14.3-36.8 21.7-6.7 4.1-12.9 4.1-19.6-.1-11.6-7.4-23.5-14.3-35.1-21.7-3-1.9-5.2-2.1-8.3-.1-11.9 7.6-24 14.8-36.1 22.2-3.9 2.4-7.9 3.7-12.5 2.5-7.8-2-11.6-7.7-11.6-17.4C.1 250.7.1 135.1 0 19.4 0 9.9 2.9 3.3 11.9 0zm18.4 341.8c1.3-.7 2.3-1.1 3.2-1.7 6.9-4.2 14-8.3 20.7-12.8 6.9-4.5 13.3-4.4 20.2 0 12 7.6 24.3 14.9 36.3 22.4 2.1 1.3 3.6 1.4 5.7.1 12.3-7.4 24.8-14.5 37.1-21.9 6.1-3.6 11.9-3.7 18-.1 12.3 7.3 24.8 14.5 37.1 21.9 2.4 1.4 4 1.3 6.4-.1 12.3-7.4 24.8-14.5 37.1-21.9 5.8-3.5 11.5-3.6 17.3-.1 7.4 4.4 14.9 8.7 22.3 13.1.9.5 1.9 1 3.1 1.6V42c-1.4.8-2.5 1.3-3.5 1.9-6.9 4.2-13.9 8.4-20.7 12.8-6.6 4.3-12.9 4.2-19.6 0-12-7.6-24.3-14.9-36.3-22.4-2.4-1.5-4-1.4-6.4 0-12.3 7.4-24.8 14.6-37.1 21.9-5.8 3.4-11.5 3.4-17.3 0-12.6-7.5-25.2-14.8-37.8-22.2-2-1.2-3.4-1.2-5.4 0C98 41.5 85.3 48.9 72.6 56.4c-5.7 3.4-11.3 3.3-17-.1-7.4-4.4-14.8-8.7-22.3-13.1-.9-.5-1.9-.9-3.1-1.5.1 100.2.1 199.9.1 300.1z"/><path d="M206.8 177h43.1c9.5 0 16.2 6.2 16.3 14.8.1 8.8-6.7 15.2-16.4 15.2H164c-9.5 0-16.2-6.1-16.3-14.8-.1-8.9 6.7-15.1 16.4-15.2h42.7zm.5 59.1c14.7 0 29.5-.1 44.2 0 6.4 0 11.7 4 13.8 9.8 2.1 5.8.7 12.6-4.3 16.2-2.8 2-6.5 3.7-9.8 3.8-29.5.3-58.9.3-88.4.1-8.8 0-15.2-7-15-15.4.2-8.3 6.7-14.5 15.4-14.5 14.6-.1 29.4 0 44.1 0zm-.8-88.2c-14.7 0-29.5.1-44.2 0-6.7-.1-12-4.3-14-10.5-1.9-6 0-12.8 5.4-16.2 2.7-1.7 6.2-3.1 9.4-3.1 29.2-.2 58.4-.2 87.6-.1 9.1 0 15.6 6.9 15.4 15.4-.2 8.4-6.8 14.5-15.8 14.5-14.6.1-29.2 0-43.8 0zM88.8 207c-4.9 0-9.7.1-14.6 0-8.5-.2-15-6.8-15-15 0-8.3 6.5-14.8 15.1-14.9 9.9-.1 19.7-.1 29.6 0 8.3.1 14.7 6.6 14.7 14.8.1 8.2-6.2 14.8-14.4 15.1-5.2.1-10.3 0-15.4 0zm0-59c-4.9 0-9.7.1-14.6 0-8.3-.2-14.6-6.3-15-14.2-.4-8 5.3-15.1 13.6-15.5 10.7-.5 21.5-.6 32.2-.1 8.5.4 14 7.4 13.6 15.8-.4 7.9-6.7 13.8-15.1 14-5 0-9.8-.1-14.7 0 0-.1 0-.1 0 0zm0 88.1c5 0 10-.1 15 0 8.2.2 14.4 6.1 14.8 13.9.4 8.2-4.9 15.2-13.2 15.7-10.9.6-22 .6-32.9 0-8.2-.5-13.7-7.8-13.2-15.8.5-7.8 6.8-13.6 15-13.8 4.8-.1 9.6 0 14.5 0z"/></g></svg>