<?xml version="1.0" encoding="UTF-8"?>
<svg width="40px" height="40px" viewBox="0 0 40 40" version="1.1" xmlns="http://www.w3.org/2000/svg" xmlns:xlink="http://www.w3.org/1999/xlink">
    <!-- Generator: Sketch 53.2 (72643) - https://sketchapp.com -->
    <title>Page 1</title>
    <desc>Created with Sketch.</desc>
    <defs>
        <polygon id="path-1" points="0 0 40 0 40 40 4.54556442e-22 40"></polygon>
    </defs>
    <g id="Page-1" stroke="none" stroke-width="1" fill="none" fill-rule="evenodd">
        <g id="Dashboard_Today’s-Menus" transform="translate(-1391.000000, -2421.000000)">
            <g id="Group" transform="translate(723.000000, 2421.000000)">
                <g id="Page-1" transform="translate(668.000000, 0.000000)">
                    <mask id="mask-2" fill="white">
                        <use xlink:href="#path-1"></use>
                    </mask>
                    <g id="Clip-2"></g>
                    <path d="M35.3690195,26.241937 C34.7493784,27.7699594 33.912681,29.181949 32.8730644,30.4569012 L9.54310451,7.12693656 C10.8180485,6.08732018 12.2300383,5.25063124 13.758061,4.63098184 C14.7460087,4.23035925 15.7794286,3.92412756 16.8296272,3.72078925 C17.8708788,3.51920342 18.9375456,3.41698085 20.0000031,3.41698085 C21.0624607,3.41698085 22.1291191,3.51920342 23.1703708,3.72078925 C24.2205609,3.92412756 25.2539809,4.23035925 26.2419369,4.63098184 C28.2968197,5.46427482 30.1419076,6.68997301 31.7259594,8.27404135 C33.310028,9.85809292 34.5357264,11.7031973 35.3690195,13.758063 C35.7696422,14.7460105 36.0758739,15.7794387 36.2792039,16.8296287 C36.4808065,17.8708802 36.5830207,18.9375468 36.5830207,20.0000042 C36.5830207,21.0624532 36.4808065,22.1291198 36.2792039,23.1703797 C36.0758739,24.2205697 35.7696422,25.2539895 35.3690195,26.241937 M23.1703708,36.2792024 C22.1291191,36.480805 21.0624607,36.5830192 20.0000031,36.5830192 C18.9375456,36.5830192 17.8708788,36.480805 16.8296272,36.2792024 C15.7794454,36.0758808 14.7460254,35.7696491 13.758061,35.3690182 C11.7031866,34.5357252 9.85809027,33.310027 8.27403846,31.7259587 C6.68996987,30.1419071 5.46427149,28.296811 4.63097838,26.241937 C4.23035572,25.2539895 3.92412398,24.2205697 3.72079402,23.1703797 C3.51919139,22.1291198 3.4169688,21.0624532 3.4169688,20.0000042 C3.4169688,18.9375468 3.51919139,17.8708802 3.72079402,16.8296287 C3.92412398,15.7794387 4.23035572,14.7460105 4.63097838,13.758063 C5.25062787,12.2300406 6.08731694,10.8180594 7.12693349,9.5431072 L30.4568934,32.8730634 C29.181941,33.9126882 27.7699596,34.7493771 26.2419369,35.3690014 C25.2539809,35.7696491 24.2205609,36.0758808 23.1703708,36.2792024 M34.1421388,5.85787071 C30.2368855,1.95262637 25.1184359,0 20.0000031,0 C14.8815536,0 9.76310402,1.95262637 5.85786744,5.85787071 C-1.95262248,13.668351 -1.95262248,26.331649 5.85786744,34.1421377 C9.76310402,38.047382 14.8815536,40 20.0000031,40 C25.1184359,40 30.2368855,38.047382 34.1421388,34.1421377 C41.9526204,26.331649 41.9526204,13.668351 34.1421388,5.85787071" id="Fill-1" fill="#7FB017" mask="url(#mask-2)"></path>
                </g>
            </g>
        </g>
    </g>
</svg>