<?xml version="1.0" encoding="UTF-8"?>
<svg width="40px" height="40px" viewBox="0 0 40 40" version="1.1" xmlns="http://www.w3.org/2000/svg" xmlns:xlink="http://www.w3.org/1999/xlink">
    <!-- Generator: Sketch 53.2 (72643) - https://sketchapp.com -->
    <title>rejected</title>
    <desc>Created with Sketch.</desc>
    <defs>
        <polygon id="path-1" points="0 20.000002 0 40 40 40 40 20.000002 40 4e-06 0 4e-06"></polygon>
    </defs>
    <g id="Page-1" stroke="none" stroke-width="1" fill="none" fill-rule="evenodd">
        <g id="Dashboard_Today’s-Menus" transform="translate(-1176.000000, -2421.000000)">
            <g id="Group" transform="translate(723.000000, 2421.000000)">
                <g id="rejected" transform="translate(453.000000, 0.000000)">
                    <path d="M22.175504,20 L28.472064,13.70344 C29.072144,13.10336 29.072424,12.12696 28.472664,11.5272 C28.182104,11.23648 27.795704,11.07632 27.384664,11.07632 C26.973544,11.07632 26.587144,11.23648 26.296864,11.52704 L19.999984,17.82392 L13.703744,11.52704 C13.413144,11.23632 13.026744,11.07632 12.615704,11.07632 C12.204664,11.07632 11.818224,11.23632 11.527344,11.5272 C10.928184,12.12712 10.928184,13.10308 11.527664,13.70284 L17.824544,20 L11.527664,26.29688 C11.237104,26.58744 11.076944,26.97388 11.076944,27.38492 C11.076944,27.79596 11.237104,28.18212 11.527664,28.47236 C11.818224,28.76292 12.204664,28.92308 12.615384,28.92308 C13.025864,28.92308 13.412264,28.7632 13.703744,28.47236 L19.999984,22.17548 L26.296864,28.47236 C26.587464,28.76292 26.973544,28.92308 27.384344,28.92308 C27.795984,28.92308 28.182704,28.76292 28.472384,28.47236 C28.762944,28.1818 28.923064,27.7954 28.923064,27.38428 C28.923064,26.97328 28.762944,26.58716 28.472384,26.29688 L22.175504,20 Z" id="Fill-1" fill="#7FB017"></path>
                    <g id="Group-5">
                        <mask id="mask-2" fill="white">
                            <use xlink:href="#path-1"></use>
                        </mask>
                        <g id="Clip-4"></g>
                        <path d="M20,36.923084 C10.6686,36.923084 3.07696,29.331404 3.07696,20.000004 C3.07696,10.668564 10.6686,3.076924 20,3.076924 C29.33144,3.076924 36.92308,10.668564 36.92308,20.000004 C36.92308,29.331404 29.33144,36.923084 20,36.923084 M20,4e-06 C8.97208,4e-06 0,8.971924 0,20.000004 C0,31.027964 8.97208,40.000004 20,40.000004 C31.02796,40.000004 40,31.027964 40,20.000004 C40,8.971924 31.02796,4e-06 20,4e-06" id="Fill-3" fill="#7FB017" mask="url(#mask-2)"></path>
                    </g>
                </g>
            </g>
        </g>
    </g>
</svg>