<?xml version="1.0" encoding="UTF-8"?>
<svg width="45px" height="45px" viewBox="0 0 45 45" version="1.1" xmlns="http://www.w3.org/2000/svg" xmlns:xlink="http://www.w3.org/1999/xlink">
    <!-- Generator: Sketch 53.2 (72643) - https://sketchapp.com -->
    <title>Page 1</title>
    <desc>Created with Sketch.</desc>
    <g id="Page-1" stroke="none" stroke-width="1" fill="none" fill-rule="evenodd">
        <g id="About" transform="translate(-815.000000, -868.000000)" fill="#7EB041">
            <g id="Page-1" transform="translate(815.000000, 868.000000)">
                <path d="M27,4.13634379 C19.3555002,4.13634379 13.1360479,10.3557384 13.1360479,17.9998328 C13.1360479,25.6445959 19.3555002,31.8639906 27,31.8639906 C34.6441654,31.8639906 40.8636178,25.6445959 40.8636178,17.9998328 C40.8636178,10.3557384 34.6441654,4.13634379 27,4.13634379 M27,36 C17.0744882,36 9,27.9252524 9,17.9998328 C9,8.07474761 17.0744882,0 27,0 C36.9255118,0 45,8.07474761 45,17.9998328 C45,27.9252524 36.9255118,36 27,36" id="Fill-1"></path>
                <g id="Group-5" transform="translate(0.000000, 27.000000)">
                    <path d="M16.7777345,1.20034286 C18.3365345,2.73130714 18.3198436,5.23041429 16.7400982,6.78162857 L6.84108,16.5038786 C5.26166182,18.0554143 2.71711636,18.0721286 1.15831636,16.5414857 C-0.400810909,15.0098786 -0.383792727,12.5107714 1.19595273,10.9592357 L11.0946436,1.23762857 C12.6743891,-0.314228571 15.2189345,-0.330621429 16.7777345,1.20034286" id="Fill-3"></path>
                </g>
                <path d="M17.4758647,18 C17.351963,18 17.2257669,17.9845046 17.1002263,17.9518998 C16.3128936,17.7482003 15.8418707,16.9543855 16.0487012,16.1786487 C16.1758807,15.7015205 16.3378051,15.2282661 16.5298854,14.7721213 C17.0920318,13.4369371 17.9052593,12.2399199 18.9469509,11.2136747 C19.9889703,10.1874294 21.2043865,9.38651257 22.5600934,8.83319882 C23.9141614,8.2802079 25.3491916,8 26.8248668,8 C28.3011976,8 29.7359,8.2802079 31.089968,8.83319882 C31.8419003,9.14020079 32.1991828,9.98986345 31.8871342,10.7304129 C31.5754134,11.471608 30.7130186,11.8228363 29.9604308,11.5161571 C28.9665953,11.1100494 27.9117924,10.904413 26.8248668,10.904413 C25.7385968,10.904413 24.6834661,11.1100494 23.6896307,11.5161571 C22.6935007,11.9229105 21.7993111,12.5120573 21.0326286,13.2674565 C20.2656184,14.0228557 19.6670883,14.9035091 19.2540828,15.8842367 C19.1131364,16.219324 18.9944793,16.5663557 18.9010614,16.9162927 C18.7273369,17.5683895 18.1301178,18 17.4758647,18" id="Fill-6"></path>
            </g>
        </g>
    </g>
</svg>