<?xml version="1.0" encoding="UTF-8"?>
<svg width="29px" height="29px" viewBox="0 0 29 29" version="1.1" xmlns="http://www.w3.org/2000/svg" xmlns:xlink="http://www.w3.org/1999/xlink">
    <!-- Generator: Sketch 53.2 (72643) - https://sketchapp.com -->
    <title>Settings-2</title>
    <desc>Created with Sketch.</desc>
    <g id="Page-1" stroke="none" stroke-width="1" fill="none" fill-rule="evenodd">
        <g id="-_Today’s-Orders-Copy" transform="translate(-1400.000000, -55.000000)" fill="#515151">
            <g id="Group-7" transform="translate(0.000000, -4.000000)">
                <g id="Settings-2" transform="translate(1400.000000, 59.000000)">
                    <path d="M14.6417778,9.28 C11.7944431,9.28 9.48622222,11.5882208 9.48622222,14.4355556 C9.48622222,17.2828903 11.7944431,19.5911111 14.6417778,19.5911111 C17.4891125,19.5911111 19.7973333,17.2828903 19.7973333,14.4355556 C19.7973333,11.5882208 17.4891125,9.28 14.6417778,9.28 Z M14.6417778,17.6577778 C12.8621936,17.6577778 11.4195556,16.2151397 11.4195556,14.4355556 C11.4195556,12.6559714 12.8621936,11.2133333 14.6417778,11.2133333 C16.421362,11.2133333 17.864,12.6559714 17.864,14.4355556 C17.864,16.2151397 16.421362,17.6577778 14.6417778,17.6577778 L14.6417778,17.6577778 Z" id="Shape"></path>
                    <path d="M26.8862222,10.5688889 L24.8884444,10.5688889 C24.8068148,10.3497778 24.7165926,10.134963 24.6177778,9.92444444 L26.0291111,8.51311111 C26.7829909,7.75829255 26.7829909,6.53548523 26.0291111,5.78066667 L23.2966667,3.04822222 C22.5418481,2.2943424 21.3190408,2.2943424 20.5642222,3.04822222 L19.1528889,4.45955556 C18.9423704,4.36503704 18.7275556,4.27481481 18.5084444,4.18888889 L18.5084444,2.19111111 C18.5084444,1.12336059 17.6428616,0.257777778 16.5751111,0.257777778 L12.7084444,0.257777778 C11.6406939,0.257777778 10.7751111,1.12336059 10.7751111,2.19111111 L10.7751111,4.18888889 C10.556,4.27051852 10.3411852,4.36074074 10.1306667,4.45955556 L8.71933333,3.04822222 C7.96451477,2.2943424 6.74170745,2.2943424 5.98688889,3.04822222 L3.25444444,5.78066667 C2.50056463,6.53548523 2.50056463,7.75829255 3.25444444,8.51311111 L4.65288889,9.92444444 C4.55837037,10.134963 4.46814815,10.3497778 4.38222222,10.5688889 L2.38444444,10.5688889 C1.31669393,10.5688889 0.451111111,11.4344717 0.451111111,12.5022222 L0.451111111,16.3688889 C0.451111111,17.4366394 1.31669393,18.3022222 2.38444444,18.3022222 L4.38222222,18.3022222 C4.46385185,18.5213333 4.55407407,18.7361481 4.65288889,18.9466667 L3.24155556,20.358 C2.48767574,21.1128186 2.48767574,22.3356259 3.24155556,23.0904444 L5.974,25.8228889 C6.72881857,26.5767687 7.95162588,26.5767687 8.70644444,25.8228889 L10.1177778,24.4115556 C10.3282963,24.5060741 10.5431111,24.5962963 10.7622222,24.6822222 L10.7622222,26.68 C10.7622222,27.7477505 11.627805,28.6133333 12.6955556,28.6133333 L16.5622222,28.6133333 C17.6299727,28.6133333 18.4955556,27.7477505 18.4955556,26.68 L18.4955556,24.6822222 C18.7146667,24.6005926 18.9294815,24.5103704 19.14,24.4115556 L20.5513333,25.8228889 C21.3061519,26.5767687 22.5289592,26.5767687 23.2837778,25.8228889 L26.0162222,23.0904444 C26.770102,22.3356259 26.770102,21.1128186 26.0162222,20.358 L24.6306667,18.9466667 C24.7251852,18.7361481 24.8154074,18.5213333 24.9013333,18.3022222 L26.8991111,18.3022222 C27.9668616,18.3022222 28.8324444,17.4366394 28.8324444,16.3688889 L28.8324444,12.5022222 C28.8324559,11.9872294 28.6269977,11.4935151 28.2616349,11.1305719 C27.8962722,10.7676288 27.4012036,10.5654556 26.8862222,10.5688889 Z M26.8862222,16.3688889 L23.4513333,16.3688889 C23.2224502,17.4087873 22.8099966,18.399549 22.2333333,19.2946667 L24.6628889,21.7242222 L21.9304444,24.4566667 L19.4751111,22.0271111 C18.5799934,22.6037743 17.5892317,23.016228 16.5493333,23.2451111 L16.5493333,26.68 L12.6826667,26.68 L12.6826667,23.2451111 C11.6427683,23.016228 10.6520066,22.6037743 9.75688889,22.0271111 L7.32733333,24.4566667 L4.59488889,21.7242222 L7.02444444,19.2946667 C6.44778122,18.399549 6.03532758,17.4087873 5.80644444,16.3688889 L2.39733333,16.3688889 L2.39733333,12.5022222 L5.83222222,12.5022222 C6.06110535,11.4623238 6.473559,10.4715621 7.05022222,9.57644444 L4.62066667,7.14688889 L7.35311111,4.41444444 L9.78266667,6.844 C10.6777844,6.26733678 11.668546,5.85488313 12.7084444,5.626 L12.7084444,2.19111111 L16.5751111,2.19111111 L16.5751111,5.626 C17.6150095,5.85488313 18.6057712,6.26733678 19.5008889,6.844 L21.9304444,4.41444444 L24.6628889,7.14688889 L22.2333333,9.57644444 C22.8099966,10.4715621 23.2224502,11.4623238 23.4513333,12.5022222 L26.8862222,12.5022222 L26.8862222,16.3688889 Z" id="Shape"></path>
                </g>
            </g>
        </g>
    </g>
</svg>