<?xml version="1.0" encoding="UTF-8"?>
<svg width="16px" height="16px" viewBox="0 0 16 16" version="1.1" xmlns="http://www.w3.org/2000/svg" xmlns:xlink="http://www.w3.org/1999/xlink">
    <!-- Generator: Sketch 53.2 (72643) - https://sketchapp.com -->
    <title>Page 1</title>
    <desc>Created with Sketch.</desc>
    <defs>
        <polygon id="path-1" points="15.6691124 15.9554318 1.6568989e-05 15.9554318 1.6568989e-05 0.0280097034 15.6691124 0.0280097034"></polygon>
    </defs>
    <g id="Page-1" stroke="none" stroke-width="1" fill="none" fill-rule="evenodd">
        <g id="Home-" transform="translate(-432.000000, -1742.000000)">
            <g id="Page-1" transform="translate(432.000000, 1742.000000)">
                <g id="Group-3" transform="translate(0.000000, 0.016579)">
                    <mask id="mask-2" fill="white">
                        <use xlink:href="#path-1"></use>
                    </mask>
                    <g id="Clip-2"></g>
                    <path d="M15.1591309,5.34857716 C15.0358552,5.02327354 14.6724903,4.85935153 14.3472312,4.9826273 C14.0220167,5.10568022 13.8581838,5.46908969 13.9811476,5.79443788 C14.5865627,7.3931454 14.5486797,9.13901727 13.8746741,10.710761 C13.1827967,12.3236858 11.9042674,13.5708836 10.2742284,14.2223376 C8.64432312,14.8738362 6.85829526,14.8516858 5.24523677,14.1598084 C4.77749304,13.9593404 4.34090251,13.7095799 3.94036769,13.4162318 C2.95919777,12.6973014 2.19587744,11.7167109 1.73325905,10.5594072 C1.08167131,8.92963565 1.10382173,7.14356323 1.7956546,5.53028189 C2.48748747,3.9172234 3.76641783,2.66984735 5.39614485,2.01830418 C6.95589972,1.39492813 8.65827298,1.39002563 10.2155766,1.99691142 L9.76927019,2.75047131 C9.64670752,2.95762451 9.74096936,3.09569694 9.9783844,3.05736825 L12.0983621,2.71517326 C12.3360446,2.67675543 12.4646685,2.45966351 12.3840446,2.23298942 L11.6648914,0.209145404 C11.5843565,-0.0174841226 11.4180724,-0.0337961003 11.2955543,0.17344624 L10.865337,0.90004234 C8.95772702,0.0990172702 6.85196657,0.0801203343 4.92866852,0.848788858 C2.98647354,1.62521226 1.46277437,3.11142953 0.638172702,5.03396992 C-0.186295265,6.95606462 -0.212679666,9.08464401 0.563654596,11.0269281 C1.11514206,12.4063153 2.02446797,13.5745827 3.19398329,14.431229 C3.67117549,14.7807331 4.19168802,15.0783599 4.74879109,15.3173348 C6.67124234,16.1415799 8.79946518,16.1682318 10.7416156,15.3919421 C12.684078,14.6156524 14.2076435,13.1293014 15.0320669,11.2070284 C15.8352312,9.33431532 15.880468,7.25360223 15.1591309,5.34857716" id="Fill-1" fill="#83B340" mask="url(#mask-2)"></path>
                </g>
                <path d="M7.55837326,3.10863064 C7.27679109,3.10863064 7.04846797,3.33677549 7.04846797,3.61840223 L7.04846797,8.69864735 L11.6947521,11.1005192 C11.7694485,11.1392045 11.8495822,11.1576557 11.9283788,11.1574774 C12.1128914,11.1574774 12.2910306,11.0570206 12.3817716,10.8816891 C12.5110641,10.6315721 12.4132368,10.3239621 12.1627187,10.1946251 L8.06823398,8.07790084 L8.06823398,3.61840223 C8.06823398,3.33677549 7.84017827,3.10863064 7.55837326,3.10863064" id="Fill-4" fill="#83B340"></path>
            </g>
        </g>
    </g>
</svg>