<?xml version="1.0" encoding="UTF-8"?>
<svg width="43px" height="40px" viewBox="0 0 43 40" version="1.1" xmlns="http://www.w3.org/2000/svg" xmlns:xlink="http://www.w3.org/1999/xlink">
    <!-- Generator: Sketch 53.2 (72643) - https://sketchapp.com -->
    <title>User Copy 3</title>
    <desc>Created with Sketch.</desc>
    <g id="Page-1" stroke="none" stroke-width="1" fill="none" fill-rule="evenodd">
        <g id="-_Today’s-Orders-Copy" transform="translate(-845.000000, -185.000000)" fill="#7FB017">
            <g id="User-Copy-3" transform="translate(845.000000, 185.000000)">
                <path d="M21.312,25.025641 C26.9794286,25.025641 31.5977143,19.5076923 31.5977143,12.7179487 C31.5977143,5.92820513 26.9794286,0.41025641 21.312,0.41025641 C15.6445714,0.41025641 11.0262857,5.92820513 11.0262857,12.7179487 C11.0262857,19.5076923 15.6548571,25.025641 21.312,25.025641 Z M21.312,3.48717949 C25.2925714,3.48717949 28.512,7.58974359 28.512,12.7179487 C28.512,17.8461538 25.2925714,21.9487179 21.312,21.9487179 C17.3314286,21.9487179 14.112,17.8461538 14.112,12.7179487 C14.112,7.58974359 17.3314286,3.48717949 21.312,3.48717949 Z" id="Shape"></path>
                <path d="M30.7234286,24 C29.8713321,23.9150332 29.1114955,24.5349466 29.0262859,25.3846154 C28.9410762,26.2342842 29.5627607,26.9919561 30.4148571,27.0769231 C35.1997937,27.6375812 38.9068828,31.5150577 39.24,36.3076923 L3.384,36.3076923 C3.74860592,31.5289682 7.43964435,27.6682801 12.2091429,27.0769231 C13.0612393,26.9919562 13.6829239,26.2342842 13.5977143,25.3846154 C13.5125046,24.5349465 12.7526679,23.9150331 11.9005714,24 C11.7874286,24 0.226285714,25.3128205 0.226285714,37.8358974 C0.226285714,38.6855663 0.917046386,39.374359 1.76914286,39.374359 L40.8548571,39.374359 C41.7069536,39.374359 42.3977143,38.6855663 42.3977143,37.8358974 C42.3977143,25.3128205 30.8365714,24 30.7234286,24 Z" id="Shape"></path>
            </g>
        </g>
    </g>
</svg>