<?xml version="1.0" encoding="UTF-8"?>
<svg width="27px" height="25px" viewBox="0 0 27 25" version="1.1" xmlns="http://www.w3.org/2000/svg" xmlns:xlink="http://www.w3.org/1999/xlink">
    <!-- Generator: Sketch 53.2 (72643) - https://sketchapp.com -->
    <title>User</title>
    <desc>Created with Sketch.</desc>
    <g id="Page-1" stroke="none" stroke-width="1" fill="none" fill-rule="evenodd">
        <g id="-_Today’s-Orders-Copy" transform="translate(-443.000000, -831.000000)" fill="#7FB017">
            <g id="User" transform="translate(443.000000, 831.000000)">
                <path d="M13.32,15.6410256 C16.8621429,15.6410256 19.7485714,12.1923077 19.7485714,7.94871795 C19.7485714,3.70512821 16.8621429,0.256410256 13.32,0.256410256 C9.77785714,0.256410256 6.89142857,3.70512821 6.89142857,7.94871795 C6.89142857,12.1923077 9.78428571,15.6410256 13.32,15.6410256 Z M13.32,2.17948718 C15.8078571,2.17948718 17.82,4.74358974 17.82,7.94871795 C17.82,11.1538462 15.8078571,13.7179487 13.32,13.7179487 C10.8321429,13.7179487 8.82,11.1538462 8.82,7.94871795 C8.82,4.74358974 10.8321429,2.17948718 13.32,2.17948718 Z" id="Shape"></path>
                <path d="M19.2021429,15 C18.6695826,14.9468958 18.1946847,15.3343416 18.1414287,15.8653846 C18.0881726,16.3964276 18.4767255,16.8699726 19.0092857,16.9230769 C21.9998711,17.2734883 24.3168018,19.6969111 24.525,22.6923077 L2.115,22.6923077 C2.3428787,19.7056051 4.64977772,17.2926751 7.63071429,16.9230769 C8.16327458,16.8699726 8.55182746,16.3964276 8.49857143,15.8653846 C8.4453154,15.3343416 7.97041744,14.9468957 7.43785714,15 C7.36714286,15 0.141428571,15.8205128 0.141428571,23.6474359 C0.141428571,24.1784789 0.573153991,24.6089744 1.10571429,24.6089744 L25.5342857,24.6089744 C26.066846,24.6089744 26.4985714,24.1784789 26.4985714,23.6474359 C26.4985714,15.8205128 19.2728571,15 19.2021429,15 Z" id="Shape"></path>
            </g>
        </g>
    </g>
</svg>