<?xml version="1.0" encoding="UTF-8"?>
<svg width="26px" height="26px" viewBox="0 0 26 26" version="1.1" xmlns="http://www.w3.org/2000/svg" xmlns:xlink="http://www.w3.org/1999/xlink">
    <!-- Generator: Sketch 53.2 (72643) - https://sketchapp.com -->
    <title>View-2</title>
    <desc>Created with Sketch.</desc>
    <g id="Page-1" stroke="none" stroke-width="1" fill="none" fill-rule="evenodd">
        <g id="-_Today’s-Orders-Copy" transform="translate(-443.000000, -420.000000)" fill="#7FB017">
            <g id="View-2" transform="translate(443.000000, 420.000000)">
                <path d="M9.05882353,0 L1.94117647,0 C0.869094309,0 0,0.869094309 0,1.94117647 L0,9.05882353 C0,10.1309057 0.869094309,11 1.94117647,11 L9.05882353,11 C10.1309057,11 11,10.1309057 11,9.05882353 L11,1.94117647 C11,0.869094309 10.1309057,0 9.05882353,0 Z M9.05882353,9.05882353 L1.94117647,9.05882353 L1.94117647,1.94117647 L9.05882353,1.94117647 L9.05882353,9.05882353 Z" id="Shape"></path>
                <path d="M24.0588235,0 L16.9411765,0 C15.8690943,0 15,0.869094309 15,1.94117647 L15,9.05882353 C15,10.1309057 15.8690943,11 16.9411765,11 L24.0588235,11 C25.1309057,11 26,10.1309057 26,9.05882353 L26,1.94117647 C26,0.869094309 25.1309057,0 24.0588235,0 Z M24.0588235,9.05882353 L16.9411765,9.05882353 L16.9411765,1.94117647 L24.0588235,1.94117647 L24.0588235,9.05882353 Z" id="Shape"></path>
                <path d="M9.05882353,15 L1.94117647,15 C0.869094309,15 0,15.8690943 0,16.9411765 L0,24.0588235 C0,25.1309057 0.869094309,26 1.94117647,26 L9.05882353,26 C10.1309057,26 11,25.1309057 11,24.0588235 L11,16.9411765 C11,15.8690943 10.1309057,15 9.05882353,15 Z M9.05882353,24.0588235 L1.94117647,24.0588235 L1.94117647,16.9411765 L9.05882353,16.9411765 L9.05882353,24.0588235 Z" id="Shape"></path>
                <path d="M24.0588235,15 L16.9411765,15 C15.8690943,15 15,15.8690943 15,16.9411765 L15,24.0588235 C15,25.1309057 15.8690943,26 16.9411765,26 L24.0588235,26 C25.1309057,26 26,25.1309057 26,24.0588235 L26,16.9411765 C26,15.8690943 25.1309057,15 24.0588235,15 Z M24.0588235,24.0588235 L16.9411765,24.0588235 L16.9411765,16.9411765 L24.0588235,16.9411765 L24.0588235,24.0588235 Z" id="Shape"></path>
            </g>
        </g>
    </g>
</svg>