<?xml version="1.0" encoding="UTF-8"?>
<svg width="41px" height="24px" viewBox="0 0 41 24" version="1.1" xmlns="http://www.w3.org/2000/svg" xmlns:xlink="http://www.w3.org/1999/xlink">
    <!-- Generator: Sketch 53.2 (72643) - https://sketchapp.com -->
    <title>Visa-dark Copy</title>
    <desc>Created with Sketch.</desc>
    <g id="Page-1" stroke="none" stroke-width="1" fill="none" fill-rule="evenodd">
        <g id="Home-" transform="translate(-1376.000000, -4335.000000)">
            <g id="Visa-dark-Copy" transform="translate(1376.000000, 4335.000000)">
                <rect id="Rectangle" fill="#26337A" x="0" y="0" width="40.6746032" height="24" rx="2.13333333"></rect>
                <polyline id="Fill-3" fill="#FFFFFE" points="16.8758891 15.8187042 18.1265263 8.18907042 20.125625 8.18907042 18.8751021 15.8187042 16.8758891 15.8187042"></polyline>
                <path d="M26.1264654,8.37633803 C25.7311963,8.22321127 25.1095366,8.05622535 24.3351202,8.05622535 C22.3586607,8.05622535 20.9673868,9.09160563 20.9558386,10.5741972 C20.9432613,11.6708732 21.9486419,12.2824789 22.7065935,12.6469859 C23.4855834,13.0206197 23.7473047,13.2597183 23.7442176,13.5938028 C23.7388437,14.1047887 23.1224435,14.3389296 22.5476626,14.3389296 C21.7472914,14.3389296 21.3220656,14.223662 20.6646178,13.9388169 L20.40747,13.8173521 L20.1279117,15.5251831 C20.5940708,15.7376901 21.458243,15.9221408 22.3551162,15.931831 C24.4556333,15.931831 25.8204949,14.9089577 25.8365023,13.3257465 C25.8437057,12.4561127 25.3110014,11.7969577 24.1573235,11.2527324 C23.4587137,10.8989296 23.0299434,10.6645634 23.03486,10.3064789 C23.0353174,9.98940845 23.3970852,9.64991549 24.1800769,9.64991549 C24.8339802,9.6395493 25.3073426,9.78805634 25.6761994,9.94309859 L25.8557112,10.0303099 L26.1264654,8.37633803" id="Fill-4" fill="#FFFFFE"></path>
                <path d="M28.7883857,13.1136901 C28.9540626,12.6751549 29.5847551,10.9810704 29.5847551,10.9810704 C29.5730925,11.0012394 29.7495172,10.5391549 29.8504783,10.2531831 L29.9853981,10.9112113 C29.9853981,10.9112113 30.3690046,12.7322817 30.4480126,13.1136901 L28.7883857,13.1136901 L28.7883857,13.1136901 Z M31.2546725,8.19684507 L29.7097273,8.19684507 C29.2305337,8.19684507 28.871853,8.33183099 28.6619271,8.82929577 L25.6931215,15.8214085 L27.7928383,15.8214085 C27.7928383,15.8214085 28.1353971,14.8807887 28.2131475,14.6743662 C28.442168,14.6743662 30.4824286,14.6783099 30.7736494,14.6783099 C30.8335629,14.9445634 31.0170766,15.8214085 31.0170766,15.8214085 L32.8725657,15.8214085 L31.2546725,8.19684507 L31.2546725,8.19684507 Z" id="Fill-5" fill="#FFFFFE"></path>
                <path d="M15.1987684,8.19549296 L13.2420894,13.3970704 L13.0325065,12.3397183 C12.6678802,11.1214648 11.5328395,9.80101408 10.2632221,9.13938028 L12.0533095,15.8120563 L14.1690336,15.8108169 L17.3172367,8.19549296 L15.1987684,8.19549296" id="Fill-6" fill="#FFFFFE"></path>
                <path d="M11.4257041,8.19030986 L8.20192314,8.19030986 L8.17539655,8.34839437 C10.6838743,8.98039437 12.3436155,10.5059155 13.0325065,12.3397183 L12.331953,8.83402817 C12.2110969,8.35053521 11.8598483,8.20721127 11.4257041,8.19030986" id="Fill-7" fill="#EC982D"></path>
            </g>
        </g>
    </g>
</svg>