<?xml version="1.0" encoding="UTF-8"?>
<svg width="31px" height="53px" viewBox="0 0 31 53" version="1.1" xmlns="http://www.w3.org/2000/svg" xmlns:xlink="http://www.w3.org/1999/xlink">
    <!-- Generator: Sketch 53.2 (72643) - https://sketchapp.com -->
    <title>Page 1</title>
    <desc>Created with Sketch.</desc>
    <g id="Page-1" stroke="none" stroke-width="1" fill="none" fill-rule="evenodd" stroke-linecap="round" stroke-linejoin="round">
        <g id="-_Today’s-Orders-Copy" transform="translate(-1115.000000, -174.000000)" stroke="#7FB017" stroke-width="2">
            <g id="Page-1" transform="translate(1116.000000, 175.000000)">
                <path d="M19.8163059,12 L27.0659876,12 C28.1342143,12 29,12.8316347 29,13.8565022 L29,49.1422748 C29,50.1683653 28.1342143,51 27.0659876,51 L1.93273917,51 C0.864512447,51 0,50.1683653 0,49.1422748 L0,13.8565022 C0,12.8316347 0.864512447,12 1.93273917,12 L9.18242086,12" id="Stroke-1"></path>
                <path d="M17.9994732,19 L12.0005268,19 C10.8955617,19 10,18.1043793 10,16.9993415 C10,15.8956207 10.8955617,15 12.0005268,15 L17.9994732,15 C19.1044383,15 20,15.8956207 20,16.9993415 C20,18.1043793 19.1044383,19 17.9994732,19 Z" id="Stroke-3"></path>
                <polyline id="Stroke-5" points="2 0 11.3756174 15 17 15 7.62561739 0"></polyline>
                <path d="M15,11 L22,0" id="Stroke-7"></path>
                <path d="M27,0 L17,15" id="Stroke-9"></path>
                <path d="M23,30.5 C23,35.1934729 19.1949952,39 14.5006219,39 C9.80624863,39 6,35.1934729 6,30.5 C6,25.8052832 9.80624863,22 14.5006219,22 C19.1949952,22 23,25.8052832 23,30.5 Z" id="Stroke-11"></path>
                <path d="M6,44 L23,44" id="Stroke-13"></path>
                <path d="M8,47 L21,47" id="Stroke-15"></path>
                <path d="M18,29.5005488 C18,30.881449 16.6564215,32 15.0006586,32 C13.3435785,32 12,30.881449 12,29.5005488 C12,28.1196487 13.3435785,27 15.0006586,27 C16.6564215,27 18,28.1196487 18,29.5005488 Z" id="Stroke-17"></path>
                <path d="M10,37.9923497 C10.5649671,36.263388 12.3647204,35 14.4987664,35 C16.6352796,35 18.4375,36.2677596 19,38" id="Stroke-19"></path>
            </g>
        </g>
    </g>
</svg>