<?xml version="1.0" encoding="UTF-8"?>
<svg width="27px" height="27px" viewBox="0 0 27 27" version="1.1" xmlns="http://www.w3.org/2000/svg" xmlns:xlink="http://www.w3.org/1999/xlink">
    <!-- Generator: Sketch 53.2 (72643) - https://sketchapp.com -->
    <title>Page 1</title>
    <desc>Created with Sketch.</desc>
    <g id="Page-1" stroke="none" stroke-width="1" fill="none" fill-rule="evenodd">
        <g id="-_Today’s-Orders-Copy" transform="translate(-443.000000, -894.000000)">
            <g id="Page-1" transform="translate(444.000000, 895.000000)">
                <path d="M9.3334,0.5703 C9.1494,0.3603 8.8834,0.2393 8.6044,0.2393 C8.3694,0.2393 8.1414,0.3253 7.9654,0.4803 L2.5354,5.2433 L4.7844,5.2433 L8.5574,1.9333 L9.6074,3.1313 L10.7224,2.1533 L9.3334,0.5703 Z" id="Fill-1" fill="#7FB017"></path>
                <path d="M9.3334,0.5703 C9.1494,0.3603 8.8834,0.2393 8.6044,0.2393 C8.3694,0.2393 8.1414,0.3253 7.9654,0.4803 L2.5354,5.2433 L4.7844,5.2433 L8.5574,1.9333 L9.6074,3.1313 L10.7224,2.1533 L9.3334,0.5703 Z" id="Stroke-3" stroke="#7FB017" stroke-width="0.479"></path>
                <path d="M18.6513,5.2431 L16.6793,5.2431 L14.5593,2.8261 L14.0553,3.2681 L12.9423,4.2451 L11.8043,5.2431 L9.5553,5.2431 L11.9643,3.1311 L13.0783,2.1541 L13.9663,1.3741 C14.1443,1.2191 14.3713,1.1341 14.6063,1.1341 C14.8863,1.1341 15.1513,1.2541 15.3363,1.4631 L18.6513,5.2431 Z" id="Fill-5" fill="#7FB017"></path>
                <path d="M18.6513,5.2431 L16.6793,5.2431 L14.5593,2.8261 L14.0553,3.2681 L12.9423,4.2451 L11.8043,5.2431 L9.5553,5.2431 L11.9643,3.1311 L13.0783,2.1541 L13.9663,1.3741 C14.1443,1.2191 14.3713,1.1341 14.6063,1.1341 C14.8863,1.1341 15.1513,1.2541 15.3363,1.4631 L18.6513,5.2431 Z" id="Stroke-7" stroke="#7FB017" stroke-width="0.479"></path>
                <path d="M21.8203,12.0766 L21.8203,8.0956 C21.8203,8.0136 21.7543,7.9466 21.6733,7.9466 L1.8703,7.9466 C1.7893,7.9466 1.7223,8.0136 1.7223,8.0956 L1.7223,23.8876 C1.7223,23.9696 1.7893,24.0356 1.8703,24.0356 L21.6733,24.0356 C21.7543,24.0356 21.8203,23.9696 21.8203,23.8876 L21.8203,19.9056 L23.3023,19.9056 L23.3023,23.8876 C23.3023,24.7866 22.5713,25.5176 21.6733,25.5176 L1.8703,25.5176 C0.9713,25.5176 0.2393,24.7866 0.2393,23.8876 L0.2393,8.0956 C0.2393,7.1956 0.9713,6.4646 1.8703,6.4646 L21.6733,6.4646 C22.5713,6.4646 23.3023,7.1956 23.3023,8.0956 L23.3023,12.0766 L21.8203,12.0766 Z" id="Fill-9" fill="#7FB017"></path>
                <path d="M21.8203,12.0766 L21.8203,8.0956 C21.8203,8.0136 21.7543,7.9466 21.6733,7.9466 L1.8703,7.9466 C1.7893,7.9466 1.7223,8.0136 1.7223,8.0956 L1.7223,23.8876 C1.7223,23.9696 1.7893,24.0356 1.8703,24.0356 L21.6733,24.0356 C21.7543,24.0356 21.8203,23.9696 21.8203,23.8876 L21.8203,19.9056 L23.3023,19.9056 L23.3023,23.8876 C23.3023,24.7866 22.5713,25.5176 21.6733,25.5176 L1.8703,25.5176 C0.9713,25.5176 0.2393,24.7866 0.2393,23.8876 L0.2393,8.0956 C0.2393,7.1956 0.9713,6.4646 1.8703,6.4646 L21.6733,6.4646 C22.5713,6.4646 23.3023,7.1956 23.3023,8.0956 L23.3023,12.0766 L21.8203,12.0766 Z" id="Stroke-11" stroke="#7FB017" stroke-width="0.479"></path>
                <path d="M23.5283,18.2748 C23.5283,18.3568 23.4623,18.4228 23.3803,18.4228 L16.7413,18.4228 C16.6593,18.4228 16.5923,18.3568 16.5923,18.2748 L16.5923,13.7078 C16.5923,13.6258 16.6593,13.5588 16.7413,13.5588 L23.3803,13.5588 C23.4623,13.5588 23.5283,13.6258 23.5283,13.7078 L23.5283,18.2748 Z M23.3803,12.0768 L16.7413,12.0768 C15.8413,12.0768 15.1103,12.8078 15.1103,13.7078 L15.1103,18.2748 C15.1103,19.1738 15.8413,19.9058 16.7413,19.9058 L23.3803,19.9058 C24.2793,19.9058 25.0103,19.1738 25.0103,18.2748 L25.0103,13.7078 C25.0103,12.8078 24.2793,12.0768 23.3803,12.0768 L23.3803,12.0768 Z" id="Fill-13" fill="#7FB017"></path>
                <path d="M23.5283,18.2748 C23.5283,18.3568 23.4623,18.4228 23.3803,18.4228 L16.7413,18.4228 C16.6593,18.4228 16.5923,18.3568 16.5923,18.2748 L16.5923,13.7078 C16.5923,13.6258 16.6593,13.5588 16.7413,13.5588 L23.3803,13.5588 C23.4623,13.5588 23.5283,13.6258 23.5283,13.7078 L23.5283,18.2748 Z M23.3803,12.0768 L16.7413,12.0768 C15.8413,12.0768 15.1103,12.8078 15.1103,13.7078 L15.1103,18.2748 C15.1103,19.1738 15.8413,19.9058 16.7413,19.9058 L23.3803,19.9058 C24.2793,19.9058 25.0103,19.1738 25.0103,18.2748 L25.0103,13.7078 C25.0103,12.8078 24.2793,12.0768 23.3803,12.0768 Z" id="Stroke-15" stroke="#7FB017" stroke-width="0.479"></path>
                <path d="M20.0605,15.9916 C20.0605,16.3596 19.7615,16.6596 19.3925,16.6596 C19.0235,16.6596 18.7245,16.3596 18.7245,15.9916 C18.7245,15.6216 19.0235,15.3236 19.3925,15.3236 C19.7615,15.3236 20.0605,15.6216 20.0605,15.9916" id="Fill-17" fill="#7FB017"></path>
                <path d="M20.0605,15.9916 C20.0605,16.3596 19.7615,16.6596 19.3925,16.6596 C19.0235,16.6596 18.7245,16.3596 18.7245,15.9916 C18.7245,15.6216 19.0235,15.3236 19.3925,15.3236 C19.7615,15.3236 20.0605,15.6216 20.0605,15.9916 Z" id="Stroke-19" stroke="#7FB017" stroke-width="0.266"></path>
            </g>
        </g>
    </g>
</svg>