<?xml version="1.0" encoding="UTF-8"?>
<svg width="59px" height="55px" viewBox="0 0 59 55" version="1.1" xmlns="http://www.w3.org/2000/svg" xmlns:xlink="http://www.w3.org/1999/xlink">
    <!-- Generator: Sketch 53.2 (72643) - https://sketchapp.com -->
    <title>Page 1</title>
    <desc>Created with Sketch.</desc>
    <g id="Page-1" stroke="none" stroke-width="1" fill="none" fill-rule="evenodd">
        <g id="-_Today’s-Orders-Copy" transform="translate(-1359.000000, -407.000000)" stroke="#94BB21" stroke-width="4">
            <g id="Page-1" transform="translate(1361.000000, 409.000000)">
                <path d="M15,9.95121951 L3.74625,9.95121951 C1.61875,9.95121951 0,11.5757561 0,13.6829268" id="Stroke-1" stroke-linecap="round" stroke-linejoin="round"></path>
                <polyline id="Stroke-3" stroke-linecap="round" stroke-linejoin="round" points="46.25 17.4146341 46.25 9.95121951 35 9.95121951"></polyline>
                <polyline id="Stroke-5" stroke-linecap="round" stroke-linejoin="round" points="42.5 17.4146341 25 0 7.5 17.4146341"></polyline>
                <path d="M33.75,17.4146341 L27.66125,11.3244878 C25.89375,13.0833659 24.12625,13.0858537 22.35875,11.3244878 L16.24125,17.4146341" id="Stroke-7" stroke-linecap="round" stroke-linejoin="round"></path>
                <path d="M52.5,41.0487805 L52.5,51 L3.75,51 C1.6225,51 0,49.3754634 0,47.2682927 L0,13.6829268 C0,15.7900976 1.6225,17.4146341 3.75,17.4146341 L52.5,17.4146341 L52.5,26.1219512" id="Stroke-9" stroke-linecap="round" stroke-linejoin="round"></path>
                <path d="M37.5,28.6097561 C33.7025,28.6097561 31.25,31.3936098 31.25,34.8292683 C31.25,38.2649268 33.7025,41.0487805 37.5,41.0487805 L51.25,41.0487805 C53.32125,41.0487805 55,39.3782195 55,37.3170732 L55,27.3658537 C55,26.6779756 54.44,26.1219512 53.75,26.1219512 L52.5,26.1219512 C52.5,27.4442195 51.1325,28.6097561 50,28.6097561 L46.25,28.6097561 L37.5,28.6097561" id="Stroke-11" stroke-linecap="round" stroke-linejoin="round"></path>
                <path d="M36.25,34.8292683 L38.75,34.8292683" id="Stroke-13"></path>
            </g>
        </g>
    </g>
</svg>