<?xml version="1.0" standalone="no"?>
<!DOCTYPE svg PUBLIC "-//W3C//DTD SVG 20010904//EN"
 "http://www.w3.org/TR/2001/REC-SVG-20010904/DTD/svg10.dtd">
<svg version="1.0" xmlns="http://www.w3.org/2000/svg"
 width="260.000000pt" height="260.000000pt" viewBox="0 0 260.000000 260.000000"
 preserveAspectRatio="xMidYMid meet">
<metadata>
Created by potrace 1.11, written by Peter Selinger 2001-2013
</metadata>
<g transform="translate(0.000000,260.000000) scale(0.100000,-0.100000)"
fill="#000000" stroke="none">
<path d="M330 2590 c0 -5 -6 -10 -14 -10 -62 0 -217 -138 -267 -237 -19 -37
-37 -69 -41 -71 -5 -2 -8 -404 -8 -893 l0 -889 25 0 c62 0 175 -85 175 -131 0
-20 31 -49 54 -49 25 0 90 -36 131 -72 54 -46 92 -108 111 -177 l17 -61 919 0
919 0 54 35 c69 43 129 106 166 170 l29 50 0 855 -1 855 -32 20 c-17 11 -44
39 -60 63 -30 44 -50 52 -76 28 -31 -28 -104 -41 -154 -27 -90 26 -149 102
-159 206 -3 29 -6 30 -58 36 -68 7 -87 17 -133 68 -49 54 -57 111 -31 215 l6
26 -786 0 c-517 0 -786 -3 -786 -10z m578 -997 c21 -10 56 -37 79 -60 22 -24
46 -43 52 -43 5 0 22 16 36 35 40 52 115 85 193 85 78 0 135 -25 187 -82 20
-21 41 -38 47 -38 6 0 26 17 43 38 48 56 109 82 189 82 47 0 78 -6 106 -20
146 -74 187 -268 82 -390 -43 -51 -91 -76 -165 -85 -32 -4 -61 -13 -63 -19 -3
-7 2 -31 11 -55 45 -128 -23 -267 -155 -318 -60 -23 -59 -20 -40 -108 25 -118
-24 -225 -130 -281 -49 -26 -171 -26 -220 0 -114 60 -165 186 -126 307 10 28
14 55 9 59 -4 4 -28 14 -53 23 -129 48 -193 172 -159 308 8 30 14 58 14 63 0
5 -32 15 -71 22 -118 20 -191 85 -214 194 -23 110 24 213 124 271 43 24 62 29
119 29 45 0 82 -6 105 -17z"/>
<path d="M760 1503 c-38 -14 -74 -50 -92 -89 -16 -38 -17 -49 -7 -84 24 -80
106 -130 180 -110 68 19 126 109 109 169 -25 87 -116 142 -190 114z"/>
<path d="M1204 1491 c-52 -32 -74 -72 -74 -135 0 -52 3 -59 40 -96 40 -40 59
-46 124 -41 66 6 116 69 116 146 0 107 -118 180 -206 126z"/>
<path d="M1653 1481 c-83 -60 -90 -153 -18 -225 115 -116 313 40 222 175 -55
81 -134 101 -204 50z"/>
<path d="M1000 1088 c-54 -37 -74 -72 -73 -127 1 -60 28 -103 83 -131 49 -25
71 -25 120 0 55 28 85 74 85 132 0 76 -71 148 -145 148 -22 0 -51 -9 -70 -22z"/>
<path d="M1420 1103 c-23 -8 -70 -55 -86 -85 -32 -62 -5 -138 65 -185 45 -31
88 -29 142 6 80 50 97 135 42 209 -39 52 -107 75 -163 55z"/>
<path d="M1204 691 c-52 -32 -74 -72 -74 -135 0 -50 3 -59 38 -96 38 -39 59
-47 121 -41 71 7 121 66 121 144 0 109 -118 182 -206 128z"/>
</g>
</svg>
